M48
; DRILL file {KiCad 9.0.2} date 2025-11-24T12:35:16-0500
; FORMAT={-:-/ absolute / metric / decimal}
; #@! TF.CreationDate,2025-11-24T12:35:16-05:00
; #@! TF.GenerationSoftware,Kicad,Pcbnew,9.0.2
; #@! TF.FileFunction,Plated,1,2,PTH
FMAT,2
METRIC
; #@! TA.AperFunction,Plated,PTH,ViaDrill
T1C0.300
; #@! TA.AperFunction,Plated,PTH,ComponentDrill
T2C0.300
; #@! TA.AperFunction,Plated,PTH,ComponentDrill
T3C0.500
; #@! TA.AperFunction,Plated,PTH,ComponentDrill
T4C0.750
; #@! TA.AperFunction,Plated,PTH,ComponentDrill
T5C0.800
; #@! TA.AperFunction,Plated,PTH,ComponentDrill
T6C0.900
; #@! TA.AperFunction,Plated,PTH,ComponentDrill
T7C1.400
; #@! TA.AperFunction,Plated,PTH,ComponentDrill
T8C3.200
%
G90
G05
T1
X73.367Y-54.747
X73.367Y-106.747
X73.741Y-56.434
X73.741Y-57.284
X73.741Y-108.434
X73.741Y-109.284
X73.848Y-58.235
X73.848Y-110.235
X73.941Y-71.559
X73.941Y-123.559
X75.541Y-60.359
X75.541Y-112.359
X78.941Y-58.759
X78.941Y-110.759
X79.541Y-76.159
X79.541Y-128.159
X86.141Y-55.359
X86.141Y-107.359
X86.921Y-73.959
X86.921Y-125.959
X87.141Y-77.559
X87.141Y-129.559
X96.341Y-62.559
X96.341Y-114.559
X99.341Y-42.159
X99.341Y-94.159
X101.141Y-52.359
X101.141Y-67.759
X101.141Y-104.359
X101.141Y-119.759
X101.741Y-50.019
X101.741Y-102.019
X105.741Y-43.959
X105.741Y-95.959
X105.941Y-46.959
X105.941Y-98.959
X106.341Y-41.959
X106.341Y-93.959
X108.741Y-52.759
X108.741Y-104.759
X109.132Y-50.019
X109.132Y-102.019
X112.941Y-53.559
X112.941Y-105.559
X112.949Y-44.045
X112.949Y-96.045
X119.141Y-41.159
X119.141Y-93.159
X120.741Y-40.064
X120.741Y-92.064
X121.141Y-60.359
X121.141Y-112.359
X122.341Y-44.359
X122.341Y-96.359
X122.741Y-56.034
X122.741Y-108.034
X123.541Y-71.359
X123.541Y-123.359
X124.741Y-41.359
X124.741Y-46.553
X124.741Y-93.359
X124.741Y-98.553
X125.141Y-50.764
X125.141Y-102.764
X125.194Y-47.212
X125.194Y-99.212
X125.566Y-49.383
X125.566Y-101.383
X126.941Y-40.959
X126.941Y-92.959
X127.13Y-47.818
X127.13Y-99.818
X128.391Y-39.558
X128.391Y-91.558
X128.886Y-53.103
X128.886Y-105.103
X131.427Y-44.979
X131.427Y-96.979
X131.993Y-44.414
X131.993Y-96.414
X133.226Y-45.229
X133.226Y-97.229
X133.791Y-44.664
X133.791Y-96.664
X135.046Y-43.489
X135.046Y-95.489
X135.141Y-47.559
X135.141Y-99.559
X135.691Y-43.963
X135.691Y-95.963
X136.209Y-64.959
X136.209Y-116.959
X136.292Y-44.564
X136.292Y-96.564
X136.741Y-42.959
X136.741Y-94.959
X137.541Y-47.159
X137.541Y-99.159
T2
X102.866Y-47.789
X102.866Y-48.789
X102.866Y-99.789
X102.866Y-100.789
X103.866Y-47.789
X103.866Y-48.789
X103.866Y-99.789
X103.866Y-100.789
X110.121Y-47.789
X110.121Y-48.789
X110.121Y-99.789
X110.121Y-100.789
X111.121Y-47.789
X111.121Y-48.789
X111.121Y-99.789
X111.121Y-100.789
T3
X66.541Y-75.359
X66.541Y-127.359
X67.244Y-73.662
X67.244Y-77.056
X67.244Y-125.662
X67.244Y-129.056
X68.941Y-72.959
X68.941Y-77.759
X68.941Y-124.959
X68.941Y-129.759
X70.638Y-73.662
X70.638Y-77.056
X70.638Y-125.662
X70.638Y-129.056
X71.341Y-75.359
X71.341Y-127.359
X75.141Y-34.159
X75.141Y-86.159
X75.844Y-32.462
X75.844Y-35.856
X75.844Y-84.462
X75.844Y-87.856
X77.541Y-31.759
X77.541Y-36.559
X77.541Y-83.759
X77.541Y-88.559
X79.238Y-32.462
X79.238Y-35.856
X79.238Y-84.462
X79.238Y-87.856
X79.941Y-34.159
X79.941Y-86.159
X125.141Y-76.159
X125.141Y-128.159
X125.844Y-74.462
X125.844Y-77.856
X125.844Y-126.462
X125.844Y-129.856
X127.541Y-73.759
X127.541Y-78.559
X127.541Y-125.759
X127.541Y-130.559
X129.238Y-74.462
X129.238Y-77.856
X129.238Y-126.462
X129.238Y-129.856
X129.941Y-76.159
X129.941Y-128.159
T4
X71.004Y-53.959
X71.004Y-59.759
X71.004Y-105.959
X71.004Y-111.759
T7
X68.401Y-33.909
X68.401Y-38.909
X68.401Y-85.909
X68.401Y-90.909
X87.641Y-33.641
X87.641Y-85.641
X92.641Y-33.641
X92.641Y-85.641
X135.459Y-71.181
X135.459Y-76.181
X135.459Y-123.181
X135.459Y-128.181
T8
X68.941Y-75.359
X68.941Y-127.359
X77.541Y-34.159
X77.541Y-86.159
X127.541Y-76.159
X127.541Y-128.159
T5
G00X67.624Y-52.529
M15
G01X67.024Y-52.529
M16
G05
G00X67.624Y-61.189
M15
G01X67.024Y-61.189
M16
G05
G00X67.624Y-104.529
M15
G01X67.024Y-104.529
M16
G05
G00X67.624Y-113.189
M15
G01X67.024Y-113.189
M16
G05
G00X71.904Y-52.529
M15
G01X71.104Y-52.529
M16
G05
G00X71.904Y-61.189
M15
G01X71.104Y-61.189
M16
G05
G00X71.904Y-104.529
M15
G01X71.104Y-104.529
M16
G05
G00X71.904Y-113.189
M15
G01X71.104Y-113.189
M16
G05
T6
G00X72.201Y-48.009
M15
G01X72.201Y-45.809
M16
G05
G00X72.201Y-100.009
M15
G01X72.201Y-97.809
M16
G05
G00X76.551Y-51.569
M15
G01X74.851Y-51.569
M16
G05
G00X76.551Y-103.569
M15
G01X74.851Y-103.569
M16
G05
G00X78.201Y-45.809
M15
G01X78.201Y-48.009
M16
G05
G00X78.201Y-97.809
M15
G01X78.201Y-100.009
M16
G05
M30
