%TF.GenerationSoftware,KiCad,Pcbnew,9.0.2*%
%TF.CreationDate,2025-11-24T12:35:19-05:00*%
%TF.ProjectId,carkit PANEL,6361726b-6974-4205-9041-4e454c2e6b69,rev?*%
%TF.SameCoordinates,Original*%
%TF.FileFunction,Soldermask,Top*%
%TF.FilePolarity,Negative*%
%FSLAX46Y46*%
G04 Gerber Fmt 4.6, Leading zero omitted, Abs format (unit mm)*
G04 Created by KiCad (PCBNEW 9.0.2) date 2025-11-24 12:35:19*
%MOMM*%
%LPD*%
G01*
G04 APERTURE LIST*
G04 Aperture macros list*
%AMRoundRect*
0 Rectangle with rounded corners*
0 $1 Rounding radius*
0 $2 $3 $4 $5 $6 $7 $8 $9 X,Y pos of 4 corners*
0 Add a 4 corners polygon primitive as box body*
4,1,4,$2,$3,$4,$5,$6,$7,$8,$9,$2,$3,0*
0 Add four circle primitives for the rounded corners*
1,1,$1+$1,$2,$3*
1,1,$1+$1,$4,$5*
1,1,$1+$1,$6,$7*
1,1,$1+$1,$8,$9*
0 Add four rect primitives between the rounded corners*
20,1,$1+$1,$2,$3,$4,$5,0*
20,1,$1+$1,$4,$5,$6,$7,0*
20,1,$1+$1,$6,$7,$8,$9,0*
20,1,$1+$1,$8,$9,$2,$3,0*%
%AMRotRect*
0 Rectangle, with rotation*
0 The origin of the aperture is its center*
0 $1 length*
0 $2 width*
0 $3 Rotation angle, in degrees counterclockwise*
0 Add horizontal line*
21,1,$1,$2,0,0,$3*%
%AMFreePoly0*
4,1,21,4.105355,5.815355,4.120000,5.780000,4.120000,-5.140000,4.105355,-5.175355,4.070000,-5.190000,2.540000,-5.190000,2.504645,-5.175355,2.490000,-5.140000,2.490000,-4.050000,-4.060000,-4.050000,-4.095355,-4.035355,-4.110000,-4.000000,-4.110000,4.000000,-4.095355,4.035355,-4.060000,4.050000,2.490000,4.050000,2.490000,5.780000,2.504645,5.815355,2.540000,5.830000,4.070000,5.830000,
4.105355,5.815355,4.105355,5.815355,$1*%
%AMFreePoly1*
4,1,6,0.725000,-0.725000,-0.725000,-0.725000,-0.725000,0.125000,-0.125000,0.725000,0.725000,0.725000,0.725000,-0.725000,0.725000,-0.725000,$1*%
G04 Aperture macros list end*
%ADD10R,1.350000X1.410000*%
%ADD11RotRect,1.410000X1.350000X135.000000*%
%ADD12R,1.410000X1.350000*%
%ADD13FreePoly0,0.000000*%
%ADD14R,3.200000X1.150000*%
%ADD15R,3.500000X4.000000*%
%ADD16R,3.550000X2.460000*%
%ADD17O,0.340000X1.750000*%
%ADD18C,0.610000*%
%ADD19R,3.500000X1.200000*%
%ADD20O,3.400000X1.500000*%
%ADD21O,1.500000X3.800000*%
%ADD22RoundRect,0.375000X-0.625000X-0.375000X0.625000X-0.375000X0.625000X0.375000X-0.625000X0.375000X0*%
%ADD23RoundRect,0.500000X-0.500000X-1.400000X0.500000X-1.400000X0.500000X1.400000X-0.500000X1.400000X0*%
%ADD24R,1.540000X2.060000*%
%ADD25R,1.360000X1.230000*%
%ADD26R,1.500000X1.000000*%
%ADD27C,0.800000*%
%ADD28C,6.400000*%
%ADD29R,1.500000X5.000000*%
%ADD30R,1.130000X1.380000*%
%ADD31R,1.230000X1.360000*%
%ADD32R,4.000000X1.600000*%
%ADD33C,2.200000*%
%ADD34R,1.380000X1.130000*%
%ADD35R,3.300000X0.850000*%
%ADD36R,1.000000X1.250000*%
%ADD37R,0.700000X0.700000*%
%ADD38R,1.450000X1.450000*%
%ADD39FreePoly1,0.000000*%
%ADD40R,0.400000X0.800000*%
%ADD41R,0.800000X0.400000*%
%ADD42O,1.800000X1.200000*%
%ADD43O,2.000000X1.200000*%
%ADD44R,1.300000X0.300000*%
%ADD45C,0.750000*%
G04 APERTURE END LIST*
D10*
%TO.C,C23*%
X96941250Y-61158750D03*
X96941250Y-59158750D03*
%TD*%
D11*
%TO.C,C25*%
X72327038Y-71744538D03*
X73741250Y-73158750D03*
%TD*%
D12*
%TO.C,C27*%
X123341250Y-32663750D03*
X121341250Y-32663750D03*
%TD*%
D13*
%TO.C,U7*%
X91221250Y-57188750D03*
D14*
X81201250Y-60268750D03*
X81201250Y-58568750D03*
X81201250Y-56868750D03*
X81201250Y-55168750D03*
X81201250Y-53468750D03*
%TD*%
D15*
%TO.C,L2*%
X86821250Y-67958750D03*
X96421250Y-67958750D03*
%TD*%
D16*
%TO.C,U10*%
X110621250Y-48288750D03*
D17*
X108341250Y-45418750D03*
X108991250Y-45418750D03*
X109641250Y-45418750D03*
X110301250Y-45418750D03*
X110951250Y-45418750D03*
X111601250Y-45418750D03*
X112251250Y-45418750D03*
X112901250Y-45418750D03*
X112901250Y-51158750D03*
X112251250Y-51158750D03*
X111601250Y-51158750D03*
X110951250Y-51158750D03*
X110301250Y-51158750D03*
X109641250Y-51158750D03*
X108991250Y-51158750D03*
X108341250Y-51158750D03*
D18*
X111121250Y-48788750D03*
X111121250Y-47788750D03*
X110121250Y-48788750D03*
X110121250Y-47788750D03*
%TD*%
D10*
%TO.C,C21*%
X77221250Y-54558750D03*
X77221250Y-56558750D03*
%TD*%
D16*
%TO.C,U9*%
X103366250Y-48288750D03*
D17*
X101086250Y-45418750D03*
X101736250Y-45418750D03*
X102386250Y-45418750D03*
X103046250Y-45418750D03*
X103696250Y-45418750D03*
X104346250Y-45418750D03*
X104996250Y-45418750D03*
X105646250Y-45418750D03*
X105646250Y-51158750D03*
X104996250Y-51158750D03*
X104346250Y-51158750D03*
X103696250Y-51158750D03*
X103046250Y-51158750D03*
X102386250Y-51158750D03*
X101736250Y-51158750D03*
X101086250Y-51158750D03*
D18*
X103866250Y-48788750D03*
X103866250Y-47788750D03*
X102866250Y-48788750D03*
X102866250Y-47788750D03*
%TD*%
D19*
%TO.C,C20*%
X88611250Y-46758750D03*
X83271250Y-46758750D03*
%TD*%
D12*
%TO.C,C29*%
X121341250Y-38958750D03*
X123341250Y-38958750D03*
%TD*%
D20*
%TO.C,J7*%
X75701250Y-51568750D03*
D21*
X72201250Y-46908750D03*
X78201250Y-46908750D03*
%TD*%
D22*
%TO.C,U8*%
X99871250Y-69088750D03*
D23*
X106171250Y-66788750D03*
D22*
X99871250Y-66788750D03*
X99871250Y-64488750D03*
%TD*%
D24*
%TO.C,D7*%
X97141250Y-55058750D03*
X97141250Y-50058750D03*
%TD*%
D25*
%TO.C,SW4*%
X79541250Y-73958750D03*
X79541250Y-78318750D03*
%TD*%
D12*
%TO.C,C35*%
X111066250Y-38758750D03*
X109066250Y-38758750D03*
%TD*%
D26*
%TO.C,D11*%
X102891250Y-77958750D03*
X102891250Y-74758750D03*
X107791250Y-74758750D03*
X107791250Y-77958750D03*
%TD*%
D10*
%TO.C,C26*%
X82341250Y-75138750D03*
X82341250Y-77138750D03*
%TD*%
D27*
%TO.C,H4*%
X71341250Y-75358750D03*
X70638306Y-77055806D03*
X70638306Y-73661694D03*
X68941250Y-77758750D03*
D28*
X68941250Y-75358750D03*
D27*
X68941250Y-72958750D03*
X67244194Y-77055806D03*
X67244194Y-73661694D03*
X66541250Y-75358750D03*
%TD*%
D29*
%TO.C,BUZZER2*%
X121141250Y-63958750D03*
X110341250Y-63958750D03*
%TD*%
D30*
%TO.C,R19*%
X103466250Y-54388750D03*
X101466250Y-54388750D03*
%TD*%
D12*
%TO.C,C28*%
X123341250Y-36013750D03*
X121341250Y-36013750D03*
%TD*%
%TO.C,C34*%
X109066250Y-41958750D03*
X111066250Y-41958750D03*
%TD*%
D31*
%TO.C,SW3*%
X66781250Y-69158750D03*
X71141250Y-69158750D03*
%TD*%
D32*
%TO.C,C38*%
X82141250Y-67558750D03*
X75141250Y-67558750D03*
%TD*%
D30*
%TO.C,R11*%
X123341250Y-42263750D03*
X121341250Y-42263750D03*
%TD*%
%TO.C,R13*%
X67401250Y-63108750D03*
X69401250Y-63108750D03*
%TD*%
D12*
%TO.C,C30*%
X101866250Y-41958750D03*
X103866250Y-41958750D03*
%TD*%
D10*
%TO.C,C22*%
X77221250Y-58758750D03*
X77221250Y-60758750D03*
%TD*%
D27*
%TO.C,H5*%
X79941250Y-34158750D03*
X79238306Y-35855806D03*
X79238306Y-32461694D03*
X77541250Y-36558750D03*
D28*
X77541250Y-34158750D03*
D27*
X77541250Y-31758750D03*
X75844194Y-35855806D03*
X75844194Y-32461694D03*
X75141250Y-34158750D03*
%TD*%
%TO.C,H6*%
X129941250Y-76158750D03*
X129238306Y-77855806D03*
X129238306Y-74461694D03*
X127541250Y-78558750D03*
D28*
X127541250Y-76158750D03*
D27*
X127541250Y-73758750D03*
X125844194Y-77855806D03*
X125844194Y-74461694D03*
X125141250Y-76158750D03*
%TD*%
D33*
%TO.C,J8*%
X68401250Y-38908750D03*
X68401250Y-33908750D03*
%TD*%
D30*
%TO.C,R14*%
X71201250Y-63108750D03*
X73201250Y-63108750D03*
%TD*%
D12*
%TO.C,C31*%
X101866250Y-38758750D03*
X103866250Y-38758750D03*
%TD*%
%TO.C,C24*%
X101621250Y-60988750D03*
X103621250Y-60988750D03*
%TD*%
D26*
%TO.C,D10*%
X110291250Y-77958750D03*
X110291250Y-74758750D03*
X115191250Y-74758750D03*
X115191250Y-77958750D03*
%TD*%
D34*
%TO.C,R15*%
X73741250Y-75758750D03*
X73741250Y-77758750D03*
%TD*%
D33*
%TO.C,J12*%
X135458750Y-71181250D03*
X135458750Y-76181250D03*
%TD*%
D34*
%TO.C,R16*%
X85741250Y-77138750D03*
X85741250Y-75138750D03*
%TD*%
D30*
%TO.C,R12*%
X123341250Y-45663750D03*
X121341250Y-45663750D03*
%TD*%
D35*
%TO.C,J9*%
X126941250Y-60988750D03*
X133081250Y-60988750D03*
X126941250Y-63528750D03*
X133081250Y-63528750D03*
X126941250Y-66068750D03*
X133081250Y-66068750D03*
%TD*%
D10*
%TO.C,C33*%
X95741250Y-44188750D03*
X95741250Y-46188750D03*
%TD*%
%TO.C,C36*%
X115466250Y-47588750D03*
X115466250Y-45588750D03*
%TD*%
D26*
%TO.C,D8*%
X117691250Y-77958750D03*
X117691250Y-74758750D03*
X122591250Y-74758750D03*
X122591250Y-77958750D03*
%TD*%
D35*
%TO.C,J10*%
X126941250Y-52078750D03*
X133081250Y-52078750D03*
X126941250Y-54618750D03*
X133081250Y-54618750D03*
X126941250Y-57158750D03*
X133081250Y-57158750D03*
%TD*%
D30*
%TO.C,R18*%
X123341250Y-48958750D03*
X121341250Y-48958750D03*
%TD*%
D36*
%TO.C,D9*%
X105441250Y-57958750D03*
X107641250Y-57958750D03*
%TD*%
D30*
%TO.C,R20*%
X110866250Y-54388750D03*
X108866250Y-54388750D03*
%TD*%
D10*
%TO.C,C37*%
X118666250Y-47588750D03*
X118666250Y-45588750D03*
%TD*%
D37*
%TO.C,U6*%
X125791250Y-36263750D03*
X125791250Y-46163750D03*
X137691250Y-46163750D03*
X137691250Y-36263750D03*
D38*
X133716250Y-43188750D03*
X133716250Y-41213750D03*
X133716250Y-39238750D03*
X131741250Y-43188750D03*
X131741250Y-41213750D03*
X131741250Y-39238750D03*
X129766250Y-43188750D03*
X129766250Y-41213750D03*
D39*
X129766250Y-39238750D03*
D40*
X126941250Y-36313750D03*
X127741250Y-36313750D03*
X128541250Y-36313750D03*
X129341250Y-36313750D03*
X130141250Y-36313750D03*
X130941250Y-36313750D03*
X131741250Y-36313750D03*
X132541250Y-36313750D03*
X133341250Y-36313750D03*
X134141250Y-36313750D03*
X134941250Y-36313750D03*
X135741250Y-36313750D03*
X136541250Y-36313750D03*
D41*
X137641250Y-37213750D03*
X137641250Y-38013750D03*
X137641250Y-38813750D03*
X137641250Y-39613750D03*
X137641250Y-40413750D03*
X137641250Y-41213750D03*
X137641250Y-42013750D03*
X137641250Y-42813750D03*
X137641250Y-43613750D03*
X137641250Y-44413750D03*
X137641250Y-45213750D03*
D40*
X136541250Y-46113750D03*
X135741250Y-46113750D03*
X134941250Y-46113750D03*
X134141250Y-46113750D03*
X133341250Y-46113750D03*
X132541250Y-46113750D03*
X131741250Y-46113750D03*
X130941250Y-46113750D03*
X130141250Y-46113750D03*
X129341250Y-46113750D03*
X128541250Y-46113750D03*
X127741250Y-46113750D03*
X126941250Y-46113750D03*
D41*
X125841250Y-45213750D03*
X125841250Y-44413750D03*
X125841250Y-43613750D03*
X125841250Y-42813750D03*
X125841250Y-42013750D03*
X125841250Y-41213750D03*
X125841250Y-40413750D03*
X125841250Y-39613750D03*
X125841250Y-38813750D03*
X125841250Y-38013750D03*
X125841250Y-37213750D03*
%TD*%
D42*
%TO.C,P2*%
X67323750Y-61188750D03*
D43*
X71503750Y-61188750D03*
D42*
X67323750Y-52528750D03*
D43*
X71503750Y-52528750D03*
D44*
X72263750Y-53808750D03*
X72263750Y-54608750D03*
X72263750Y-55108750D03*
X72263750Y-56108750D03*
X72263750Y-57608750D03*
X72263750Y-58608750D03*
X72263750Y-59108750D03*
X72263750Y-59908750D03*
X72263750Y-60208750D03*
X72263750Y-59408750D03*
X72263750Y-58108750D03*
X72263750Y-57108750D03*
X72263750Y-56608750D03*
X72263750Y-55608750D03*
X72263750Y-54308750D03*
X72263750Y-53508750D03*
D45*
X71003750Y-59758750D03*
X71003750Y-53958750D03*
%TD*%
D30*
%TO.C,R17*%
X103341250Y-57958750D03*
X101341250Y-57958750D03*
%TD*%
D26*
%TO.C,D12*%
X95491250Y-77958750D03*
X95491250Y-74758750D03*
X100391250Y-74758750D03*
X100391250Y-77958750D03*
%TD*%
D10*
%TO.C,C32*%
X98941250Y-44188750D03*
X98941250Y-46188750D03*
%TD*%
D33*
%TO.C,J11*%
X87641250Y-33641250D03*
X92641250Y-33641250D03*
%TD*%
D10*
%TO.C,C4*%
X96941250Y-113158750D03*
X96941250Y-111158750D03*
%TD*%
D11*
%TO.C,C6*%
X72327038Y-123744538D03*
X73741250Y-125158750D03*
%TD*%
D12*
%TO.C,C8*%
X123341250Y-84663750D03*
X121341250Y-84663750D03*
%TD*%
D13*
%TO.C,U2*%
X91221250Y-109188750D03*
D14*
X81201250Y-112268750D03*
X81201250Y-110568750D03*
X81201250Y-108868750D03*
X81201250Y-107168750D03*
X81201250Y-105468750D03*
%TD*%
D15*
%TO.C,L1*%
X86821250Y-119958750D03*
X96421250Y-119958750D03*
%TD*%
D20*
%TO.C,J1*%
X75701250Y-103568750D03*
D21*
X72201250Y-98908750D03*
X78201250Y-98908750D03*
%TD*%
D22*
%TO.C,U3*%
X99871250Y-121088750D03*
D23*
X106171250Y-118788750D03*
D22*
X99871250Y-118788750D03*
X99871250Y-116488750D03*
%TD*%
D24*
%TO.C,D1*%
X97141250Y-107058750D03*
X97141250Y-102058750D03*
%TD*%
D25*
%TO.C,SW2*%
X79541250Y-125958750D03*
X79541250Y-130318750D03*
%TD*%
D10*
%TO.C,C2*%
X77221250Y-106558750D03*
X77221250Y-108558750D03*
%TD*%
D26*
%TO.C,D5*%
X102891250Y-129958750D03*
X102891250Y-126758750D03*
X107791250Y-126758750D03*
X107791250Y-129958750D03*
%TD*%
D10*
%TO.C,C7*%
X82341250Y-127138750D03*
X82341250Y-129138750D03*
%TD*%
D27*
%TO.C,H1*%
X71341250Y-127358750D03*
X70638306Y-129055806D03*
X70638306Y-125661694D03*
X68941250Y-129758750D03*
D28*
X68941250Y-127358750D03*
D27*
X68941250Y-124958750D03*
X67244194Y-129055806D03*
X67244194Y-125661694D03*
X66541250Y-127358750D03*
%TD*%
D29*
%TO.C,BUZZER1*%
X121141250Y-115958750D03*
X110341250Y-115958750D03*
%TD*%
D12*
%TO.C,C9*%
X123341250Y-88013750D03*
X121341250Y-88013750D03*
%TD*%
%TO.C,C15*%
X109066250Y-93958750D03*
X111066250Y-93958750D03*
%TD*%
D31*
%TO.C,SW1*%
X66781250Y-121158750D03*
X71141250Y-121158750D03*
%TD*%
D12*
%TO.C,C16*%
X111066250Y-90758750D03*
X109066250Y-90758750D03*
%TD*%
D32*
%TO.C,C19*%
X82141250Y-119558750D03*
X75141250Y-119558750D03*
%TD*%
D30*
%TO.C,R1*%
X123341250Y-94263750D03*
X121341250Y-94263750D03*
%TD*%
%TO.C,R3*%
X67401250Y-115108750D03*
X69401250Y-115108750D03*
%TD*%
D12*
%TO.C,C11*%
X101866250Y-93958750D03*
X103866250Y-93958750D03*
%TD*%
D10*
%TO.C,C3*%
X77221250Y-110758750D03*
X77221250Y-112758750D03*
%TD*%
D27*
%TO.C,H2*%
X79941250Y-86158750D03*
X79238306Y-87855806D03*
X79238306Y-84461694D03*
X77541250Y-88558750D03*
D28*
X77541250Y-86158750D03*
D27*
X77541250Y-83758750D03*
X75844194Y-87855806D03*
X75844194Y-84461694D03*
X75141250Y-86158750D03*
%TD*%
%TO.C,H3*%
X129941250Y-128158750D03*
X129238306Y-129855806D03*
X129238306Y-126461694D03*
X127541250Y-130558750D03*
D28*
X127541250Y-128158750D03*
D27*
X127541250Y-125758750D03*
X125844194Y-129855806D03*
X125844194Y-126461694D03*
X125141250Y-128158750D03*
%TD*%
D33*
%TO.C,J2*%
X68401250Y-90908750D03*
X68401250Y-85908750D03*
%TD*%
D30*
%TO.C,R4*%
X71201250Y-115108750D03*
X73201250Y-115108750D03*
%TD*%
%TO.C,R9*%
X103466250Y-106388750D03*
X101466250Y-106388750D03*
%TD*%
D16*
%TO.C,U5*%
X110621250Y-100288750D03*
D17*
X108341250Y-97418750D03*
X108991250Y-97418750D03*
X109641250Y-97418750D03*
X110301250Y-97418750D03*
X110951250Y-97418750D03*
X111601250Y-97418750D03*
X112251250Y-97418750D03*
X112901250Y-97418750D03*
X112901250Y-103158750D03*
X112251250Y-103158750D03*
X111601250Y-103158750D03*
X110951250Y-103158750D03*
X110301250Y-103158750D03*
X109641250Y-103158750D03*
X108991250Y-103158750D03*
X108341250Y-103158750D03*
D18*
X111121250Y-100788750D03*
X111121250Y-99788750D03*
X110121250Y-100788750D03*
X110121250Y-99788750D03*
%TD*%
D12*
%TO.C,C12*%
X101866250Y-90758750D03*
X103866250Y-90758750D03*
%TD*%
%TO.C,C10*%
X121341250Y-90958750D03*
X123341250Y-90958750D03*
%TD*%
%TO.C,C5*%
X101621250Y-112988750D03*
X103621250Y-112988750D03*
%TD*%
D26*
%TO.C,D4*%
X110291250Y-129958750D03*
X110291250Y-126758750D03*
X115191250Y-126758750D03*
X115191250Y-129958750D03*
%TD*%
D34*
%TO.C,R5*%
X73741250Y-127758750D03*
X73741250Y-129758750D03*
%TD*%
D33*
%TO.C,J6*%
X135458750Y-123181250D03*
X135458750Y-128181250D03*
%TD*%
D34*
%TO.C,R6*%
X85741250Y-129138750D03*
X85741250Y-127138750D03*
%TD*%
D30*
%TO.C,R2*%
X123341250Y-97663750D03*
X121341250Y-97663750D03*
%TD*%
D35*
%TO.C,J3*%
X126941250Y-112988750D03*
X133081250Y-112988750D03*
X126941250Y-115528750D03*
X133081250Y-115528750D03*
X126941250Y-118068750D03*
X133081250Y-118068750D03*
%TD*%
D10*
%TO.C,C14*%
X95741250Y-96188750D03*
X95741250Y-98188750D03*
%TD*%
%TO.C,C17*%
X115466250Y-99588750D03*
X115466250Y-97588750D03*
%TD*%
D26*
%TO.C,D2*%
X117691250Y-129958750D03*
X117691250Y-126758750D03*
X122591250Y-126758750D03*
X122591250Y-129958750D03*
%TD*%
D35*
%TO.C,J4*%
X126941250Y-104078750D03*
X133081250Y-104078750D03*
X126941250Y-106618750D03*
X133081250Y-106618750D03*
X126941250Y-109158750D03*
X133081250Y-109158750D03*
%TD*%
D19*
%TO.C,C1*%
X88611250Y-98758750D03*
X83271250Y-98758750D03*
%TD*%
D30*
%TO.C,R8*%
X123341250Y-100958750D03*
X121341250Y-100958750D03*
%TD*%
D36*
%TO.C,D3*%
X105441250Y-109958750D03*
X107641250Y-109958750D03*
%TD*%
D16*
%TO.C,U4*%
X103366250Y-100288750D03*
D17*
X101086250Y-97418750D03*
X101736250Y-97418750D03*
X102386250Y-97418750D03*
X103046250Y-97418750D03*
X103696250Y-97418750D03*
X104346250Y-97418750D03*
X104996250Y-97418750D03*
X105646250Y-97418750D03*
X105646250Y-103158750D03*
X104996250Y-103158750D03*
X104346250Y-103158750D03*
X103696250Y-103158750D03*
X103046250Y-103158750D03*
X102386250Y-103158750D03*
X101736250Y-103158750D03*
X101086250Y-103158750D03*
D18*
X103866250Y-100788750D03*
X103866250Y-99788750D03*
X102866250Y-100788750D03*
X102866250Y-99788750D03*
%TD*%
D10*
%TO.C,C18*%
X118666250Y-99588750D03*
X118666250Y-97588750D03*
%TD*%
D42*
%TO.C,P1*%
X67323750Y-113188750D03*
D43*
X71503750Y-113188750D03*
D42*
X67323750Y-104528750D03*
D43*
X71503750Y-104528750D03*
D44*
X72263750Y-105808750D03*
X72263750Y-106608750D03*
X72263750Y-107108750D03*
X72263750Y-108108750D03*
X72263750Y-109608750D03*
X72263750Y-110608750D03*
X72263750Y-111108750D03*
X72263750Y-111908750D03*
X72263750Y-112208750D03*
X72263750Y-111408750D03*
X72263750Y-110108750D03*
X72263750Y-109108750D03*
X72263750Y-108608750D03*
X72263750Y-107608750D03*
X72263750Y-106308750D03*
X72263750Y-105508750D03*
D45*
X71003750Y-111758750D03*
X71003750Y-105958750D03*
%TD*%
D30*
%TO.C,R7*%
X103341250Y-109958750D03*
X101341250Y-109958750D03*
%TD*%
D26*
%TO.C,D6*%
X95491250Y-129958750D03*
X95491250Y-126758750D03*
X100391250Y-126758750D03*
X100391250Y-129958750D03*
%TD*%
D30*
%TO.C,R10*%
X110866250Y-106388750D03*
X108866250Y-106388750D03*
%TD*%
D10*
%TO.C,C13*%
X98941250Y-96188750D03*
X98941250Y-98188750D03*
%TD*%
D37*
%TO.C,U1*%
X125791250Y-88263750D03*
X125791250Y-98163750D03*
X137691250Y-98163750D03*
X137691250Y-88263750D03*
D38*
X133716250Y-95188750D03*
X133716250Y-93213750D03*
X133716250Y-91238750D03*
X131741250Y-95188750D03*
X131741250Y-93213750D03*
X131741250Y-91238750D03*
X129766250Y-95188750D03*
X129766250Y-93213750D03*
D39*
X129766250Y-91238750D03*
D40*
X126941250Y-88313750D03*
X127741250Y-88313750D03*
X128541250Y-88313750D03*
X129341250Y-88313750D03*
X130141250Y-88313750D03*
X130941250Y-88313750D03*
X131741250Y-88313750D03*
X132541250Y-88313750D03*
X133341250Y-88313750D03*
X134141250Y-88313750D03*
X134941250Y-88313750D03*
X135741250Y-88313750D03*
X136541250Y-88313750D03*
D41*
X137641250Y-89213750D03*
X137641250Y-90013750D03*
X137641250Y-90813750D03*
X137641250Y-91613750D03*
X137641250Y-92413750D03*
X137641250Y-93213750D03*
X137641250Y-94013750D03*
X137641250Y-94813750D03*
X137641250Y-95613750D03*
X137641250Y-96413750D03*
X137641250Y-97213750D03*
D40*
X136541250Y-98113750D03*
X135741250Y-98113750D03*
X134941250Y-98113750D03*
X134141250Y-98113750D03*
X133341250Y-98113750D03*
X132541250Y-98113750D03*
X131741250Y-98113750D03*
X130941250Y-98113750D03*
X130141250Y-98113750D03*
X129341250Y-98113750D03*
X128541250Y-98113750D03*
X127741250Y-98113750D03*
X126941250Y-98113750D03*
D41*
X125841250Y-97213750D03*
X125841250Y-96413750D03*
X125841250Y-95613750D03*
X125841250Y-94813750D03*
X125841250Y-94013750D03*
X125841250Y-93213750D03*
X125841250Y-92413750D03*
X125841250Y-91613750D03*
X125841250Y-90813750D03*
X125841250Y-90013750D03*
X125841250Y-89213750D03*
%TD*%
D33*
%TO.C,J5*%
X87641250Y-85641250D03*
X92641250Y-85641250D03*
%TD*%
M02*
