%TF.GenerationSoftware,KiCad,Pcbnew,9.0.2*%
%TF.CreationDate,2025-11-24T16:37:35-05:00*%
%TF.ProjectId,carkit PANEL,6361726b-6974-4205-9041-4e454c2e6b69,rev?*%
%TF.SameCoordinates,Original*%
%TF.FileFunction,Copper,L2,Bot*%
%TF.FilePolarity,Positive*%
%FSLAX46Y46*%
G04 Gerber Fmt 4.6, Leading zero omitted, Abs format (unit mm)*
G04 Created by KiCad (PCBNEW 9.0.2) date 2025-11-24 16:37:35*
%MOMM*%
%LPD*%
G01*
G04 APERTURE LIST*
%TA.AperFunction,EtchedComponent*%
%ADD10C,0.000000*%
%TD*%
%TA.AperFunction,ComponentPad*%
%ADD11C,0.610000*%
%TD*%
%TA.AperFunction,ComponentPad*%
%ADD12C,0.900000*%
%TD*%
%TA.AperFunction,ComponentPad*%
%ADD13C,2.200000*%
%TD*%
%TA.AperFunction,ComponentPad*%
%ADD14C,0.750000*%
%TD*%
%TA.AperFunction,ComponentPad*%
%ADD15O,2.000000X1.200000*%
%TD*%
%TA.AperFunction,ComponentPad*%
%ADD16O,1.800000X1.200000*%
%TD*%
%TA.AperFunction,ComponentPad*%
%ADD17O,1.500000X3.800000*%
%TD*%
%TA.AperFunction,ComponentPad*%
%ADD18O,3.400000X1.500000*%
%TD*%
%TA.AperFunction,ComponentPad*%
%ADD19C,0.800000*%
%TD*%
%TA.AperFunction,ComponentPad*%
%ADD20C,6.400000*%
%TD*%
%TA.AperFunction,ViaPad*%
%ADD21C,0.600000*%
%TD*%
%TA.AperFunction,Conductor*%
%ADD22C,0.400000*%
%TD*%
%TA.AperFunction,Conductor*%
%ADD23C,0.200000*%
%TD*%
%TA.AperFunction,Conductor*%
%ADD24C,0.500000*%
%TD*%
G04 APERTURE END LIST*
D10*
%TA.AperFunction,EtchedComponent*%
%TO.C,G\u002A\u002A\u002A5*%
G36*
X95708091Y-41839705D02*
G01*
X95746312Y-41901481D01*
X95862970Y-42140937D01*
X95985291Y-42448253D01*
X96079432Y-42736608D01*
X96094200Y-42793880D01*
X96152684Y-42933705D01*
X96204317Y-42973467D01*
X96315581Y-43033068D01*
X96452554Y-43171638D01*
X96563017Y-43328826D01*
X96597204Y-43427509D01*
X96527870Y-43506622D01*
X96386679Y-43532183D01*
X96160289Y-43606885D01*
X95937529Y-43811541D01*
X95759338Y-43978401D01*
X95585780Y-44076131D01*
X95453707Y-44091277D01*
X95399977Y-44010392D01*
X95399954Y-44007746D01*
X95350038Y-43893904D01*
X95240321Y-43753246D01*
X95123979Y-43595181D01*
X95080687Y-43477225D01*
X95134084Y-43385226D01*
X95263244Y-43387939D01*
X95421627Y-43477496D01*
X95492513Y-43546875D01*
X95643704Y-43721200D01*
X95765804Y-43546875D01*
X95933172Y-43410411D01*
X96082196Y-43372550D01*
X96276486Y-43372550D01*
X96037761Y-43144413D01*
X95886763Y-42972309D01*
X95804252Y-42824208D01*
X95799038Y-42793778D01*
X95734460Y-42660355D01*
X95679312Y-42625337D01*
X95576728Y-42627377D01*
X95559588Y-42664591D01*
X95505739Y-42768570D01*
X95371440Y-42923562D01*
X95320138Y-42973467D01*
X95169207Y-43134201D01*
X95086216Y-43260960D01*
X95080687Y-43284849D01*
X95022150Y-43364169D01*
X94880049Y-43366816D01*
X94704655Y-43303127D01*
X94546241Y-43183440D01*
X94536893Y-43173009D01*
X94363394Y-42973467D01*
X94687834Y-42973467D01*
X94968350Y-42932250D01*
X95164514Y-42822237D01*
X95240281Y-42663886D01*
X95240321Y-42659902D01*
X95297704Y-42577843D01*
X95320138Y-42574384D01*
X95372469Y-42504117D01*
X95399102Y-42330909D01*
X95399954Y-42289323D01*
X95434744Y-42059946D01*
X95519403Y-41885513D01*
X95528395Y-41875824D01*
X95634753Y-41792441D01*
X95708091Y-41839705D01*
G37*
%TD.AperFunction*%
%TA.AperFunction,EtchedComponent*%
G36*
X100732969Y-38971817D02*
G01*
X100828142Y-39137149D01*
X100836580Y-39281945D01*
X100889232Y-39361751D01*
X100983625Y-39381715D01*
X101118864Y-39435846D01*
X101146756Y-39544977D01*
X101219820Y-39761628D01*
X101413125Y-39960117D01*
X101687847Y-40108865D01*
X101911561Y-40167043D01*
X102160123Y-40224505D01*
X102257728Y-40295303D01*
X102201787Y-40369609D01*
X101989704Y-40437589D01*
X101983298Y-40438931D01*
X101677632Y-40547810D01*
X101509502Y-40724734D01*
X101466024Y-40938141D01*
X101423422Y-41131185D01*
X101322044Y-41298549D01*
X101201528Y-41376645D01*
X101192366Y-41377133D01*
X101155536Y-41309887D01*
X101146756Y-41213872D01*
X101074020Y-40988173D01*
X100884004Y-40799981D01*
X100618984Y-40682129D01*
X100432034Y-40658782D01*
X100230772Y-40641266D01*
X100117940Y-40597453D01*
X100109140Y-40578966D01*
X100050411Y-40517153D01*
X100019345Y-40519104D01*
X99970032Y-40499149D01*
X100478122Y-40499149D01*
X100812440Y-40499149D01*
X101017857Y-40516105D01*
X101135747Y-40558679D01*
X101146756Y-40578966D01*
X101207496Y-40656463D01*
X101226572Y-40658782D01*
X101286574Y-40590477D01*
X101306391Y-40459241D01*
X101279067Y-40309241D01*
X101226572Y-40259699D01*
X101167187Y-40191224D01*
X101146756Y-40054457D01*
X101111464Y-39879333D01*
X101028269Y-39732503D01*
X100931201Y-39661413D01*
X100876900Y-39678177D01*
X100840548Y-39786897D01*
X100827491Y-39950627D01*
X100765976Y-40180193D01*
X100652805Y-40336406D01*
X100478122Y-40499149D01*
X99970032Y-40499149D01*
X99914417Y-40476645D01*
X99892969Y-40439286D01*
X99928320Y-40361081D01*
X100062580Y-40339515D01*
X100215779Y-40316073D01*
X100268772Y-40269009D01*
X100335199Y-40194488D01*
X100428408Y-40156756D01*
X100521418Y-40108717D01*
X100569783Y-39999896D01*
X100586920Y-39789245D01*
X100588040Y-39668546D01*
X100575126Y-39425821D01*
X100541764Y-39263670D01*
X100508224Y-39222083D01*
X100443374Y-39155232D01*
X100428408Y-39062448D01*
X100485627Y-38928098D01*
X100579500Y-38902816D01*
X100732969Y-38971817D01*
G37*
%TD.AperFunction*%
%TA.AperFunction,EtchedComponent*%
%TO.C,G\u002A\u002A\u002A*%
G36*
X95708091Y-93839705D02*
G01*
X95746312Y-93901481D01*
X95862970Y-94140937D01*
X95985291Y-94448253D01*
X96079432Y-94736608D01*
X96094200Y-94793880D01*
X96152684Y-94933705D01*
X96204317Y-94973467D01*
X96315581Y-95033068D01*
X96452554Y-95171638D01*
X96563017Y-95328826D01*
X96597204Y-95427509D01*
X96527870Y-95506622D01*
X96386679Y-95532183D01*
X96160289Y-95606885D01*
X95937529Y-95811541D01*
X95759338Y-95978401D01*
X95585780Y-96076131D01*
X95453707Y-96091277D01*
X95399977Y-96010392D01*
X95399954Y-96007746D01*
X95350038Y-95893904D01*
X95240321Y-95753246D01*
X95123979Y-95595181D01*
X95080687Y-95477225D01*
X95134084Y-95385226D01*
X95263244Y-95387939D01*
X95421627Y-95477496D01*
X95492513Y-95546875D01*
X95643704Y-95721200D01*
X95765804Y-95546875D01*
X95933172Y-95410411D01*
X96082196Y-95372550D01*
X96276486Y-95372550D01*
X96037761Y-95144413D01*
X95886763Y-94972309D01*
X95804252Y-94824208D01*
X95799038Y-94793778D01*
X95734460Y-94660355D01*
X95679312Y-94625337D01*
X95576728Y-94627377D01*
X95559588Y-94664591D01*
X95505739Y-94768570D01*
X95371440Y-94923562D01*
X95320138Y-94973467D01*
X95169207Y-95134201D01*
X95086216Y-95260960D01*
X95080687Y-95284849D01*
X95022150Y-95364169D01*
X94880049Y-95366816D01*
X94704655Y-95303127D01*
X94546241Y-95183440D01*
X94536893Y-95173009D01*
X94363394Y-94973467D01*
X94687834Y-94973467D01*
X94968350Y-94932250D01*
X95164514Y-94822237D01*
X95240281Y-94663886D01*
X95240321Y-94659902D01*
X95297704Y-94577843D01*
X95320138Y-94574384D01*
X95372469Y-94504117D01*
X95399102Y-94330909D01*
X95399954Y-94289323D01*
X95434744Y-94059946D01*
X95519403Y-93885513D01*
X95528395Y-93875824D01*
X95634753Y-93792441D01*
X95708091Y-93839705D01*
G37*
%TD.AperFunction*%
%TA.AperFunction,EtchedComponent*%
G36*
X100732969Y-90971817D02*
G01*
X100828142Y-91137149D01*
X100836580Y-91281945D01*
X100889232Y-91361751D01*
X100983625Y-91381715D01*
X101118864Y-91435846D01*
X101146756Y-91544977D01*
X101219820Y-91761628D01*
X101413125Y-91960117D01*
X101687847Y-92108865D01*
X101911561Y-92167043D01*
X102160123Y-92224505D01*
X102257728Y-92295303D01*
X102201787Y-92369609D01*
X101989704Y-92437589D01*
X101983298Y-92438931D01*
X101677632Y-92547810D01*
X101509502Y-92724734D01*
X101466024Y-92938141D01*
X101423422Y-93131185D01*
X101322044Y-93298549D01*
X101201528Y-93376645D01*
X101192366Y-93377133D01*
X101155536Y-93309887D01*
X101146756Y-93213872D01*
X101074020Y-92988173D01*
X100884004Y-92799981D01*
X100618984Y-92682129D01*
X100432034Y-92658782D01*
X100230772Y-92641266D01*
X100117940Y-92597453D01*
X100109140Y-92578966D01*
X100050411Y-92517153D01*
X100019345Y-92519104D01*
X99970032Y-92499149D01*
X100478122Y-92499149D01*
X100812440Y-92499149D01*
X101017857Y-92516105D01*
X101135747Y-92558679D01*
X101146756Y-92578966D01*
X101207496Y-92656463D01*
X101226572Y-92658782D01*
X101286574Y-92590477D01*
X101306391Y-92459241D01*
X101279067Y-92309241D01*
X101226572Y-92259699D01*
X101167187Y-92191224D01*
X101146756Y-92054457D01*
X101111464Y-91879333D01*
X101028269Y-91732503D01*
X100931201Y-91661413D01*
X100876900Y-91678177D01*
X100840548Y-91786897D01*
X100827491Y-91950627D01*
X100765976Y-92180193D01*
X100652805Y-92336406D01*
X100478122Y-92499149D01*
X99970032Y-92499149D01*
X99914417Y-92476645D01*
X99892969Y-92439286D01*
X99928320Y-92361081D01*
X100062580Y-92339515D01*
X100215779Y-92316073D01*
X100268772Y-92269009D01*
X100335199Y-92194488D01*
X100428408Y-92156756D01*
X100521418Y-92108717D01*
X100569783Y-91999896D01*
X100586920Y-91789245D01*
X100588040Y-91668546D01*
X100575126Y-91425821D01*
X100541764Y-91263670D01*
X100508224Y-91222083D01*
X100443374Y-91155232D01*
X100428408Y-91062448D01*
X100485627Y-90928098D01*
X100579500Y-90902816D01*
X100732969Y-90971817D01*
G37*
%TD.AperFunction*%
%TD*%
D11*
%TO.P,U9,*%
%TO.N,*%
X118325000Y-52030000D03*
X118325000Y-53030000D03*
X119325000Y-52030000D03*
X119325000Y-53030000D03*
%TD*%
D12*
%TO.P,SW6,*%
%TO.N,*%
X115400000Y-36000000D03*
X108600000Y-36000000D03*
%TD*%
D13*
%TO.P,J11,1,Pin_1*%
%TO.N,M1+*%
X104622500Y-37882500D03*
%TO.P,J11,2,Pin_2*%
%TO.N,M1-*%
X99622500Y-37882500D03*
%TD*%
D14*
%TO.P,P2,*%
%TO.N,*%
X86462500Y-58200000D03*
X86462500Y-64000000D03*
D15*
%TO.P,P2,S1,SHIELD*%
%TO.N,GND*%
X86962500Y-56770000D03*
D16*
X82782500Y-56770000D03*
D15*
X86962500Y-65430000D03*
D16*
X82782500Y-65430000D03*
%TD*%
D17*
%TO.P,J7,1*%
%TO.N,+BATT*%
X93660000Y-51150000D03*
%TO.P,J7,2*%
%TO.N,GND*%
X87660000Y-51150000D03*
D18*
%TO.P,J7,MP,MountPin*%
X91160000Y-55810000D03*
%TD*%
D13*
%TO.P,J8,1,Pin_1*%
%TO.N,+BATT*%
X83860000Y-38150000D03*
%TO.P,J8,2,Pin_2*%
%TO.N,GND*%
X83860000Y-43150000D03*
%TD*%
D19*
%TO.P,H5,1*%
%TO.N,N/C*%
X90600000Y-38400000D03*
X91302944Y-36702944D03*
X91302944Y-40097056D03*
X93000000Y-36000000D03*
D20*
X93000000Y-38400000D03*
D19*
X93000000Y-40800000D03*
X94697056Y-36702944D03*
X94697056Y-40097056D03*
X95400000Y-38400000D03*
%TD*%
D11*
%TO.P,U10,*%
%TO.N,*%
X125580000Y-52030000D03*
X125580000Y-53030000D03*
X126580000Y-52030000D03*
X126580000Y-53030000D03*
%TD*%
D13*
%TO.P,J12,1,Pin_1*%
%TO.N,M2+*%
X150917500Y-80422500D03*
%TO.P,J12,2,Pin_2*%
%TO.N,M2-*%
X150917500Y-75422500D03*
%TD*%
D19*
%TO.P,H6,1*%
%TO.N,N/C*%
X140600000Y-79600000D03*
X141302944Y-77902944D03*
X141302944Y-81297056D03*
X143000000Y-77200000D03*
D20*
X143000000Y-79600000D03*
D19*
X143000000Y-82000000D03*
X144697056Y-77902944D03*
X144697056Y-81297056D03*
X145400000Y-79600000D03*
%TD*%
%TO.P,H4,1*%
%TO.N,N/C*%
X82000000Y-79600000D03*
X82702944Y-77902944D03*
X82702944Y-81297056D03*
X84400000Y-77200000D03*
D20*
X84400000Y-79600000D03*
D19*
X84400000Y-82000000D03*
X86097056Y-77902944D03*
X86097056Y-81297056D03*
X86800000Y-79600000D03*
%TD*%
%TO.P,H3,1*%
%TO.N,N/C*%
X140600000Y-131600000D03*
X141302944Y-129902944D03*
X141302944Y-133297056D03*
X143000000Y-129200000D03*
D20*
X143000000Y-131600000D03*
D19*
X143000000Y-134000000D03*
X144697056Y-129902944D03*
X144697056Y-133297056D03*
X145400000Y-131600000D03*
%TD*%
%TO.P,H1,1*%
%TO.N,N/C*%
X82000000Y-131600000D03*
X82702944Y-129902944D03*
X82702944Y-133297056D03*
X84400000Y-129200000D03*
D20*
X84400000Y-131600000D03*
D19*
X84400000Y-134000000D03*
X86097056Y-129902944D03*
X86097056Y-133297056D03*
X86800000Y-131600000D03*
%TD*%
%TO.P,H2,1*%
%TO.N,N/C*%
X90600000Y-90400000D03*
X91302944Y-88702944D03*
X91302944Y-92097056D03*
X93000000Y-88000000D03*
D20*
X93000000Y-90400000D03*
D19*
X93000000Y-92800000D03*
X94697056Y-88702944D03*
X94697056Y-92097056D03*
X95400000Y-90400000D03*
%TD*%
D13*
%TO.P,J6,1,Pin_1*%
%TO.N,M2+*%
X150917500Y-132422500D03*
%TO.P,J6,2,Pin_2*%
%TO.N,M2-*%
X150917500Y-127422500D03*
%TD*%
D11*
%TO.P,U5,*%
%TO.N,*%
X125580000Y-104030000D03*
X125580000Y-105030000D03*
X126580000Y-104030000D03*
X126580000Y-105030000D03*
%TD*%
D13*
%TO.P,J2,1,Pin_1*%
%TO.N,+BATT*%
X83860000Y-90150000D03*
%TO.P,J2,2,Pin_2*%
%TO.N,GND*%
X83860000Y-95150000D03*
%TD*%
D17*
%TO.P,J1,1*%
%TO.N,+BATT*%
X93660000Y-103150000D03*
%TO.P,J1,2*%
%TO.N,GND*%
X87660000Y-103150000D03*
D18*
%TO.P,J1,MP,MountPin*%
X91160000Y-107810000D03*
%TD*%
D14*
%TO.P,P1,*%
%TO.N,*%
X86462500Y-110200000D03*
X86462500Y-116000000D03*
D15*
%TO.P,P1,S1,SHIELD*%
%TO.N,GND*%
X86962500Y-108770000D03*
D16*
X82782500Y-108770000D03*
D15*
X86962500Y-117430000D03*
D16*
X82782500Y-117430000D03*
%TD*%
D12*
%TO.P,SW3,*%
%TO.N,*%
X115400000Y-88000000D03*
X108600000Y-88000000D03*
%TD*%
D11*
%TO.P,U4,*%
%TO.N,*%
X118325000Y-104030000D03*
X118325000Y-105030000D03*
X119325000Y-104030000D03*
X119325000Y-105030000D03*
%TD*%
D13*
%TO.P,J5,1,Pin_1*%
%TO.N,M1+*%
X104622500Y-89882500D03*
%TO.P,J5,2,Pin_2*%
%TO.N,M1-*%
X99622500Y-89882500D03*
%TD*%
D21*
%TO.N,M2_IN2*%
X149250000Y-48905000D03*
%TO.N,M2_IN1*%
X124200000Y-57000000D03*
%TO.N,M2-*%
X144344414Y-57344414D03*
%TO.N,M1_IN1*%
X116600000Y-56600000D03*
%TO.N,D-*%
X89200000Y-61525000D03*
%TO.N,M2+*%
X138200000Y-72000000D03*
%TO.N,GPIO 8*%
X140653235Y-51453235D03*
%TO.N,M2+*%
X138200000Y-60274999D03*
X128400000Y-57800000D03*
%TO.N,M1_IN1*%
X146885784Y-49220686D03*
%TO.N,M1_IN2*%
X147451471Y-48655000D03*
%TO.N,D+*%
X89200000Y-60675000D03*
%TO.N,M2_IN1*%
X148684313Y-49470687D03*
%TO.N,GPIO 8*%
X150505208Y-47730222D03*
%TO.N,D+*%
X151149479Y-48204479D03*
%TO.N,M2-*%
X140600000Y-55005173D03*
%TO.N,REG_BATT+*%
X114800000Y-46400000D03*
%TO.N,M1_IN2*%
X117200000Y-54260002D03*
%TO.N,M2-*%
X128408163Y-48286733D03*
%TO.N,REG_BATT+*%
X121800000Y-46200000D03*
%TO.N,M2_IN2*%
X124590416Y-54259999D03*
%TO.N,D-*%
X151750521Y-48805521D03*
%TO.N,M1+*%
X121400000Y-51200000D03*
%TO.N,M1-*%
X121200000Y-48200000D03*
%TO.N,SERVO_PWM*%
X151667500Y-69200000D03*
X152200000Y-47200000D03*
%TO.N,BLDC_PWM*%
X140200000Y-45600000D03*
%TO.N,CHIP_PU*%
X137800000Y-48600000D03*
%TO.N,GND*%
X143849528Y-43799000D03*
X153000000Y-51400000D03*
%TO.N,BUZZER_DATA*%
X140200000Y-50794010D03*
%TO.N,GND*%
X111800000Y-66800000D03*
X142400000Y-45200000D03*
%TO.N,BUZZER_DATA*%
X142588925Y-52059604D03*
%TO.N,BLDC_PWM*%
X141024265Y-53624265D03*
%TO.N,GND*%
X136600000Y-64600000D03*
%TO.N,CHIP_PU*%
X102600000Y-81800000D03*
%TO.N,ESP_3V3*%
X116600000Y-72000000D03*
%TO.N,VCC_5V*%
X88825390Y-58988122D03*
%TO.N,GND*%
X101600000Y-59600000D03*
%TO.N,VCC_5V*%
X91000000Y-64600000D03*
%TO.N,GPIO 9*%
X150600000Y-51800000D03*
X89400000Y-75800000D03*
%TO.N,VCC_5V*%
X89306485Y-62476694D03*
X94400000Y-63000000D03*
%TO.N,ESP_3V3*%
X102380000Y-78200000D03*
%TO.N,GND*%
X95000000Y-80400000D03*
X136200000Y-44305000D03*
X134600000Y-45400000D03*
X136200000Y-96305000D03*
X95000000Y-132400000D03*
X134600000Y-97400000D03*
X153000000Y-103400000D03*
X101600000Y-111600000D03*
X142400000Y-97200000D03*
X143849528Y-95799000D03*
X111800000Y-118800000D03*
X136600000Y-116600000D03*
%TO.N,VCC_5V*%
X94400000Y-115000000D03*
X88825390Y-110988122D03*
X89306485Y-114476694D03*
X91000000Y-116600000D03*
%TO.N,BUZZER_DATA*%
X140200000Y-102794010D03*
X142588925Y-104059604D03*
%TO.N,ESP_3V3*%
X102380000Y-130200000D03*
X116600000Y-124000000D03*
%TO.N,GPIO 9*%
X89400000Y-127800000D03*
X150600000Y-103800000D03*
%TO.N,CHIP_PU*%
X137800000Y-100600000D03*
X102600000Y-133800000D03*
%TO.N,BLDC_PWM*%
X141024265Y-105624265D03*
X140200000Y-97600000D03*
%TO.N,SERVO_PWM*%
X151667500Y-121200000D03*
X152200000Y-99200000D03*
%TO.N,M1-*%
X121200000Y-100200000D03*
%TO.N,M1+*%
X121400000Y-103200000D03*
%TO.N,M2-*%
X144344414Y-109344414D03*
X140600000Y-107005173D03*
X128408163Y-100286733D03*
%TO.N,M2+*%
X128400000Y-109800000D03*
X138200000Y-124000000D03*
X138200000Y-112274999D03*
%TO.N,D-*%
X151750521Y-100805521D03*
X89200000Y-113525000D03*
%TO.N,D+*%
X151149479Y-100204479D03*
X89200000Y-112675000D03*
%TO.N,GPIO 8*%
X140653235Y-103453235D03*
X150505208Y-99730222D03*
%TO.N,M1_IN1*%
X146885784Y-101220686D03*
X116600000Y-108600000D03*
%TO.N,M1_IN2*%
X117200000Y-106260002D03*
X147451471Y-100655000D03*
%TO.N,M2_IN1*%
X148684313Y-101470687D03*
X124200000Y-109000000D03*
%TO.N,M2_IN2*%
X124590416Y-106259999D03*
X149250000Y-100905000D03*
%TO.N,REG_BATT+*%
X114800000Y-98400000D03*
X121800000Y-98200000D03*
%TD*%
D22*
%TO.N,REG_BATT+*%
X121600000Y-46400000D02*
X114800000Y-46400000D01*
X121800000Y-46200000D02*
X121600000Y-46400000D01*
D23*
%TO.N,M2_IN2*%
X148435370Y-48869687D02*
X148933256Y-48869687D01*
X148968569Y-48905000D02*
X149250000Y-48905000D01*
X148083313Y-49504587D02*
X148083313Y-49221744D01*
X127199000Y-56599000D02*
X140988900Y-56599000D01*
X124740001Y-54259999D02*
X124800000Y-54200000D01*
X148083313Y-49221744D02*
X148435370Y-48869687D01*
X140988900Y-56599000D02*
X148083313Y-49504587D01*
X148933256Y-48869687D02*
X148968569Y-48905000D01*
X124590416Y-54259999D02*
X124740001Y-54259999D01*
%TO.N,M2_IN1*%
X148684313Y-49470687D02*
X141155000Y-57000000D01*
%TO.N,M2_IN2*%
X124800000Y-54200000D02*
X127199000Y-56599000D01*
%TO.N,M1_IN2*%
X120799000Y-51448943D02*
X120799000Y-51424000D01*
%TO.N,M1_IN1*%
X119541001Y-53658999D02*
X116600000Y-56600000D01*
%TO.N,D+*%
X151149479Y-48487322D02*
X151149479Y-48204479D01*
%TO.N,GPIO 8*%
X150505208Y-47730222D02*
X150174986Y-47400000D01*
%TO.N,M2_IN1*%
X141155000Y-57000000D02*
X124200000Y-57000000D01*
%TO.N,D+*%
X89200000Y-60675000D02*
X89399999Y-60874999D01*
X138761802Y-60874999D02*
X151149479Y-48487322D01*
%TO.N,M1_IN2*%
X129664214Y-55797000D02*
X127186000Y-53318786D01*
X147170041Y-48655000D02*
X147134727Y-48619686D01*
X147134727Y-48619686D02*
X146636841Y-48619686D01*
X122025943Y-51424000D02*
X121648943Y-51801000D01*
%TO.N,M1_IN1*%
X140822800Y-56198000D02*
X127378360Y-56198000D01*
%TO.N,M1_IN2*%
X117200000Y-52297986D02*
X117200000Y-54260002D01*
X120799000Y-51424000D02*
X118073986Y-51424000D01*
X127186000Y-51778986D02*
X126831014Y-51424000D01*
X146284784Y-48971743D02*
X146284784Y-50168916D01*
X140656700Y-55797000D02*
X129664214Y-55797000D01*
X121151057Y-51801000D02*
X120799000Y-51448943D01*
X146636841Y-48619686D02*
X146284784Y-48971743D01*
X127186000Y-53318786D02*
X127186000Y-51778986D01*
X147451471Y-48655000D02*
X147170041Y-48655000D01*
%TO.N,M1_IN1*%
X146885784Y-49220686D02*
X146885784Y-50135016D01*
X124839359Y-53658999D02*
X119541001Y-53658999D01*
X146885784Y-50135016D02*
X140822800Y-56198000D01*
%TO.N,M1_IN2*%
X126831014Y-51424000D02*
X122025943Y-51424000D01*
%TO.N,GPIO 8*%
X150174986Y-47400000D02*
X144706470Y-47400000D01*
%TO.N,D+*%
X89399999Y-60874999D02*
X138761802Y-60874999D01*
%TO.N,M1_IN2*%
X146284784Y-50168916D02*
X140656700Y-55797000D01*
X121648943Y-51801000D02*
X121151057Y-51801000D01*
X118073986Y-51424000D02*
X117200000Y-52297986D01*
%TO.N,M1_IN1*%
X127378360Y-56198000D02*
X124839359Y-53658999D01*
%TO.N,GPIO 8*%
X144706470Y-47400000D02*
X140653235Y-51453235D01*
D24*
%TO.N,VCC_5V*%
X91200000Y-63000000D02*
X89829791Y-63000000D01*
X91200000Y-64400000D02*
X91000000Y-64600000D01*
X91200000Y-63000000D02*
X91200000Y-64400000D01*
D23*
X89301751Y-62476694D02*
X88599000Y-61773943D01*
D24*
X89829791Y-63000000D02*
X89306485Y-62476694D01*
X94400000Y-63000000D02*
X91200000Y-63000000D01*
D23*
X88599000Y-61773943D02*
X88599000Y-59214512D01*
%TO.N,GND*%
X151049943Y-45200000D02*
X142400000Y-45200000D01*
X153000000Y-51400000D02*
X153000000Y-47150057D01*
X153000000Y-47150057D02*
X151049943Y-45200000D01*
D22*
%TO.N,CHIP_PU*%
X140309636Y-44499000D02*
X137800000Y-47008636D01*
X109600000Y-74800000D02*
X140079347Y-74800000D01*
X140079347Y-74800000D02*
X140130347Y-74851000D01*
X153701000Y-80598000D02*
X153701000Y-46301000D01*
X152375500Y-81923500D02*
X153701000Y-80598000D01*
X150295765Y-81923500D02*
X152375500Y-81923500D01*
X149416500Y-81044235D02*
X150295765Y-81923500D01*
D23*
%TO.N,GPIO 9*%
X139114298Y-61726001D02*
X149040299Y-51800000D01*
X149040299Y-51800000D02*
X150600000Y-51800000D01*
D22*
%TO.N,CHIP_PU*%
X140130347Y-74851000D02*
X144425346Y-74851000D01*
X102600000Y-81800000D02*
X109600000Y-74800000D01*
%TO.N,M1-*%
X110729526Y-48200000D02*
X100412026Y-37882500D01*
%TO.N,CHIP_PU*%
X144425346Y-74851000D02*
X149416500Y-79842154D01*
%TO.N,M1-*%
X121200000Y-48200000D02*
X110729526Y-48200000D01*
%TO.N,CHIP_PU*%
X153701000Y-46301000D02*
X151899000Y-44499000D01*
D23*
%TO.N,SERVO_PWM*%
X152351521Y-47351521D02*
X152351521Y-68515979D01*
D22*
%TO.N,CHIP_PU*%
X137800000Y-47008636D02*
X137800000Y-48600000D01*
X149416500Y-79842154D02*
X149416500Y-81044235D01*
X151899000Y-44499000D02*
X140309636Y-44499000D01*
%TO.N,M1+*%
X121400000Y-51200000D02*
X121901000Y-50699000D01*
X121901000Y-50699000D02*
X121901000Y-47909636D01*
D23*
%TO.N,BLDC_PWM*%
X139600000Y-52200000D02*
X139600000Y-46200000D01*
%TO.N,SERVO_PWM*%
X152200000Y-47200000D02*
X152351521Y-47351521D01*
%TO.N,BLDC_PWM*%
X141024265Y-53624265D02*
X139600000Y-52200000D01*
D22*
%TO.N,M1-*%
X100412026Y-37882500D02*
X99622500Y-37882500D01*
D23*
%TO.N,SERVO_PWM*%
X152351521Y-68515979D02*
X151667500Y-69200000D01*
%TO.N,BLDC_PWM*%
X139600000Y-46200000D02*
X140200000Y-45600000D01*
%TO.N,GPIO 9*%
X103473999Y-61726001D02*
X139114298Y-61726001D01*
D24*
%TO.N,ESP_3V3*%
X102400000Y-78200000D02*
X108600000Y-72000000D01*
X102380000Y-78200000D02*
X102400000Y-78200000D01*
D23*
%TO.N,GPIO 9*%
X89400000Y-75800000D02*
X103473999Y-61726001D01*
D24*
%TO.N,ESP_3V3*%
X108600000Y-72000000D02*
X116600000Y-72000000D01*
D23*
%TO.N,VCC_5V*%
X88599000Y-59214512D02*
X88825390Y-58988122D01*
%TO.N,BUZZER_DATA*%
X142351134Y-52059604D02*
X142345765Y-52054235D01*
X140404292Y-52054235D02*
X140052235Y-51702178D01*
X142588925Y-52059604D02*
X142351134Y-52059604D01*
X140052235Y-50941775D02*
X140200000Y-50794010D01*
%TO.N,VCC_5V*%
X89306485Y-62476694D02*
X89301751Y-62476694D01*
%TO.N,BUZZER_DATA*%
X140052235Y-51702178D02*
X140052235Y-50941775D01*
X142345765Y-52054235D02*
X140404292Y-52054235D01*
D22*
%TO.N,M1+*%
X121391364Y-47400000D02*
X110779468Y-47400000D01*
D24*
%TO.N,M2-*%
X133881560Y-48286733D02*
X128408163Y-48286733D01*
X140600000Y-55005173D02*
X133881560Y-48286733D01*
D23*
%TO.N,D-*%
X151467678Y-48805521D02*
X151750521Y-48805521D01*
X89200000Y-61525000D02*
X89399999Y-61325001D01*
D24*
%TO.N,M2+*%
X128400000Y-57800000D02*
X130874999Y-60274999D01*
X130874999Y-60274999D02*
X138200000Y-60274999D01*
X140400000Y-74200000D02*
X144695000Y-74200000D01*
D22*
%TO.N,M1+*%
X121901000Y-47909636D02*
X121391364Y-47400000D01*
D24*
%TO.N,M2-*%
X150917500Y-63917500D02*
X144344414Y-57344414D01*
%TO.N,M2+*%
X138200000Y-72000000D02*
X140400000Y-74200000D01*
X144695000Y-74200000D02*
X150917500Y-80422500D01*
%TO.N,M2-*%
X150917500Y-75422500D02*
X150917500Y-63917500D01*
D22*
%TO.N,M1+*%
X104622500Y-41243032D02*
X104622500Y-37882500D01*
X110779468Y-47400000D02*
X104622500Y-41243032D01*
D23*
%TO.N,D-*%
X89399999Y-61325001D02*
X138948198Y-61325001D01*
X138948198Y-61325001D02*
X151467678Y-48805521D01*
%TO.N,GND*%
X151049943Y-97200000D02*
X142400000Y-97200000D01*
X153000000Y-99150057D02*
X151049943Y-97200000D01*
X153000000Y-103400000D02*
X153000000Y-99150057D01*
%TO.N,VCC_5V*%
X88599000Y-113773943D02*
X88599000Y-111214512D01*
D24*
X89829791Y-115000000D02*
X89306485Y-114476694D01*
X94400000Y-115000000D02*
X91200000Y-115000000D01*
X91200000Y-115000000D02*
X91200000Y-116400000D01*
D23*
X89301751Y-114476694D02*
X88599000Y-113773943D01*
D24*
X91200000Y-115000000D02*
X89829791Y-115000000D01*
X91200000Y-116400000D02*
X91000000Y-116600000D01*
D23*
X89306485Y-114476694D02*
X89301751Y-114476694D01*
X88599000Y-111214512D02*
X88825390Y-110988122D01*
%TO.N,BUZZER_DATA*%
X142351134Y-104059604D02*
X142345765Y-104054235D01*
X142588925Y-104059604D02*
X142351134Y-104059604D01*
X140052235Y-102941775D02*
X140200000Y-102794010D01*
X142345765Y-104054235D02*
X140404292Y-104054235D01*
X140052235Y-103702178D02*
X140052235Y-102941775D01*
X140404292Y-104054235D02*
X140052235Y-103702178D01*
D24*
%TO.N,ESP_3V3*%
X102380000Y-130200000D02*
X102400000Y-130200000D01*
X102400000Y-130200000D02*
X108600000Y-124000000D01*
X108600000Y-124000000D02*
X116600000Y-124000000D01*
D23*
%TO.N,GPIO 9*%
X103473999Y-113726001D02*
X139114298Y-113726001D01*
X89400000Y-127800000D02*
X103473999Y-113726001D01*
X139114298Y-113726001D02*
X149040299Y-103800000D01*
X149040299Y-103800000D02*
X150600000Y-103800000D01*
D22*
%TO.N,CHIP_PU*%
X149416500Y-133044235D02*
X150295765Y-133923500D01*
X140130347Y-126851000D02*
X144425346Y-126851000D01*
X150295765Y-133923500D02*
X152375500Y-133923500D01*
X152375500Y-133923500D02*
X153701000Y-132598000D01*
X102600000Y-133800000D02*
X109600000Y-126800000D01*
X140079347Y-126800000D02*
X140130347Y-126851000D01*
X153701000Y-132598000D02*
X153701000Y-98301000D01*
X140309636Y-96499000D02*
X137800000Y-99008636D01*
X109600000Y-126800000D02*
X140079347Y-126800000D01*
X153701000Y-98301000D02*
X151899000Y-96499000D01*
X149416500Y-131842154D02*
X149416500Y-133044235D01*
X137800000Y-99008636D02*
X137800000Y-100600000D01*
X151899000Y-96499000D02*
X140309636Y-96499000D01*
X144425346Y-126851000D02*
X149416500Y-131842154D01*
D23*
%TO.N,BLDC_PWM*%
X139600000Y-98200000D02*
X140200000Y-97600000D01*
X139600000Y-104200000D02*
X139600000Y-98200000D01*
X141024265Y-105624265D02*
X139600000Y-104200000D01*
%TO.N,SERVO_PWM*%
X152351521Y-99351521D02*
X152351521Y-120515979D01*
X152200000Y-99200000D02*
X152351521Y-99351521D01*
X152351521Y-120515979D02*
X151667500Y-121200000D01*
D22*
%TO.N,M1-*%
X121200000Y-100200000D02*
X110729526Y-100200000D01*
X110729526Y-100200000D02*
X100412026Y-89882500D01*
X100412026Y-89882500D02*
X99622500Y-89882500D01*
%TO.N,M1+*%
X121901000Y-102699000D02*
X121901000Y-99909636D01*
X121400000Y-103200000D02*
X121901000Y-102699000D01*
X121391364Y-99400000D02*
X110779468Y-99400000D01*
X110779468Y-99400000D02*
X104622500Y-93243032D01*
X121901000Y-99909636D02*
X121391364Y-99400000D01*
X104622500Y-93243032D02*
X104622500Y-89882500D01*
D24*
%TO.N,M2-*%
X133881560Y-100286733D02*
X128408163Y-100286733D01*
X150917500Y-115917500D02*
X144344414Y-109344414D01*
X140600000Y-107005173D02*
X133881560Y-100286733D01*
X150917500Y-127422500D02*
X150917500Y-115917500D01*
%TO.N,M2+*%
X144695000Y-126200000D02*
X150917500Y-132422500D01*
X140400000Y-126200000D02*
X144695000Y-126200000D01*
X138200000Y-124000000D02*
X140400000Y-126200000D01*
X130874999Y-112274999D02*
X138200000Y-112274999D01*
X128400000Y-109800000D02*
X130874999Y-112274999D01*
D23*
%TO.N,D-*%
X138948198Y-113325001D02*
X151467678Y-100805521D01*
X89399999Y-113325001D02*
X138948198Y-113325001D01*
X89200000Y-113525000D02*
X89399999Y-113325001D01*
X151467678Y-100805521D02*
X151750521Y-100805521D01*
%TO.N,D+*%
X89399999Y-112874999D02*
X138761802Y-112874999D01*
X138761802Y-112874999D02*
X151149479Y-100487322D01*
X151149479Y-100487322D02*
X151149479Y-100204479D01*
X89200000Y-112675000D02*
X89399999Y-112874999D01*
%TO.N,GPIO 8*%
X144706470Y-99400000D02*
X140653235Y-103453235D01*
X150174986Y-99400000D02*
X144706470Y-99400000D01*
X150505208Y-99730222D02*
X150174986Y-99400000D01*
%TO.N,M1_IN1*%
X140822800Y-108198000D02*
X127378360Y-108198000D01*
X127378360Y-108198000D02*
X124839359Y-105658999D01*
X124839359Y-105658999D02*
X119541001Y-105658999D01*
X146885784Y-102135016D02*
X140822800Y-108198000D01*
X119541001Y-105658999D02*
X116600000Y-108600000D01*
X146885784Y-101220686D02*
X146885784Y-102135016D01*
%TO.N,M1_IN2*%
X122025943Y-103424000D02*
X121648943Y-103801000D01*
X147134727Y-100619686D02*
X146636841Y-100619686D01*
X147451471Y-100655000D02*
X147170041Y-100655000D01*
X146284784Y-100971743D02*
X146284784Y-102168916D01*
X120799000Y-103448943D02*
X120799000Y-103424000D01*
X127186000Y-103778986D02*
X126831014Y-103424000D01*
X118073986Y-103424000D02*
X117200000Y-104297986D01*
X121648943Y-103801000D02*
X121151057Y-103801000D01*
X146284784Y-102168916D02*
X140656700Y-107797000D01*
X120799000Y-103424000D02*
X118073986Y-103424000D01*
X126831014Y-103424000D02*
X122025943Y-103424000D01*
X127186000Y-105318786D02*
X127186000Y-103778986D01*
X147170041Y-100655000D02*
X147134727Y-100619686D01*
X146636841Y-100619686D02*
X146284784Y-100971743D01*
X121151057Y-103801000D02*
X120799000Y-103448943D01*
X117200000Y-104297986D02*
X117200000Y-106260002D01*
X129664214Y-107797000D02*
X127186000Y-105318786D01*
X140656700Y-107797000D02*
X129664214Y-107797000D01*
%TO.N,M2_IN1*%
X141155000Y-109000000D02*
X124200000Y-109000000D01*
X148684313Y-101470687D02*
X141155000Y-109000000D01*
%TO.N,M2_IN2*%
X140988900Y-108599000D02*
X148083313Y-101504587D01*
X124800000Y-106200000D02*
X127199000Y-108599000D01*
X148083313Y-101504587D02*
X148083313Y-101221744D01*
X148083313Y-101221744D02*
X148435370Y-100869687D01*
X148435370Y-100869687D02*
X148933256Y-100869687D01*
X124590416Y-106259999D02*
X124740001Y-106259999D01*
X148968569Y-100905000D02*
X149250000Y-100905000D01*
X148933256Y-100869687D02*
X148968569Y-100905000D01*
X124740001Y-106259999D02*
X124800000Y-106200000D01*
X127199000Y-108599000D02*
X140988900Y-108599000D01*
D22*
%TO.N,REG_BATT+*%
X121800000Y-98200000D02*
X121600000Y-98400000D01*
X121600000Y-98400000D02*
X114800000Y-98400000D01*
%TD*%
%TA.AperFunction,Conductor*%
%TO.N,GND*%
G36*
X92444020Y-86520185D02*
G01*
X92489775Y-86572989D01*
X92499719Y-86642147D01*
X92470694Y-86705703D01*
X92411916Y-86743477D01*
X92401172Y-86746117D01*
X92099787Y-86806064D01*
X92099776Y-86806067D01*
X91751834Y-86911614D01*
X91415921Y-87050754D01*
X91415916Y-87050756D01*
X91095279Y-87222140D01*
X91095261Y-87222151D01*
X90792964Y-87424140D01*
X90792950Y-87424150D01*
X90511893Y-87654807D01*
X90254807Y-87911893D01*
X90024150Y-88192950D01*
X90024140Y-88192964D01*
X89822151Y-88495261D01*
X89822140Y-88495279D01*
X89650756Y-88815916D01*
X89650754Y-88815921D01*
X89511614Y-89151834D01*
X89406067Y-89499776D01*
X89406064Y-89499787D01*
X89335137Y-89856369D01*
X89299500Y-90218209D01*
X89299500Y-90581790D01*
X89335137Y-90943630D01*
X89406064Y-91300212D01*
X89406067Y-91300223D01*
X89406069Y-91300232D01*
X89406070Y-91300233D01*
X89415345Y-91330808D01*
X89511614Y-91648165D01*
X89650754Y-91984078D01*
X89650756Y-91984083D01*
X89822140Y-92304720D01*
X89822151Y-92304738D01*
X90024140Y-92607035D01*
X90024150Y-92607049D01*
X90254807Y-92888106D01*
X90511893Y-93145192D01*
X90511898Y-93145196D01*
X90511899Y-93145197D01*
X90792956Y-93375854D01*
X91095268Y-93577853D01*
X91095277Y-93577858D01*
X91095279Y-93577859D01*
X91415916Y-93749243D01*
X91415918Y-93749243D01*
X91415924Y-93749247D01*
X91751836Y-93888386D01*
X92099767Y-93993930D01*
X92099773Y-93993931D01*
X92099776Y-93993932D01*
X92099787Y-93993935D01*
X92456369Y-94064862D01*
X92818206Y-94100500D01*
X92818209Y-94100500D01*
X93181791Y-94100500D01*
X93181794Y-94100500D01*
X93543631Y-94064862D01*
X93613045Y-94051054D01*
X93900212Y-93993935D01*
X93900223Y-93993932D01*
X93900223Y-93993931D01*
X93900233Y-93993930D01*
X94248164Y-93888386D01*
X94584076Y-93749247D01*
X94840913Y-93611965D01*
X94909316Y-93597723D01*
X94974559Y-93622723D01*
X95015930Y-93679028D01*
X95020292Y-93748761D01*
X95010922Y-93775465D01*
X94979949Y-93839280D01*
X94976563Y-93846401D01*
X94934959Y-93984146D01*
X94934958Y-93984150D01*
X94900169Y-94213522D01*
X94898059Y-94238143D01*
X94893118Y-94252282D01*
X94892931Y-94264332D01*
X94878918Y-94292922D01*
X94877772Y-94296205D01*
X94876946Y-94297445D01*
X94826061Y-94370214D01*
X94817833Y-94382352D01*
X94811461Y-94395940D01*
X94806357Y-94403618D01*
X94786366Y-94420402D01*
X94769072Y-94439956D01*
X94758380Y-94443900D01*
X94752848Y-94448546D01*
X94742042Y-94449928D01*
X94721125Y-94457646D01*
X94659860Y-94466649D01*
X94641832Y-94467967D01*
X94363394Y-94467967D01*
X94362535Y-94467968D01*
X94220154Y-94488685D01*
X94220153Y-94488686D01*
X94089375Y-94548679D01*
X93980804Y-94643079D01*
X93980799Y-94643085D01*
X93903219Y-94764254D01*
X93903219Y-94764255D01*
X93862918Y-94902377D01*
X93863161Y-95046259D01*
X93863162Y-95046260D01*
X93903932Y-95184238D01*
X93903933Y-95184241D01*
X93981926Y-95305148D01*
X94154436Y-95503553D01*
X94155473Y-95504745D01*
X94160425Y-95510354D01*
X94160443Y-95510374D01*
X94169791Y-95520805D01*
X94241515Y-95586766D01*
X94399929Y-95706453D01*
X94405246Y-95710416D01*
X94462128Y-95740837D01*
X94532114Y-95778268D01*
X94532117Y-95778269D01*
X94532121Y-95778271D01*
X94639337Y-95817203D01*
X94695632Y-95858587D01*
X94706239Y-95875055D01*
X94716868Y-95894833D01*
X94833196Y-96052879D01*
X94841741Y-96064155D01*
X94902959Y-96142636D01*
X94915930Y-96163119D01*
X94917417Y-96166071D01*
X94937001Y-96210736D01*
X94939387Y-96209689D01*
X94962009Y-96254598D01*
X94962128Y-96255248D01*
X94963265Y-96257165D01*
X94978910Y-96290092D01*
X94978912Y-96290096D01*
X95032642Y-96370981D01*
X95073576Y-96418869D01*
X95111879Y-96463680D01*
X95230637Y-96544896D01*
X95230640Y-96544897D01*
X95230643Y-96544899D01*
X95367478Y-96589368D01*
X95492825Y-96592956D01*
X95511295Y-96593485D01*
X95511295Y-96593484D01*
X95511300Y-96593485D01*
X95643373Y-96578339D01*
X95699666Y-96568635D01*
X95833807Y-96516600D01*
X96007365Y-96418870D01*
X96104856Y-96347383D01*
X96280970Y-96182466D01*
X96281619Y-96181865D01*
X96402426Y-96070876D01*
X96447459Y-96044435D01*
X96503288Y-96026013D01*
X96520038Y-96021756D01*
X96617921Y-96004036D01*
X96667558Y-95992438D01*
X96798770Y-95933405D01*
X96908035Y-95839796D01*
X96977369Y-95760683D01*
X97035054Y-95680130D01*
X97088490Y-95546541D01*
X97102124Y-95403308D01*
X97074853Y-95262036D01*
X97059925Y-95218944D01*
X97040668Y-95163358D01*
X97040665Y-95163350D01*
X96976608Y-95038185D01*
X96976605Y-95038179D01*
X96866142Y-94880991D01*
X96812062Y-94816273D01*
X96675089Y-94677703D01*
X96670144Y-94672769D01*
X96670140Y-94672765D01*
X96597128Y-94619018D01*
X96554809Y-94563423D01*
X96552762Y-94557642D01*
X96520115Y-94457646D01*
X96465830Y-94291369D01*
X96454954Y-94261313D01*
X96332633Y-93953997D01*
X96332630Y-93953990D01*
X96317415Y-93919556D01*
X96259590Y-93800863D01*
X96200751Y-93680088D01*
X96176187Y-93635516D01*
X96137966Y-93573740D01*
X96107284Y-93531957D01*
X96090548Y-93509164D01*
X95981926Y-93414799D01*
X95921487Y-93375849D01*
X95908590Y-93367537D01*
X95908580Y-93367531D01*
X95908578Y-93367529D01*
X95867060Y-93343483D01*
X95731165Y-93296220D01*
X95634933Y-93291491D01*
X95568941Y-93268539D01*
X95525833Y-93213552D01*
X95519296Y-93143989D01*
X95551406Y-93081935D01*
X95553339Y-93079959D01*
X95745192Y-92888106D01*
X95745197Y-92888101D01*
X95975854Y-92607044D01*
X96177853Y-92304732D01*
X96349247Y-91984076D01*
X96488386Y-91648164D01*
X96593930Y-91300233D01*
X96593932Y-91300223D01*
X96593935Y-91300212D01*
X96664862Y-90943630D01*
X96700500Y-90581790D01*
X96700500Y-90218209D01*
X96664862Y-89856369D01*
X96593935Y-89499787D01*
X96593932Y-89499776D01*
X96593931Y-89499773D01*
X96593930Y-89499767D01*
X96488386Y-89151836D01*
X96349247Y-88815924D01*
X96330650Y-88781132D01*
X96177859Y-88495279D01*
X96177858Y-88495277D01*
X96177853Y-88495268D01*
X95975854Y-88192956D01*
X95745197Y-87911899D01*
X95745196Y-87911898D01*
X95745192Y-87911893D01*
X95739678Y-87906379D01*
X107649500Y-87906379D01*
X107649500Y-88093620D01*
X107686025Y-88277243D01*
X107686027Y-88277251D01*
X107757676Y-88450228D01*
X107757681Y-88450237D01*
X107861697Y-88605907D01*
X107861700Y-88605911D01*
X107994088Y-88738299D01*
X107994092Y-88738302D01*
X108149762Y-88842318D01*
X108149768Y-88842321D01*
X108149769Y-88842322D01*
X108322749Y-88913973D01*
X108506379Y-88950499D01*
X108506383Y-88950500D01*
X108506384Y-88950500D01*
X108693617Y-88950500D01*
X108693618Y-88950499D01*
X108877251Y-88913973D01*
X109050231Y-88842322D01*
X109205908Y-88738302D01*
X109338302Y-88605908D01*
X109442322Y-88450231D01*
X109513973Y-88277251D01*
X109550500Y-88093616D01*
X109550500Y-87906384D01*
X109550499Y-87906379D01*
X114449500Y-87906379D01*
X114449500Y-88093620D01*
X114486025Y-88277243D01*
X114486027Y-88277251D01*
X114557676Y-88450228D01*
X114557681Y-88450237D01*
X114661697Y-88605907D01*
X114661700Y-88605911D01*
X114794088Y-88738299D01*
X114794092Y-88738302D01*
X114949762Y-88842318D01*
X114949768Y-88842321D01*
X114949769Y-88842322D01*
X115122749Y-88913973D01*
X115306379Y-88950499D01*
X115306383Y-88950500D01*
X115306384Y-88950500D01*
X115493617Y-88950500D01*
X115493618Y-88950499D01*
X115677251Y-88913973D01*
X115850231Y-88842322D01*
X116005908Y-88738302D01*
X116138302Y-88605908D01*
X116242322Y-88450231D01*
X116313973Y-88277251D01*
X116350500Y-88093616D01*
X116350500Y-87906384D01*
X116313973Y-87722749D01*
X116242322Y-87549769D01*
X116242321Y-87549768D01*
X116242318Y-87549762D01*
X116138302Y-87394092D01*
X116138299Y-87394088D01*
X116005911Y-87261700D01*
X116005907Y-87261697D01*
X115850237Y-87157681D01*
X115850228Y-87157676D01*
X115677251Y-87086027D01*
X115677243Y-87086025D01*
X115493620Y-87049500D01*
X115493616Y-87049500D01*
X115306384Y-87049500D01*
X115306379Y-87049500D01*
X115122756Y-87086025D01*
X115122748Y-87086027D01*
X114949771Y-87157676D01*
X114949762Y-87157681D01*
X114794092Y-87261697D01*
X114794088Y-87261700D01*
X114661700Y-87394088D01*
X114661697Y-87394092D01*
X114557681Y-87549762D01*
X114557676Y-87549771D01*
X114486027Y-87722748D01*
X114486025Y-87722756D01*
X114449500Y-87906379D01*
X109550499Y-87906379D01*
X109513973Y-87722749D01*
X109442322Y-87549769D01*
X109442321Y-87549768D01*
X109442318Y-87549762D01*
X109338302Y-87394092D01*
X109338299Y-87394088D01*
X109205911Y-87261700D01*
X109205907Y-87261697D01*
X109050237Y-87157681D01*
X109050228Y-87157676D01*
X108877251Y-87086027D01*
X108877243Y-87086025D01*
X108693620Y-87049500D01*
X108693616Y-87049500D01*
X108506384Y-87049500D01*
X108506379Y-87049500D01*
X108322756Y-87086025D01*
X108322748Y-87086027D01*
X108149771Y-87157676D01*
X108149762Y-87157681D01*
X107994092Y-87261697D01*
X107994088Y-87261700D01*
X107861700Y-87394088D01*
X107861697Y-87394092D01*
X107757681Y-87549762D01*
X107757676Y-87549771D01*
X107686027Y-87722748D01*
X107686025Y-87722756D01*
X107649500Y-87906379D01*
X95739678Y-87906379D01*
X95488106Y-87654807D01*
X95207049Y-87424150D01*
X95207048Y-87424149D01*
X95207044Y-87424146D01*
X94904732Y-87222147D01*
X94904727Y-87222144D01*
X94904720Y-87222140D01*
X94584083Y-87050756D01*
X94584078Y-87050754D01*
X94248165Y-86911614D01*
X93900223Y-86806067D01*
X93900212Y-86806064D01*
X93598828Y-86746117D01*
X93536917Y-86713733D01*
X93502343Y-86653017D01*
X93506082Y-86583247D01*
X93546948Y-86526575D01*
X93611966Y-86500994D01*
X93623019Y-86500500D01*
X140476000Y-86500500D01*
X140543039Y-86520185D01*
X140588794Y-86572989D01*
X140600000Y-86624500D01*
X140600000Y-91855000D01*
X153800000Y-91855000D01*
X153800000Y-86984152D01*
X153806238Y-86962906D01*
X153807818Y-86940818D01*
X153815890Y-86930034D01*
X153819685Y-86917113D01*
X153836418Y-86902613D01*
X153849690Y-86884885D01*
X153862310Y-86880177D01*
X153872489Y-86871358D01*
X153894406Y-86868206D01*
X153915154Y-86860468D01*
X153928314Y-86863330D01*
X153941647Y-86861414D01*
X153961790Y-86870613D01*
X153983427Y-86875320D01*
X154001152Y-86888588D01*
X154005203Y-86890439D01*
X154011681Y-86896471D01*
X154126972Y-87011762D01*
X154138558Y-87025132D01*
X154237783Y-87157681D01*
X154256146Y-87182210D01*
X154265711Y-87197095D01*
X154359740Y-87369298D01*
X154367090Y-87385390D01*
X154435662Y-87569236D01*
X154440646Y-87586212D01*
X154482351Y-87777931D01*
X154484869Y-87795442D01*
X154499184Y-87995580D01*
X154499500Y-88004427D01*
X154499500Y-97826399D01*
X154479815Y-97893438D01*
X154427011Y-97939193D01*
X154357853Y-97949137D01*
X154294297Y-97920112D01*
X154272398Y-97895290D01*
X154245114Y-97854456D01*
X152345545Y-95954887D01*
X152230807Y-95878222D01*
X152103332Y-95825421D01*
X152103322Y-95825418D01*
X151967996Y-95798500D01*
X151967994Y-95798500D01*
X151967993Y-95798500D01*
X140240643Y-95798500D01*
X140240639Y-95798500D01*
X140132226Y-95820065D01*
X140132225Y-95820065D01*
X140105317Y-95825418D01*
X140105307Y-95825420D01*
X139977826Y-95878224D01*
X139863090Y-95954887D01*
X137255887Y-98562090D01*
X137179222Y-98676828D01*
X137126421Y-98804303D01*
X137126418Y-98804315D01*
X137103511Y-98919478D01*
X137103510Y-98919483D01*
X137099500Y-98939638D01*
X137099500Y-100174684D01*
X137090061Y-100222136D01*
X137030264Y-100366498D01*
X137030261Y-100366510D01*
X136999500Y-100521153D01*
X136999500Y-100678846D01*
X137030261Y-100833489D01*
X137030264Y-100833501D01*
X137090602Y-100979172D01*
X137090609Y-100979185D01*
X137178210Y-101110288D01*
X137178213Y-101110292D01*
X137289707Y-101221786D01*
X137289711Y-101221789D01*
X137420814Y-101309390D01*
X137420827Y-101309397D01*
X137505804Y-101344595D01*
X137566503Y-101369737D01*
X137721153Y-101400499D01*
X137721156Y-101400500D01*
X137721158Y-101400500D01*
X137878844Y-101400500D01*
X137878845Y-101400499D01*
X138033497Y-101369737D01*
X138179179Y-101309394D01*
X138310289Y-101221789D01*
X138421789Y-101110289D01*
X138509394Y-100979179D01*
X138569737Y-100833497D01*
X138600500Y-100678842D01*
X138600500Y-100521158D01*
X138600500Y-100521155D01*
X138600499Y-100521153D01*
X138595951Y-100498289D01*
X138569737Y-100366503D01*
X138551882Y-100323396D01*
X138509939Y-100222136D01*
X138500500Y-100174684D01*
X138500500Y-99350155D01*
X138520185Y-99283116D01*
X138536819Y-99262474D01*
X138787819Y-99011474D01*
X138849142Y-98977989D01*
X138918834Y-98982973D01*
X138974767Y-99024845D01*
X138999184Y-99090309D01*
X138999500Y-99099155D01*
X138999500Y-104043943D01*
X138979815Y-104110982D01*
X138927011Y-104156737D01*
X138857853Y-104166681D01*
X138794297Y-104137656D01*
X138787819Y-104131624D01*
X134359973Y-99703778D01*
X134312726Y-99672210D01*
X134281227Y-99651164D01*
X134237055Y-99621649D01*
X134237054Y-99621648D01*
X134237052Y-99621647D01*
X134237050Y-99621646D01*
X134100477Y-99565076D01*
X134100467Y-99565073D01*
X133955480Y-99536233D01*
X133955478Y-99536233D01*
X128712767Y-99536233D01*
X128665318Y-99526795D01*
X128641660Y-99516996D01*
X128641656Y-99516995D01*
X128641651Y-99516993D01*
X128487008Y-99486233D01*
X128487005Y-99486233D01*
X128329321Y-99486233D01*
X128329318Y-99486233D01*
X128174673Y-99516994D01*
X128174661Y-99516997D01*
X128028990Y-99577335D01*
X128028977Y-99577342D01*
X127897874Y-99664943D01*
X127897870Y-99664946D01*
X127786376Y-99776440D01*
X127786373Y-99776444D01*
X127698772Y-99907547D01*
X127698765Y-99907560D01*
X127638427Y-100053231D01*
X127638424Y-100053243D01*
X127607663Y-100207886D01*
X127607663Y-100365579D01*
X127638424Y-100520222D01*
X127638427Y-100520234D01*
X127698765Y-100665905D01*
X127698772Y-100665918D01*
X127786373Y-100797021D01*
X127786376Y-100797025D01*
X127897870Y-100908519D01*
X127897874Y-100908522D01*
X128028977Y-100996123D01*
X128028990Y-100996130D01*
X128174661Y-101056468D01*
X128174666Y-101056470D01*
X128329316Y-101087232D01*
X128329319Y-101087233D01*
X128329321Y-101087233D01*
X128487007Y-101087233D01*
X128487008Y-101087232D01*
X128619882Y-101060802D01*
X128641651Y-101056472D01*
X128641652Y-101056471D01*
X128641660Y-101056470D01*
X128665318Y-101046670D01*
X128712767Y-101037233D01*
X133519330Y-101037233D01*
X133586369Y-101056918D01*
X133607011Y-101073552D01*
X139518278Y-106984819D01*
X139551763Y-107046142D01*
X139546779Y-107115834D01*
X139504907Y-107171767D01*
X139439443Y-107196184D01*
X139430597Y-107196500D01*
X129964311Y-107196500D01*
X129897272Y-107176815D01*
X129876630Y-107160181D01*
X127822819Y-105106370D01*
X127789334Y-105045047D01*
X127786500Y-105018689D01*
X127786500Y-103868045D01*
X127786501Y-103868032D01*
X127786501Y-103699931D01*
X127786501Y-103699929D01*
X127745577Y-103547201D01*
X127713633Y-103491873D01*
X127666520Y-103410270D01*
X127554716Y-103298466D01*
X127554715Y-103298465D01*
X127550385Y-103294135D01*
X127550374Y-103294125D01*
X127318604Y-103062355D01*
X127318602Y-103062352D01*
X127199731Y-102943481D01*
X127199723Y-102943475D01*
X127077399Y-102872852D01*
X127077399Y-102872851D01*
X127077395Y-102872850D01*
X127062799Y-102864423D01*
X126910071Y-102823499D01*
X126751957Y-102823499D01*
X126744361Y-102823499D01*
X126744345Y-102823500D01*
X122725500Y-102823500D01*
X122658461Y-102803815D01*
X122612706Y-102751011D01*
X122601500Y-102699500D01*
X122601500Y-99840642D01*
X122601499Y-99840638D01*
X122575567Y-99710266D01*
X122575567Y-99710265D01*
X122574580Y-99705309D01*
X122574579Y-99705305D01*
X122521776Y-99577826D01*
X122445112Y-99463090D01*
X122445111Y-99463089D01*
X122106923Y-99124902D01*
X122073438Y-99063579D01*
X122078422Y-98993888D01*
X122120293Y-98937954D01*
X122147149Y-98922660D01*
X122179179Y-98909394D01*
X122310289Y-98821789D01*
X122421789Y-98710289D01*
X122509394Y-98579179D01*
X122569737Y-98433497D01*
X122600500Y-98278842D01*
X122600500Y-98121158D01*
X122600500Y-98121155D01*
X122600499Y-98121153D01*
X122580543Y-98020827D01*
X122569737Y-97966503D01*
X122558425Y-97939193D01*
X122509397Y-97820827D01*
X122509390Y-97820814D01*
X122421789Y-97689711D01*
X122421786Y-97689707D01*
X122310292Y-97578213D01*
X122310288Y-97578210D01*
X122179185Y-97490609D01*
X122179172Y-97490602D01*
X122033501Y-97430264D01*
X122033489Y-97430261D01*
X121878845Y-97399500D01*
X121878842Y-97399500D01*
X121721158Y-97399500D01*
X121721155Y-97399500D01*
X121566510Y-97430261D01*
X121566498Y-97430264D01*
X121420827Y-97490602D01*
X121420814Y-97490609D01*
X121289712Y-97578209D01*
X121268422Y-97599500D01*
X121204739Y-97663182D01*
X121143419Y-97696666D01*
X121117060Y-97699500D01*
X115225316Y-97699500D01*
X115177864Y-97690061D01*
X115033501Y-97630264D01*
X115033489Y-97630261D01*
X114878845Y-97599500D01*
X114878842Y-97599500D01*
X114721158Y-97599500D01*
X114721155Y-97599500D01*
X114566510Y-97630261D01*
X114566498Y-97630264D01*
X114420827Y-97690602D01*
X114420814Y-97690609D01*
X114289711Y-97778210D01*
X114289707Y-97778213D01*
X114178213Y-97889707D01*
X114178210Y-97889711D01*
X114090609Y-98020814D01*
X114090602Y-98020827D01*
X114030264Y-98166498D01*
X114030261Y-98166510D01*
X113999500Y-98321153D01*
X113999500Y-98478846D01*
X114013914Y-98551309D01*
X114007687Y-98620900D01*
X113964824Y-98676078D01*
X113898934Y-98699322D01*
X113892297Y-98699500D01*
X111120987Y-98699500D01*
X111053948Y-98679815D01*
X111033306Y-98663181D01*
X105359319Y-92989194D01*
X105325834Y-92927871D01*
X105323000Y-92901513D01*
X105323000Y-91397847D01*
X105342685Y-91330808D01*
X105390706Y-91287362D01*
X105461345Y-91251370D01*
X105665156Y-91103293D01*
X105843293Y-90925156D01*
X105991370Y-90721345D01*
X106105741Y-90496879D01*
X106183590Y-90257285D01*
X106223000Y-90008462D01*
X106223000Y-89756538D01*
X106183590Y-89507715D01*
X106105741Y-89268121D01*
X106105739Y-89268118D01*
X106105739Y-89268116D01*
X106023824Y-89107350D01*
X105991370Y-89043655D01*
X105923689Y-88950500D01*
X105843298Y-88839850D01*
X105843294Y-88839845D01*
X105665154Y-88661705D01*
X105665149Y-88661701D01*
X105461348Y-88513632D01*
X105461347Y-88513631D01*
X105461345Y-88513630D01*
X105391247Y-88477913D01*
X105236883Y-88399260D01*
X104997285Y-88321410D01*
X104748462Y-88282000D01*
X104496538Y-88282000D01*
X104372126Y-88301705D01*
X104247714Y-88321410D01*
X104008116Y-88399260D01*
X103783651Y-88513632D01*
X103579850Y-88661701D01*
X103579845Y-88661705D01*
X103401705Y-88839845D01*
X103401701Y-88839850D01*
X103253632Y-89043651D01*
X103139260Y-89268116D01*
X103061410Y-89507714D01*
X103022000Y-89756538D01*
X103022000Y-90008461D01*
X103061410Y-90257285D01*
X103139260Y-90496883D01*
X103253632Y-90721348D01*
X103401701Y-90925149D01*
X103401705Y-90925154D01*
X103579845Y-91103294D01*
X103579850Y-91103298D01*
X103783653Y-91251369D01*
X103854294Y-91287362D01*
X103905090Y-91335336D01*
X103922000Y-91397847D01*
X103922000Y-92102455D01*
X103902315Y-92169494D01*
X103849511Y-92215249D01*
X103780353Y-92225193D01*
X103716797Y-92196168D01*
X103710319Y-92190136D01*
X101241379Y-89721196D01*
X101207894Y-89659873D01*
X101206587Y-89652913D01*
X101183590Y-89507715D01*
X101105741Y-89268121D01*
X101105739Y-89268118D01*
X101105739Y-89268116D01*
X101023824Y-89107350D01*
X100991370Y-89043655D01*
X100923689Y-88950500D01*
X100843298Y-88839850D01*
X100843294Y-88839845D01*
X100665154Y-88661705D01*
X100665149Y-88661701D01*
X100461348Y-88513632D01*
X100461347Y-88513631D01*
X100461345Y-88513630D01*
X100391247Y-88477913D01*
X100236883Y-88399260D01*
X99997285Y-88321410D01*
X99748462Y-88282000D01*
X99496538Y-88282000D01*
X99372126Y-88301705D01*
X99247714Y-88321410D01*
X99008116Y-88399260D01*
X98783651Y-88513632D01*
X98579850Y-88661701D01*
X98579845Y-88661705D01*
X98401705Y-88839845D01*
X98401701Y-88839850D01*
X98253632Y-89043651D01*
X98139260Y-89268116D01*
X98061410Y-89507714D01*
X98022000Y-89756538D01*
X98022000Y-90008461D01*
X98061410Y-90257285D01*
X98139260Y-90496883D01*
X98253632Y-90721348D01*
X98401701Y-90925149D01*
X98401705Y-90925154D01*
X98579845Y-91103294D01*
X98579850Y-91103298D01*
X98702832Y-91192649D01*
X98783655Y-91251370D01*
X98922000Y-91321860D01*
X99008116Y-91365739D01*
X99008118Y-91365739D01*
X99008121Y-91365741D01*
X99247715Y-91443590D01*
X99496538Y-91483000D01*
X99496539Y-91483000D01*
X99748461Y-91483000D01*
X99748462Y-91483000D01*
X99933338Y-91453718D01*
X99948670Y-91455699D01*
X99963836Y-91452689D01*
X99982613Y-91460085D01*
X100002630Y-91462672D01*
X100014458Y-91472629D01*
X100028844Y-91478296D01*
X100040643Y-91494672D01*
X100056082Y-91507669D01*
X100061233Y-91523250D01*
X100069688Y-91534984D01*
X100076560Y-91569603D01*
X100082209Y-91675773D01*
X100082379Y-91683517D01*
X100082255Y-91696817D01*
X100061946Y-91763670D01*
X100038140Y-91790504D01*
X100004337Y-91818974D01*
X99944124Y-91846561D01*
X99848183Y-91861972D01*
X99848136Y-91861981D01*
X99784039Y-91876608D01*
X99784035Y-91876609D01*
X99784034Y-91876610D01*
X99653387Y-91936885D01*
X99653383Y-91936887D01*
X99545016Y-92031522D01*
X99545014Y-92031524D01*
X99467695Y-92152861D01*
X99432342Y-92231070D01*
X99415675Y-92272787D01*
X99415675Y-92272789D01*
X99388102Y-92414003D01*
X99401429Y-92557266D01*
X99401429Y-92557267D01*
X99454575Y-92690961D01*
X99454579Y-92690971D01*
X99476029Y-92728332D01*
X99501570Y-92768342D01*
X99572909Y-92843716D01*
X99600470Y-92872836D01*
X99694984Y-92927871D01*
X99724807Y-92945237D01*
X99724815Y-92945241D01*
X99755768Y-92957765D01*
X99798106Y-92986212D01*
X99801009Y-92989194D01*
X99809616Y-92998035D01*
X99809620Y-92998038D01*
X99895765Y-93046585D01*
X99934963Y-93068675D01*
X100047795Y-93112488D01*
X100047798Y-93112488D01*
X100047799Y-93112489D01*
X100186942Y-93144862D01*
X100291077Y-93153924D01*
X100376458Y-93161354D01*
X100381054Y-93161841D01*
X100463792Y-93172174D01*
X100498810Y-93181916D01*
X100541314Y-93200817D01*
X100572540Y-93214703D01*
X100625798Y-93259929D01*
X100640180Y-93289974D01*
X100644242Y-93302580D01*
X100649702Y-93329315D01*
X100652133Y-93355898D01*
X100652135Y-93355915D01*
X100652136Y-93355920D01*
X100653931Y-93367537D01*
X100661235Y-93414799D01*
X100661725Y-93417966D01*
X100712177Y-93552710D01*
X100712176Y-93552710D01*
X100732270Y-93589397D01*
X100744630Y-93611965D01*
X100749009Y-93619959D01*
X100824621Y-93722767D01*
X100828482Y-93728016D01*
X100942077Y-93816321D01*
X101075949Y-93869045D01*
X101219253Y-93881917D01*
X101228415Y-93881429D01*
X101313922Y-93866637D01*
X101345772Y-93861128D01*
X101345772Y-93861127D01*
X101345776Y-93861127D01*
X101476427Y-93800863D01*
X101596943Y-93722767D01*
X101663110Y-93671650D01*
X101754409Y-93560447D01*
X101855787Y-93393083D01*
X101866359Y-93374777D01*
X101917045Y-93240120D01*
X101954880Y-93068677D01*
X101959620Y-93047199D01*
X101959623Y-93047181D01*
X101959647Y-93047076D01*
X101959724Y-93046710D01*
X101959730Y-93046699D01*
X101959756Y-93046585D01*
X101959788Y-93046592D01*
X101964625Y-93037607D01*
X101965516Y-93027306D01*
X101980904Y-93007371D01*
X101992845Y-92985194D01*
X102003026Y-92978714D01*
X102008211Y-92971999D01*
X102039431Y-92955547D01*
X102131868Y-92922621D01*
X102141800Y-92919547D01*
X102143994Y-92918967D01*
X102143991Y-92918967D01*
X102144002Y-92918965D01*
X102309618Y-92865878D01*
X102379467Y-92864161D01*
X102435149Y-92896280D01*
X106738370Y-97199500D01*
X110185412Y-100646542D01*
X110278827Y-100739957D01*
X110282985Y-100744115D01*
X110397710Y-100820772D01*
X110397711Y-100820772D01*
X110397715Y-100820775D01*
X110456649Y-100845186D01*
X110525197Y-100873580D01*
X110552117Y-100878934D01*
X110648989Y-100898203D01*
X110660532Y-100900500D01*
X110660533Y-100900500D01*
X120774684Y-100900500D01*
X120822136Y-100909939D01*
X120872751Y-100930904D01*
X120966503Y-100969737D01*
X121060645Y-100988463D01*
X121100691Y-100996429D01*
X121162602Y-101028814D01*
X121197176Y-101089529D01*
X121200500Y-101118046D01*
X121200500Y-102333326D01*
X121180815Y-102400365D01*
X121128011Y-102446120D01*
X121123953Y-102447887D01*
X121020824Y-102490604D01*
X121020814Y-102490609D01*
X120889711Y-102578210D01*
X120889707Y-102578213D01*
X120778212Y-102689708D01*
X120746979Y-102736452D01*
X120725638Y-102768391D01*
X120672028Y-102813196D01*
X120622537Y-102823500D01*
X118160655Y-102823500D01*
X118160639Y-102823499D01*
X118153043Y-102823499D01*
X117994929Y-102823499D01*
X117880383Y-102854192D01*
X117842200Y-102864423D01*
X117830688Y-102871069D01*
X117827606Y-102872850D01*
X117827604Y-102872851D01*
X117827601Y-102872852D01*
X117705276Y-102943475D01*
X117705268Y-102943481D01*
X116719481Y-103929268D01*
X116719475Y-103929276D01*
X116684566Y-103989742D01*
X116684566Y-103989744D01*
X116640423Y-104066200D01*
X116640423Y-104066201D01*
X116599499Y-104218929D01*
X116599499Y-104218931D01*
X116599499Y-104387032D01*
X116599500Y-104387045D01*
X116599500Y-105680236D01*
X116579815Y-105747275D01*
X116578602Y-105749127D01*
X116490609Y-105880816D01*
X116490602Y-105880829D01*
X116430264Y-106026500D01*
X116430261Y-106026512D01*
X116399500Y-106181155D01*
X116399500Y-106338848D01*
X116430261Y-106493491D01*
X116430264Y-106493503D01*
X116490602Y-106639174D01*
X116490609Y-106639187D01*
X116578210Y-106770290D01*
X116578213Y-106770294D01*
X116689707Y-106881788D01*
X116689711Y-106881791D01*
X116820814Y-106969392D01*
X116820827Y-106969399D01*
X116966491Y-107029734D01*
X116966503Y-107029739D01*
X116998053Y-107036014D01*
X117034676Y-107043300D01*
X117096587Y-107075685D01*
X117131161Y-107136400D01*
X117127422Y-107206170D01*
X117098166Y-107252598D01*
X116585339Y-107765425D01*
X116524016Y-107798910D01*
X116521850Y-107799361D01*
X116366508Y-107830261D01*
X116366498Y-107830264D01*
X116220827Y-107890602D01*
X116220814Y-107890609D01*
X116089711Y-107978210D01*
X116089707Y-107978213D01*
X115978213Y-108089707D01*
X115978210Y-108089711D01*
X115890609Y-108220814D01*
X115890602Y-108220827D01*
X115830264Y-108366498D01*
X115830261Y-108366510D01*
X115799500Y-108521153D01*
X115799500Y-108678846D01*
X115830261Y-108833489D01*
X115830264Y-108833501D01*
X115890602Y-108979172D01*
X115890609Y-108979185D01*
X115978210Y-109110288D01*
X115978213Y-109110292D01*
X116089707Y-109221786D01*
X116089711Y-109221789D01*
X116220814Y-109309390D01*
X116220827Y-109309397D01*
X116310461Y-109346524D01*
X116366503Y-109369737D01*
X116521153Y-109400499D01*
X116521156Y-109400500D01*
X116521158Y-109400500D01*
X116678844Y-109400500D01*
X116678845Y-109400499D01*
X116833497Y-109369737D01*
X116979179Y-109309394D01*
X117110289Y-109221789D01*
X117221789Y-109110289D01*
X117309394Y-108979179D01*
X117369737Y-108833497D01*
X117389113Y-108736085D01*
X117400638Y-108678150D01*
X117433023Y-108616239D01*
X117434517Y-108614717D01*
X119753418Y-106295818D01*
X119814741Y-106262333D01*
X119841099Y-106259499D01*
X123672370Y-106259499D01*
X123739409Y-106279184D01*
X123785164Y-106331988D01*
X123793987Y-106359308D01*
X123820677Y-106493488D01*
X123820680Y-106493500D01*
X123881018Y-106639171D01*
X123881025Y-106639184D01*
X123968626Y-106770287D01*
X123968629Y-106770291D01*
X124080123Y-106881785D01*
X124080127Y-106881788D01*
X124211230Y-106969389D01*
X124211243Y-106969396D01*
X124356914Y-107029734D01*
X124356919Y-107029736D01*
X124458134Y-107049869D01*
X124511569Y-107060498D01*
X124511572Y-107060499D01*
X124511574Y-107060499D01*
X124669259Y-107060499D01*
X124699823Y-107054419D01*
X124722696Y-107049869D01*
X124792288Y-107056096D01*
X124834570Y-107083805D01*
X125938584Y-108187819D01*
X125972069Y-108249142D01*
X125967085Y-108318834D01*
X125925213Y-108374767D01*
X125859749Y-108399184D01*
X125850903Y-108399500D01*
X124779766Y-108399500D01*
X124712727Y-108379815D01*
X124710875Y-108378602D01*
X124579185Y-108290609D01*
X124579172Y-108290602D01*
X124433501Y-108230264D01*
X124433489Y-108230261D01*
X124278845Y-108199500D01*
X124278842Y-108199500D01*
X124121158Y-108199500D01*
X124121155Y-108199500D01*
X123966510Y-108230261D01*
X123966498Y-108230264D01*
X123820827Y-108290602D01*
X123820814Y-108290609D01*
X123689711Y-108378210D01*
X123689707Y-108378213D01*
X123578213Y-108489707D01*
X123578210Y-108489711D01*
X123490609Y-108620814D01*
X123490602Y-108620827D01*
X123430264Y-108766498D01*
X123430261Y-108766510D01*
X123399500Y-108921153D01*
X123399500Y-109078846D01*
X123430261Y-109233489D01*
X123430264Y-109233501D01*
X123490602Y-109379172D01*
X123490609Y-109379185D01*
X123578210Y-109510288D01*
X123578213Y-109510292D01*
X123689707Y-109621786D01*
X123689711Y-109621789D01*
X123820814Y-109709390D01*
X123820827Y-109709397D01*
X123966498Y-109769735D01*
X123966503Y-109769737D01*
X124121153Y-109800499D01*
X124121156Y-109800500D01*
X124121158Y-109800500D01*
X124278844Y-109800500D01*
X124278845Y-109800499D01*
X124433497Y-109769737D01*
X124579179Y-109709394D01*
X124678211Y-109643223D01*
X124710875Y-109621398D01*
X124777553Y-109600520D01*
X124779766Y-109600500D01*
X127475500Y-109600500D01*
X127542539Y-109620185D01*
X127588294Y-109672989D01*
X127599500Y-109724500D01*
X127599500Y-109878846D01*
X127630261Y-110033489D01*
X127630264Y-110033501D01*
X127690602Y-110179172D01*
X127690609Y-110179185D01*
X127778210Y-110310288D01*
X127778213Y-110310292D01*
X127889710Y-110421789D01*
X128020815Y-110509390D01*
X128020821Y-110509394D01*
X128044475Y-110519191D01*
X128084703Y-110546071D01*
X128905939Y-111367307D01*
X129601451Y-112062818D01*
X129634936Y-112124141D01*
X129629952Y-112193833D01*
X129588080Y-112249766D01*
X129522616Y-112274183D01*
X129513770Y-112274499D01*
X89961426Y-112274499D01*
X89894387Y-112254814D01*
X89858324Y-112219390D01*
X89821789Y-112164711D01*
X89821787Y-112164708D01*
X89710292Y-112053213D01*
X89710288Y-112053210D01*
X89579185Y-111965609D01*
X89579172Y-111965602D01*
X89433501Y-111905264D01*
X89433489Y-111905261D01*
X89311105Y-111880917D01*
X89249194Y-111848532D01*
X89214620Y-111787816D01*
X89218359Y-111718047D01*
X89259226Y-111661375D01*
X89266391Y-111656207D01*
X89335679Y-111609911D01*
X89447179Y-111498411D01*
X89534784Y-111367301D01*
X89595127Y-111221619D01*
X89625890Y-111066964D01*
X89625890Y-110909280D01*
X89625890Y-110909277D01*
X89625889Y-110909275D01*
X89620074Y-110880042D01*
X89595127Y-110754625D01*
X89595125Y-110754620D01*
X89534787Y-110608949D01*
X89534780Y-110608936D01*
X89447179Y-110477833D01*
X89447176Y-110477829D01*
X89335682Y-110366335D01*
X89335678Y-110366332D01*
X89204575Y-110278731D01*
X89204562Y-110278724D01*
X89058891Y-110218386D01*
X89058879Y-110218383D01*
X88904235Y-110187622D01*
X88904232Y-110187622D01*
X88746548Y-110187622D01*
X88746545Y-110187622D01*
X88591900Y-110218383D01*
X88591888Y-110218386D01*
X88446217Y-110278724D01*
X88446204Y-110278731D01*
X88315101Y-110366332D01*
X88315097Y-110366335D01*
X88203603Y-110477829D01*
X88203600Y-110477833D01*
X88115999Y-110608936D01*
X88115992Y-110608949D01*
X88055654Y-110754620D01*
X88055651Y-110754632D01*
X88024890Y-110909275D01*
X88024890Y-111020638D01*
X88020665Y-111052731D01*
X87998499Y-111135455D01*
X87998499Y-111303558D01*
X87998500Y-111303571D01*
X87998500Y-113687273D01*
X87998499Y-113687291D01*
X87998499Y-113852997D01*
X87998498Y-113852997D01*
X88039423Y-114005728D01*
X88053596Y-114030276D01*
X88053595Y-114030276D01*
X88053596Y-114030277D01*
X88118475Y-114142652D01*
X88118481Y-114142660D01*
X88237349Y-114261528D01*
X88237355Y-114261533D01*
X88473086Y-114497264D01*
X88506571Y-114558587D01*
X88507022Y-114560753D01*
X88536746Y-114710185D01*
X88536749Y-114710195D01*
X88597087Y-114855866D01*
X88597094Y-114855879D01*
X88684695Y-114986982D01*
X88684698Y-114986986D01*
X88796195Y-115098483D01*
X88835133Y-115124500D01*
X88927306Y-115186088D01*
X88927311Y-115186090D01*
X88927313Y-115186091D01*
X88950958Y-115195885D01*
X88991190Y-115222766D01*
X89246839Y-115478415D01*
X89246840Y-115478416D01*
X89330429Y-115562005D01*
X89351376Y-115582952D01*
X89474289Y-115665080D01*
X89474302Y-115665087D01*
X89581260Y-115709390D01*
X89610878Y-115721658D01*
X89610882Y-115721658D01*
X89610883Y-115721659D01*
X89755870Y-115750500D01*
X89755873Y-115750500D01*
X90325500Y-115750500D01*
X90334185Y-115753050D01*
X90343147Y-115751762D01*
X90367187Y-115762740D01*
X90392539Y-115770185D01*
X90398466Y-115777025D01*
X90406703Y-115780787D01*
X90420992Y-115803021D01*
X90438294Y-115822989D01*
X90440581Y-115833503D01*
X90444477Y-115839565D01*
X90449500Y-115874500D01*
X90449500Y-115967059D01*
X90429815Y-116034098D01*
X90413181Y-116054740D01*
X90378213Y-116089707D01*
X90378210Y-116089711D01*
X90290609Y-116220814D01*
X90290602Y-116220827D01*
X90230264Y-116366498D01*
X90230261Y-116366510D01*
X90199500Y-116521153D01*
X90199500Y-116678846D01*
X90230261Y-116833489D01*
X90230264Y-116833501D01*
X90290602Y-116979172D01*
X90290609Y-116979185D01*
X90378210Y-117110288D01*
X90378213Y-117110292D01*
X90489707Y-117221786D01*
X90489711Y-117221789D01*
X90620814Y-117309390D01*
X90620827Y-117309397D01*
X90766498Y-117369735D01*
X90766503Y-117369737D01*
X90921153Y-117400499D01*
X90921156Y-117400500D01*
X90921158Y-117400500D01*
X91078844Y-117400500D01*
X91078845Y-117400499D01*
X91233497Y-117369737D01*
X91379179Y-117309394D01*
X91510289Y-117221789D01*
X91621789Y-117110289D01*
X91709394Y-116979179D01*
X91719191Y-116955527D01*
X91736212Y-116926414D01*
X91740805Y-116920561D01*
X91782952Y-116878416D01*
X91832186Y-116804729D01*
X91865084Y-116755495D01*
X91902954Y-116664069D01*
X91921659Y-116618912D01*
X91950500Y-116473917D01*
X91950500Y-116326082D01*
X91950500Y-115874500D01*
X91970185Y-115807461D01*
X92022989Y-115761706D01*
X92074500Y-115750500D01*
X94095396Y-115750500D01*
X94142844Y-115759937D01*
X94166503Y-115769737D01*
X94166508Y-115769738D01*
X94166511Y-115769739D01*
X94321153Y-115800499D01*
X94321156Y-115800500D01*
X94321158Y-115800500D01*
X94478844Y-115800500D01*
X94478845Y-115800499D01*
X94633497Y-115769737D01*
X94779179Y-115709394D01*
X94910289Y-115621789D01*
X95021789Y-115510289D01*
X95109394Y-115379179D01*
X95169737Y-115233497D01*
X95200500Y-115078842D01*
X95200500Y-114921158D01*
X95200500Y-114921155D01*
X95200499Y-114921153D01*
X95187514Y-114855873D01*
X95169737Y-114766503D01*
X95146412Y-114710191D01*
X95109397Y-114620827D01*
X95109390Y-114620814D01*
X95021789Y-114489711D01*
X95021786Y-114489707D01*
X94910292Y-114378213D01*
X94910288Y-114378210D01*
X94779185Y-114290609D01*
X94779172Y-114290602D01*
X94633501Y-114230264D01*
X94633489Y-114230261D01*
X94478845Y-114199500D01*
X94478842Y-114199500D01*
X94321158Y-114199500D01*
X94321155Y-114199500D01*
X94166511Y-114230260D01*
X94166506Y-114230262D01*
X94166504Y-114230262D01*
X94166503Y-114230263D01*
X94142844Y-114240062D01*
X94095396Y-114249500D01*
X90192020Y-114249500D01*
X90162579Y-114240855D01*
X90132593Y-114234332D01*
X90127577Y-114230577D01*
X90124981Y-114229815D01*
X90104339Y-114213181D01*
X90052557Y-114161399D01*
X90025676Y-114121169D01*
X90015879Y-114097515D01*
X90015645Y-114096950D01*
X90008179Y-114027480D01*
X90039456Y-113965002D01*
X90099546Y-113929352D01*
X90130208Y-113925501D01*
X102125902Y-113925501D01*
X102192941Y-113945186D01*
X102238696Y-113997990D01*
X102248640Y-114067148D01*
X102219615Y-114130704D01*
X102213583Y-114137182D01*
X89385339Y-126965425D01*
X89324016Y-126998910D01*
X89321850Y-126999361D01*
X89166508Y-127030261D01*
X89166498Y-127030264D01*
X89020827Y-127090602D01*
X89020814Y-127090609D01*
X88889711Y-127178210D01*
X88889707Y-127178213D01*
X88778213Y-127289707D01*
X88778210Y-127289711D01*
X88690609Y-127420814D01*
X88690602Y-127420827D01*
X88630264Y-127566498D01*
X88630261Y-127566510D01*
X88599500Y-127721153D01*
X88599500Y-127878846D01*
X88630261Y-128033489D01*
X88630264Y-128033501D01*
X88690602Y-128179172D01*
X88690609Y-128179185D01*
X88778210Y-128310288D01*
X88778213Y-128310292D01*
X88889707Y-128421786D01*
X88889711Y-128421789D01*
X89020814Y-128509390D01*
X89020827Y-128509397D01*
X89166498Y-128569735D01*
X89166503Y-128569737D01*
X89321153Y-128600499D01*
X89321156Y-128600500D01*
X89321158Y-128600500D01*
X89478844Y-128600500D01*
X89478845Y-128600499D01*
X89633497Y-128569737D01*
X89779179Y-128509394D01*
X89910289Y-128421789D01*
X90021789Y-128310289D01*
X90109394Y-128179179D01*
X90169737Y-128033497D01*
X90196391Y-127899500D01*
X90200638Y-127878150D01*
X90233023Y-127816239D01*
X90234518Y-127814716D01*
X103686415Y-114362820D01*
X103747738Y-114329335D01*
X103774096Y-114326501D01*
X139027629Y-114326501D01*
X139027645Y-114326502D01*
X139035241Y-114326502D01*
X139193352Y-114326502D01*
X139193355Y-114326502D01*
X139346083Y-114285578D01*
X139399975Y-114254463D01*
X139483014Y-114206521D01*
X139594818Y-114094717D01*
X139594818Y-114094715D01*
X139605022Y-114084512D01*
X139605025Y-114084507D01*
X143695752Y-109993781D01*
X143721529Y-109979706D01*
X143745889Y-109963284D01*
X143751844Y-109963153D01*
X143757073Y-109960298D01*
X143786377Y-109962393D01*
X143815741Y-109961748D01*
X143822916Y-109965006D01*
X143826765Y-109965282D01*
X143848161Y-109975700D01*
X143850269Y-109976990D01*
X143965235Y-110053808D01*
X143997874Y-110067327D01*
X144006166Y-110072402D01*
X144012469Y-110079361D01*
X144029117Y-110090485D01*
X150130681Y-116192048D01*
X150164166Y-116253371D01*
X150167000Y-116279729D01*
X150167000Y-125932628D01*
X150147315Y-125999667D01*
X150099297Y-126043112D01*
X150078651Y-126053631D01*
X149874850Y-126201701D01*
X149874845Y-126201705D01*
X149696705Y-126379845D01*
X149696701Y-126379850D01*
X149548632Y-126583651D01*
X149434260Y-126808116D01*
X149362080Y-127030264D01*
X149356410Y-127047715D01*
X149317000Y-127296538D01*
X149317000Y-127548462D01*
X149319859Y-127566510D01*
X149356410Y-127797285D01*
X149434260Y-128036883D01*
X149475592Y-128118000D01*
X149543233Y-128250753D01*
X149548632Y-128261348D01*
X149696701Y-128465149D01*
X149696705Y-128465154D01*
X149874845Y-128643294D01*
X149874850Y-128643298D01*
X150052617Y-128772452D01*
X150078655Y-128791370D01*
X150221684Y-128864247D01*
X150303116Y-128905739D01*
X150303118Y-128905739D01*
X150303121Y-128905741D01*
X150542715Y-128983590D01*
X150791538Y-129023000D01*
X150791539Y-129023000D01*
X151043461Y-129023000D01*
X151043462Y-129023000D01*
X151292285Y-128983590D01*
X151531879Y-128905741D01*
X151756345Y-128791370D01*
X151960156Y-128643293D01*
X152138293Y-128465156D01*
X152286370Y-128261345D01*
X152400741Y-128036879D01*
X152478590Y-127797285D01*
X152518000Y-127548462D01*
X152518000Y-127296538D01*
X152478590Y-127047715D01*
X152400741Y-126808121D01*
X152400739Y-126808118D01*
X152400739Y-126808116D01*
X152359247Y-126726684D01*
X152286370Y-126583655D01*
X152267452Y-126557617D01*
X152138298Y-126379850D01*
X152138294Y-126379845D01*
X151960154Y-126201705D01*
X151960149Y-126201701D01*
X151756348Y-126053631D01*
X151735703Y-126043112D01*
X151684908Y-125995137D01*
X151668000Y-125932628D01*
X151668000Y-122117847D01*
X151687685Y-122050808D01*
X151740489Y-122005053D01*
X151767809Y-121996230D01*
X151783791Y-121993050D01*
X151900997Y-121969737D01*
X152046679Y-121909394D01*
X152177789Y-121821789D01*
X152289289Y-121710289D01*
X152376894Y-121579179D01*
X152437237Y-121433497D01*
X152468000Y-121278842D01*
X152468138Y-121278150D01*
X152500523Y-121216239D01*
X152502013Y-121214721D01*
X152788820Y-120927914D01*
X152850142Y-120894431D01*
X152919834Y-120899415D01*
X152975767Y-120941287D01*
X153000184Y-121006751D01*
X153000500Y-121015597D01*
X153000500Y-132256480D01*
X152980815Y-132323519D01*
X152964181Y-132344161D01*
X152729681Y-132578661D01*
X152668358Y-132612146D01*
X152598666Y-132607162D01*
X152542733Y-132565290D01*
X152518316Y-132499826D01*
X152518000Y-132490980D01*
X152518000Y-132296538D01*
X152511655Y-132256480D01*
X152478590Y-132047715D01*
X152400741Y-131808121D01*
X152400739Y-131808118D01*
X152400739Y-131808116D01*
X152359247Y-131726684D01*
X152286370Y-131583655D01*
X152166165Y-131418206D01*
X152138298Y-131379850D01*
X152138294Y-131379845D01*
X151960154Y-131201705D01*
X151960149Y-131201701D01*
X151756348Y-131053632D01*
X151756347Y-131053631D01*
X151756345Y-131053630D01*
X151686247Y-131017913D01*
X151531883Y-130939260D01*
X151292285Y-130861410D01*
X151043462Y-130822000D01*
X150791538Y-130822000D01*
X150741773Y-130829882D01*
X150542711Y-130861410D01*
X150542710Y-130861410D01*
X150520680Y-130868568D01*
X150450839Y-130870561D01*
X150394685Y-130838317D01*
X145173421Y-125617052D01*
X145173414Y-125617046D01*
X145099729Y-125567812D01*
X145099729Y-125567813D01*
X145050491Y-125534913D01*
X144913917Y-125478343D01*
X144913907Y-125478340D01*
X144768920Y-125449500D01*
X144768918Y-125449500D01*
X140762230Y-125449500D01*
X140695191Y-125429815D01*
X140674549Y-125413181D01*
X138946071Y-123684703D01*
X138919191Y-123644475D01*
X138909394Y-123620821D01*
X138909389Y-123620814D01*
X138821789Y-123489710D01*
X138710292Y-123378213D01*
X138710288Y-123378210D01*
X138579185Y-123290609D01*
X138579172Y-123290602D01*
X138433501Y-123230264D01*
X138433489Y-123230261D01*
X138278845Y-123199500D01*
X138278842Y-123199500D01*
X138121158Y-123199500D01*
X138121155Y-123199500D01*
X137966510Y-123230261D01*
X137966498Y-123230264D01*
X137820827Y-123290602D01*
X137820814Y-123290609D01*
X137689711Y-123378210D01*
X137689707Y-123378213D01*
X137578213Y-123489707D01*
X137578210Y-123489711D01*
X137490609Y-123620814D01*
X137490602Y-123620827D01*
X137430264Y-123766498D01*
X137430261Y-123766510D01*
X137399500Y-123921153D01*
X137399500Y-124078846D01*
X137430261Y-124233489D01*
X137430264Y-124233501D01*
X137490602Y-124379172D01*
X137490609Y-124379185D01*
X137578210Y-124510288D01*
X137578213Y-124510292D01*
X137689710Y-124621789D01*
X137820815Y-124709390D01*
X137820821Y-124709394D01*
X137844475Y-124719191D01*
X137884703Y-124746071D01*
X139026451Y-125887819D01*
X139059936Y-125949142D01*
X139054952Y-126018834D01*
X139013080Y-126074767D01*
X138947616Y-126099184D01*
X138938770Y-126099500D01*
X109531004Y-126099500D01*
X109395677Y-126126418D01*
X109395667Y-126126421D01*
X109268192Y-126179222D01*
X109153454Y-126255887D01*
X102405412Y-133003929D01*
X102365184Y-133030809D01*
X102220823Y-133090604D01*
X102220814Y-133090609D01*
X102089711Y-133178210D01*
X102089707Y-133178213D01*
X101978213Y-133289707D01*
X101978210Y-133289711D01*
X101890609Y-133420814D01*
X101890602Y-133420827D01*
X101830264Y-133566498D01*
X101830261Y-133566510D01*
X101799500Y-133721153D01*
X101799500Y-133878846D01*
X101830261Y-134033489D01*
X101830264Y-134033501D01*
X101890602Y-134179172D01*
X101890609Y-134179185D01*
X101978210Y-134310288D01*
X101978213Y-134310292D01*
X102089707Y-134421786D01*
X102089711Y-134421789D01*
X102220814Y-134509390D01*
X102220827Y-134509397D01*
X102363555Y-134568516D01*
X102366503Y-134569737D01*
X102503955Y-134597078D01*
X102521153Y-134600499D01*
X102521156Y-134600500D01*
X102521158Y-134600500D01*
X102678844Y-134600500D01*
X102678845Y-134600499D01*
X102833497Y-134569737D01*
X102979179Y-134509394D01*
X103110289Y-134421789D01*
X103221789Y-134310289D01*
X103309394Y-134179179D01*
X103309395Y-134179176D01*
X103309397Y-134179173D01*
X103369192Y-134034812D01*
X103396069Y-133994586D01*
X109853838Y-127536819D01*
X109915161Y-127503334D01*
X109941519Y-127500500D01*
X139843220Y-127500500D01*
X139890672Y-127509938D01*
X139926019Y-127524580D01*
X139926023Y-127524580D01*
X139926024Y-127524581D01*
X140061350Y-127551500D01*
X140061353Y-127551500D01*
X140061354Y-127551500D01*
X144083827Y-127551500D01*
X144150866Y-127571185D01*
X144171508Y-127587819D01*
X144570674Y-127986985D01*
X144604159Y-128048308D01*
X144599175Y-128118000D01*
X144557303Y-128173933D01*
X144491839Y-128198350D01*
X144435541Y-128189227D01*
X144248169Y-128111615D01*
X143900223Y-128006067D01*
X143900212Y-128006064D01*
X143543630Y-127935137D01*
X143271111Y-127908296D01*
X143181794Y-127899500D01*
X142818206Y-127899500D01*
X142735679Y-127907628D01*
X142456369Y-127935137D01*
X142099787Y-128006064D01*
X142099776Y-128006067D01*
X141751834Y-128111614D01*
X141415921Y-128250754D01*
X141415916Y-128250756D01*
X141095279Y-128422140D01*
X141095261Y-128422151D01*
X140792964Y-128624140D01*
X140792950Y-128624150D01*
X140511893Y-128854807D01*
X140254807Y-129111893D01*
X140024150Y-129392950D01*
X140024140Y-129392964D01*
X139822151Y-129695261D01*
X139822140Y-129695279D01*
X139650756Y-130015916D01*
X139650754Y-130015921D01*
X139511614Y-130351834D01*
X139406067Y-130699776D01*
X139406064Y-130699787D01*
X139335137Y-131056369D01*
X139320823Y-131201707D01*
X139303279Y-131379844D01*
X139299500Y-131418209D01*
X139299500Y-131781790D01*
X139335137Y-132143630D01*
X139406064Y-132500212D01*
X139406067Y-132500223D01*
X139456656Y-132666994D01*
X139511614Y-132848164D01*
X139648324Y-133178213D01*
X139650754Y-133184078D01*
X139650756Y-133184083D01*
X139822140Y-133504720D01*
X139822151Y-133504738D01*
X140024140Y-133807035D01*
X140024150Y-133807049D01*
X140254807Y-134088106D01*
X140511893Y-134345192D01*
X140511898Y-134345196D01*
X140511899Y-134345197D01*
X140792956Y-134575854D01*
X141095268Y-134777853D01*
X141095277Y-134777858D01*
X141095279Y-134777859D01*
X141415916Y-134949243D01*
X141415918Y-134949243D01*
X141415924Y-134949247D01*
X141751836Y-135088386D01*
X142099767Y-135193930D01*
X142099773Y-135193931D01*
X142099776Y-135193932D01*
X142099787Y-135193935D01*
X142401172Y-135253883D01*
X142463083Y-135286267D01*
X142497657Y-135346983D01*
X142493918Y-135416753D01*
X142453052Y-135473425D01*
X142388034Y-135499006D01*
X142376981Y-135499500D01*
X85023019Y-135499500D01*
X84955980Y-135479815D01*
X84910225Y-135427011D01*
X84900281Y-135357853D01*
X84929306Y-135294297D01*
X84988084Y-135256523D01*
X84998828Y-135253883D01*
X85300212Y-135193935D01*
X85300223Y-135193932D01*
X85300223Y-135193931D01*
X85300233Y-135193930D01*
X85648164Y-135088386D01*
X85984076Y-134949247D01*
X86304732Y-134777853D01*
X86607044Y-134575854D01*
X86888101Y-134345197D01*
X87145197Y-134088101D01*
X87375854Y-133807044D01*
X87577853Y-133504732D01*
X87749247Y-133184076D01*
X87888386Y-132848164D01*
X87993930Y-132500233D01*
X87993932Y-132500223D01*
X87993935Y-132500212D01*
X88062140Y-132157315D01*
X88064862Y-132143631D01*
X88100500Y-131781794D01*
X88100500Y-131418206D01*
X88064862Y-131056369D01*
X88035628Y-130909397D01*
X87993935Y-130699787D01*
X87993932Y-130699776D01*
X87993931Y-130699773D01*
X87993930Y-130699767D01*
X87888386Y-130351836D01*
X87792834Y-130121153D01*
X101579500Y-130121153D01*
X101579500Y-130278846D01*
X101610261Y-130433489D01*
X101610264Y-130433501D01*
X101670602Y-130579172D01*
X101670609Y-130579185D01*
X101758210Y-130710288D01*
X101758213Y-130710292D01*
X101869707Y-130821786D01*
X101869711Y-130821789D01*
X102000814Y-130909390D01*
X102000827Y-130909397D01*
X102072924Y-130939260D01*
X102146503Y-130969737D01*
X102238483Y-130988033D01*
X102301153Y-131000499D01*
X102301156Y-131000500D01*
X102301158Y-131000500D01*
X102458844Y-131000500D01*
X102458845Y-131000499D01*
X102613497Y-130969737D01*
X102759179Y-130909394D01*
X102890289Y-130821789D01*
X103001789Y-130710289D01*
X103089394Y-130579179D01*
X103092780Y-130574112D01*
X103093133Y-130574348D01*
X103110672Y-130550694D01*
X108874548Y-124786819D01*
X108935871Y-124753334D01*
X108962229Y-124750500D01*
X116295396Y-124750500D01*
X116342844Y-124759937D01*
X116366503Y-124769737D01*
X116366508Y-124769738D01*
X116366511Y-124769739D01*
X116521153Y-124800499D01*
X116521156Y-124800500D01*
X116521158Y-124800500D01*
X116678844Y-124800500D01*
X116678845Y-124800499D01*
X116833497Y-124769737D01*
X116979179Y-124709394D01*
X117110289Y-124621789D01*
X117221789Y-124510289D01*
X117309394Y-124379179D01*
X117369737Y-124233497D01*
X117400500Y-124078842D01*
X117400500Y-123921158D01*
X117400500Y-123921155D01*
X117400499Y-123921153D01*
X117369738Y-123766510D01*
X117369737Y-123766503D01*
X117335855Y-123684703D01*
X117309397Y-123620827D01*
X117309390Y-123620814D01*
X117221789Y-123489711D01*
X117221786Y-123489707D01*
X117110292Y-123378213D01*
X117110288Y-123378210D01*
X116979185Y-123290609D01*
X116979172Y-123290602D01*
X116833501Y-123230264D01*
X116833489Y-123230261D01*
X116678845Y-123199500D01*
X116678842Y-123199500D01*
X116521158Y-123199500D01*
X116521155Y-123199500D01*
X116366511Y-123230260D01*
X116366506Y-123230262D01*
X116366504Y-123230262D01*
X116366503Y-123230263D01*
X116342844Y-123240062D01*
X116295396Y-123249500D01*
X108526080Y-123249500D01*
X108381092Y-123278340D01*
X108381082Y-123278343D01*
X108244508Y-123334913D01*
X108121584Y-123417048D01*
X108121584Y-123417049D01*
X102098845Y-129439785D01*
X102058618Y-129466664D01*
X102000829Y-129490601D01*
X102000814Y-129490609D01*
X101869711Y-129578210D01*
X101869707Y-129578213D01*
X101758213Y-129689707D01*
X101758210Y-129689711D01*
X101670609Y-129820814D01*
X101670602Y-129820827D01*
X101610264Y-129966498D01*
X101610261Y-129966510D01*
X101579500Y-130121153D01*
X87792834Y-130121153D01*
X87749247Y-130015924D01*
X87722828Y-129966498D01*
X87577859Y-129695279D01*
X87577858Y-129695277D01*
X87577853Y-129695268D01*
X87375854Y-129392956D01*
X87145197Y-129111899D01*
X87145196Y-129111898D01*
X87145192Y-129111893D01*
X86888106Y-128854807D01*
X86607049Y-128624150D01*
X86607048Y-128624149D01*
X86607044Y-128624146D01*
X86304732Y-128422147D01*
X86304727Y-128422144D01*
X86304720Y-128422140D01*
X85984083Y-128250756D01*
X85984078Y-128250754D01*
X85648165Y-128111614D01*
X85300223Y-128006067D01*
X85300212Y-128006064D01*
X84943630Y-127935137D01*
X84671111Y-127908296D01*
X84581794Y-127899500D01*
X84218206Y-127899500D01*
X84135679Y-127907628D01*
X83856369Y-127935137D01*
X83499787Y-128006064D01*
X83499776Y-128006067D01*
X83151834Y-128111614D01*
X82815921Y-128250754D01*
X82815916Y-128250756D01*
X82495279Y-128422140D01*
X82495261Y-128422151D01*
X82192964Y-128624140D01*
X82192950Y-128624150D01*
X81911893Y-128854807D01*
X81654807Y-129111893D01*
X81424150Y-129392950D01*
X81424140Y-129392964D01*
X81222151Y-129695261D01*
X81222140Y-129695279D01*
X81050756Y-130015916D01*
X81050754Y-130015921D01*
X80911614Y-130351834D01*
X80806067Y-130699776D01*
X80806064Y-130699787D01*
X80746117Y-131001171D01*
X80713733Y-131063082D01*
X80653017Y-131097656D01*
X80583247Y-131093917D01*
X80526575Y-131053051D01*
X80500994Y-130988033D01*
X80500500Y-130976980D01*
X80500500Y-117179999D01*
X81408384Y-117179999D01*
X81408385Y-117180000D01*
X82166816Y-117180000D01*
X82162421Y-117184395D01*
X82109760Y-117275606D01*
X82082501Y-117377339D01*
X82082501Y-117482661D01*
X82109760Y-117584394D01*
X82162421Y-117675605D01*
X82166816Y-117680000D01*
X81408385Y-117680000D01*
X81409585Y-117687584D01*
X81463091Y-117852255D01*
X81541695Y-118006524D01*
X81643467Y-118146602D01*
X81765897Y-118269032D01*
X81905975Y-118370804D01*
X82060242Y-118449408D01*
X82224915Y-118502914D01*
X82395929Y-118530000D01*
X82532500Y-118530000D01*
X82532500Y-117829999D01*
X83032500Y-117829999D01*
X83032500Y-118530000D01*
X83169071Y-118530000D01*
X83340084Y-118502914D01*
X83504757Y-118449408D01*
X83659024Y-118370804D01*
X83799102Y-118269032D01*
X83921532Y-118146602D01*
X84023304Y-118006524D01*
X84101908Y-117852255D01*
X84155414Y-117687584D01*
X84156615Y-117680000D01*
X83398184Y-117680000D01*
X83402579Y-117675605D01*
X83455240Y-117584394D01*
X83482499Y-117482661D01*
X83482499Y-117377339D01*
X83455240Y-117275606D01*
X83402579Y-117184395D01*
X83398184Y-117180000D01*
X84156615Y-117180000D01*
X84156615Y-117179999D01*
X85488384Y-117179999D01*
X85488385Y-117180000D01*
X86246829Y-117180000D01*
X86242434Y-117184395D01*
X86189773Y-117275606D01*
X86162514Y-117377339D01*
X86162514Y-117482661D01*
X86189773Y-117584394D01*
X86242434Y-117675605D01*
X86246829Y-117680000D01*
X85488385Y-117680000D01*
X85489585Y-117687584D01*
X85543091Y-117852255D01*
X85621695Y-118006524D01*
X85723467Y-118146602D01*
X85845897Y-118269032D01*
X85985975Y-118370804D01*
X86140242Y-118449408D01*
X86304915Y-118502914D01*
X86475929Y-118530000D01*
X86712500Y-118530000D01*
X86712500Y-117829999D01*
X87212500Y-117829999D01*
X87212500Y-118530000D01*
X87449071Y-118530000D01*
X87620084Y-118502914D01*
X87784757Y-118449408D01*
X87939024Y-118370804D01*
X88079102Y-118269032D01*
X88201532Y-118146602D01*
X88303304Y-118006524D01*
X88381908Y-117852255D01*
X88435414Y-117687584D01*
X88436615Y-117680000D01*
X87678171Y-117680000D01*
X87682566Y-117675605D01*
X87735227Y-117584394D01*
X87762486Y-117482661D01*
X87762486Y-117377339D01*
X87735227Y-117275606D01*
X87682566Y-117184395D01*
X87678171Y-117180000D01*
X88436615Y-117180000D01*
X88436615Y-117179999D01*
X88435414Y-117172415D01*
X88381908Y-117007744D01*
X88303304Y-116853475D01*
X88201532Y-116713397D01*
X88079102Y-116590967D01*
X87939024Y-116489195D01*
X87784757Y-116410591D01*
X87620084Y-116357085D01*
X87449071Y-116330000D01*
X87440606Y-116330000D01*
X87373567Y-116310315D01*
X87327812Y-116257511D01*
X87317868Y-116188353D01*
X87318989Y-116181809D01*
X87337999Y-116086233D01*
X87338000Y-116086231D01*
X87338000Y-115913768D01*
X87337999Y-115913766D01*
X87304355Y-115744626D01*
X87289763Y-115709397D01*
X87238361Y-115585301D01*
X87238354Y-115585288D01*
X87142545Y-115441901D01*
X87142542Y-115441897D01*
X87020602Y-115319957D01*
X87020598Y-115319954D01*
X86877211Y-115224145D01*
X86877198Y-115224138D01*
X86717878Y-115158146D01*
X86717866Y-115158143D01*
X86548732Y-115124500D01*
X86548729Y-115124500D01*
X86376271Y-115124500D01*
X86376268Y-115124500D01*
X86207133Y-115158143D01*
X86207121Y-115158146D01*
X86047801Y-115224138D01*
X86047788Y-115224145D01*
X85904401Y-115319954D01*
X85904397Y-115319957D01*
X85782457Y-115441897D01*
X85782454Y-115441901D01*
X85686645Y-115585288D01*
X85686638Y-115585301D01*
X85620646Y-115744621D01*
X85620643Y-115744633D01*
X85587000Y-115913766D01*
X85587000Y-116086233D01*
X85620643Y-116255366D01*
X85620646Y-116255378D01*
X85686638Y-116414698D01*
X85686645Y-116414711D01*
X85764493Y-116531218D01*
X85785371Y-116597896D01*
X85766886Y-116665276D01*
X85749075Y-116687787D01*
X85723472Y-116713391D01*
X85723466Y-116713398D01*
X85621698Y-116853471D01*
X85543091Y-117007744D01*
X85489585Y-117172415D01*
X85488384Y-117179999D01*
X84156615Y-117179999D01*
X84155414Y-117172415D01*
X84101908Y-117007744D01*
X84023304Y-116853475D01*
X83921532Y-116713397D01*
X83799102Y-116590967D01*
X83659024Y-116489195D01*
X83504757Y-116410591D01*
X83340084Y-116357085D01*
X83169071Y-116330000D01*
X83032500Y-116330000D01*
X83032500Y-117030001D01*
X82532500Y-117030001D01*
X82532500Y-116330000D01*
X82395929Y-116330000D01*
X82224915Y-116357085D01*
X82060242Y-116410591D01*
X81905975Y-116489195D01*
X81765897Y-116590967D01*
X81643467Y-116713397D01*
X81541695Y-116853475D01*
X81463091Y-117007744D01*
X81409585Y-117172415D01*
X81408384Y-117179999D01*
X80500500Y-117179999D01*
X80500500Y-108519999D01*
X81408384Y-108519999D01*
X81408385Y-108520000D01*
X82166816Y-108520000D01*
X82162421Y-108524395D01*
X82109760Y-108615606D01*
X82082501Y-108717339D01*
X82082501Y-108822661D01*
X82109760Y-108924394D01*
X82162421Y-109015605D01*
X82166816Y-109020000D01*
X81408385Y-109020000D01*
X81409585Y-109027584D01*
X81463091Y-109192255D01*
X81541695Y-109346524D01*
X81643467Y-109486602D01*
X81765897Y-109609032D01*
X81905975Y-109710804D01*
X82060242Y-109789408D01*
X82224915Y-109842914D01*
X82395929Y-109870000D01*
X82532500Y-109870000D01*
X82532500Y-109169999D01*
X83032500Y-109169999D01*
X83032500Y-109870000D01*
X83169071Y-109870000D01*
X83340084Y-109842914D01*
X83504757Y-109789408D01*
X83659024Y-109710804D01*
X83799102Y-109609032D01*
X83921532Y-109486602D01*
X84023304Y-109346524D01*
X84101908Y-109192255D01*
X84155414Y-109027584D01*
X84156615Y-109020000D01*
X83398184Y-109020000D01*
X83402579Y-109015605D01*
X83455240Y-108924394D01*
X83482499Y-108822661D01*
X83482499Y-108717339D01*
X83455240Y-108615606D01*
X83402579Y-108524395D01*
X83398184Y-108520000D01*
X84156615Y-108520000D01*
X84156615Y-108519999D01*
X85488384Y-108519999D01*
X85488385Y-108520000D01*
X86246804Y-108520000D01*
X86242409Y-108524395D01*
X86189748Y-108615606D01*
X86162489Y-108717339D01*
X86162489Y-108822661D01*
X86189748Y-108924394D01*
X86242409Y-109015605D01*
X86246804Y-109020000D01*
X85488385Y-109020000D01*
X85489585Y-109027584D01*
X85543091Y-109192255D01*
X85621695Y-109346524D01*
X85723467Y-109486602D01*
X85749073Y-109512208D01*
X85782558Y-109573531D01*
X85777574Y-109643223D01*
X85764494Y-109668780D01*
X85686645Y-109785288D01*
X85686638Y-109785301D01*
X85620646Y-109944621D01*
X85620643Y-109944633D01*
X85587000Y-110113766D01*
X85587000Y-110286233D01*
X85620643Y-110455366D01*
X85620646Y-110455378D01*
X85686638Y-110614698D01*
X85686645Y-110614711D01*
X85782454Y-110758098D01*
X85782457Y-110758102D01*
X85904397Y-110880042D01*
X85904401Y-110880045D01*
X86047788Y-110975854D01*
X86047801Y-110975861D01*
X86195318Y-111036964D01*
X86207126Y-111041855D01*
X86333358Y-111066964D01*
X86376266Y-111075499D01*
X86376269Y-111075500D01*
X86376271Y-111075500D01*
X86548731Y-111075500D01*
X86548732Y-111075499D01*
X86717874Y-111041855D01*
X86877205Y-110975858D01*
X87020599Y-110880045D01*
X87142545Y-110758099D01*
X87238358Y-110614705D01*
X87304355Y-110455374D01*
X87338000Y-110286229D01*
X87338000Y-110113771D01*
X87338000Y-110113768D01*
X87337999Y-110113766D01*
X87318989Y-110018191D01*
X87325216Y-109948599D01*
X87368080Y-109893422D01*
X87433969Y-109870178D01*
X87440606Y-109870000D01*
X87449071Y-109870000D01*
X87620084Y-109842914D01*
X87784757Y-109789408D01*
X87939024Y-109710804D01*
X88079102Y-109609032D01*
X88201532Y-109486602D01*
X88303304Y-109346524D01*
X88381908Y-109192255D01*
X88435414Y-109027584D01*
X88436615Y-109020000D01*
X87678196Y-109020000D01*
X87682591Y-109015605D01*
X87735252Y-108924394D01*
X87762511Y-108822661D01*
X87762511Y-108717339D01*
X87735252Y-108615606D01*
X87682591Y-108524395D01*
X87678196Y-108520000D01*
X88436615Y-108520000D01*
X88436615Y-108519999D01*
X88435414Y-108512415D01*
X88381908Y-108347744D01*
X88303304Y-108193475D01*
X88232355Y-108095821D01*
X88232354Y-108095818D01*
X88201538Y-108053404D01*
X88201534Y-108053399D01*
X88079102Y-107930967D01*
X87939024Y-107829195D01*
X87784755Y-107750591D01*
X87675203Y-107714995D01*
X87675202Y-107714995D01*
X87620084Y-107697085D01*
X87449071Y-107670000D01*
X87212500Y-107670000D01*
X87212500Y-108370001D01*
X86712500Y-108370001D01*
X86712500Y-107670000D01*
X86475929Y-107670000D01*
X86304915Y-107697085D01*
X86140242Y-107750591D01*
X85985975Y-107829195D01*
X85845897Y-107930967D01*
X85723467Y-108053397D01*
X85621695Y-108193475D01*
X85543091Y-108347744D01*
X85489585Y-108512415D01*
X85488384Y-108519999D01*
X84156615Y-108519999D01*
X84155414Y-108512415D01*
X84101908Y-108347744D01*
X84023304Y-108193475D01*
X83921532Y-108053397D01*
X83799102Y-107930967D01*
X83659024Y-107829195D01*
X83504757Y-107750591D01*
X83340084Y-107697085D01*
X83169071Y-107670000D01*
X83032500Y-107670000D01*
X83032500Y-108370001D01*
X82532500Y-108370001D01*
X82532500Y-107670000D01*
X82395929Y-107670000D01*
X82224915Y-107697085D01*
X82060242Y-107750591D01*
X81905975Y-107829195D01*
X81765897Y-107930967D01*
X81643467Y-108053397D01*
X81541695Y-108193475D01*
X81463091Y-108347744D01*
X81409585Y-108512415D01*
X81408384Y-108519999D01*
X80500500Y-108519999D01*
X80500500Y-107560000D01*
X88984016Y-107560000D01*
X89934825Y-107560000D01*
X89890772Y-107636302D01*
X89860104Y-107750755D01*
X89860104Y-107869245D01*
X89890772Y-107983698D01*
X89934825Y-108060000D01*
X88984016Y-108060000D01*
X88990781Y-108102716D01*
X89051581Y-108289837D01*
X89140904Y-108465143D01*
X89256555Y-108624321D01*
X89395678Y-108763444D01*
X89554856Y-108879095D01*
X89730164Y-108968418D01*
X89917294Y-109029221D01*
X90111618Y-109060000D01*
X90910000Y-109060000D01*
X90910000Y-108260012D01*
X91410000Y-108260012D01*
X91410000Y-109060000D01*
X92208382Y-109060000D01*
X92402705Y-109029221D01*
X92589835Y-108968418D01*
X92765143Y-108879095D01*
X92924321Y-108763444D01*
X93063444Y-108624321D01*
X93179095Y-108465143D01*
X93268418Y-108289837D01*
X93329218Y-108102716D01*
X93335984Y-108060000D01*
X92385175Y-108060000D01*
X92429228Y-107983698D01*
X92459896Y-107869245D01*
X92459896Y-107750755D01*
X92429228Y-107636302D01*
X92385175Y-107560000D01*
X93335984Y-107560000D01*
X93329218Y-107517283D01*
X93268418Y-107330162D01*
X93179095Y-107154856D01*
X93063444Y-106995678D01*
X92924321Y-106856555D01*
X92765143Y-106740904D01*
X92589835Y-106651581D01*
X92402705Y-106590778D01*
X92208382Y-106560000D01*
X91410000Y-106560000D01*
X91410000Y-107359988D01*
X90910000Y-107359988D01*
X90910000Y-106560000D01*
X90111618Y-106560000D01*
X89917294Y-106590778D01*
X89730164Y-106651581D01*
X89554856Y-106740904D01*
X89395678Y-106856555D01*
X89256555Y-106995678D01*
X89140904Y-107154856D01*
X89051581Y-107330162D01*
X88990781Y-107517283D01*
X88984016Y-107560000D01*
X80500500Y-107560000D01*
X80500500Y-101901617D01*
X86410000Y-101901617D01*
X86410000Y-102900000D01*
X87209988Y-102900000D01*
X87209988Y-103400000D01*
X86410000Y-103400000D01*
X86410000Y-104398382D01*
X86440778Y-104592705D01*
X86501581Y-104779835D01*
X86590904Y-104955143D01*
X86706555Y-105114321D01*
X86845678Y-105253444D01*
X87004856Y-105369095D01*
X87180162Y-105458418D01*
X87367283Y-105519218D01*
X87410000Y-105525984D01*
X87410000Y-104625365D01*
X87486302Y-104669418D01*
X87600755Y-104700086D01*
X87719245Y-104700086D01*
X87833698Y-104669418D01*
X87910000Y-104625365D01*
X87910000Y-105525983D01*
X87952716Y-105519218D01*
X88139837Y-105458418D01*
X88315143Y-105369095D01*
X88474321Y-105253444D01*
X88613444Y-105114321D01*
X88729095Y-104955143D01*
X88818418Y-104779835D01*
X88879221Y-104592705D01*
X88910000Y-104398382D01*
X88910000Y-103400000D01*
X88110012Y-103400000D01*
X88110012Y-102900000D01*
X88910000Y-102900000D01*
X88910000Y-101901617D01*
X88909994Y-101901577D01*
X92409500Y-101901577D01*
X92409500Y-104398422D01*
X92440290Y-104592826D01*
X92501117Y-104780029D01*
X92586100Y-104946816D01*
X92590476Y-104955405D01*
X92706172Y-105114646D01*
X92845354Y-105253828D01*
X93004595Y-105369524D01*
X93046289Y-105390768D01*
X93179970Y-105458882D01*
X93179972Y-105458882D01*
X93179975Y-105458884D01*
X93280317Y-105491487D01*
X93367173Y-105519709D01*
X93561578Y-105550500D01*
X93561583Y-105550500D01*
X93758422Y-105550500D01*
X93952826Y-105519709D01*
X93972551Y-105513300D01*
X94140025Y-105458884D01*
X94315405Y-105369524D01*
X94474646Y-105253828D01*
X94613828Y-105114646D01*
X94729524Y-104955405D01*
X94818884Y-104780025D01*
X94879709Y-104592826D01*
X94892923Y-104509397D01*
X94910500Y-104398422D01*
X94910500Y-101901577D01*
X94879709Y-101707173D01*
X94818882Y-101519970D01*
X94742333Y-101369735D01*
X94729524Y-101344595D01*
X94613828Y-101185354D01*
X94474646Y-101046172D01*
X94315405Y-100930476D01*
X94272312Y-100908519D01*
X94140029Y-100841117D01*
X93952826Y-100780290D01*
X93758422Y-100749500D01*
X93758417Y-100749500D01*
X93561583Y-100749500D01*
X93561578Y-100749500D01*
X93367173Y-100780290D01*
X93179970Y-100841117D01*
X93004594Y-100930476D01*
X92937571Y-100979172D01*
X92845354Y-101046172D01*
X92845352Y-101046174D01*
X92845351Y-101046174D01*
X92706174Y-101185351D01*
X92706174Y-101185352D01*
X92706172Y-101185354D01*
X92656485Y-101253741D01*
X92590476Y-101344594D01*
X92501117Y-101519970D01*
X92440290Y-101707173D01*
X92409500Y-101901577D01*
X88909994Y-101901577D01*
X88879221Y-101707294D01*
X88818418Y-101520164D01*
X88729095Y-101344856D01*
X88613444Y-101185678D01*
X88474321Y-101046555D01*
X88315143Y-100930904D01*
X88139835Y-100841581D01*
X87952705Y-100780778D01*
X87910000Y-100774014D01*
X87910000Y-101674634D01*
X87833698Y-101630582D01*
X87719245Y-101599914D01*
X87600755Y-101599914D01*
X87486302Y-101630582D01*
X87410000Y-101674634D01*
X87410000Y-100774014D01*
X87409999Y-100774014D01*
X87367294Y-100780778D01*
X87180164Y-100841581D01*
X87004856Y-100930904D01*
X86845678Y-101046555D01*
X86706555Y-101185678D01*
X86590904Y-101344856D01*
X86501581Y-101520164D01*
X86440778Y-101707294D01*
X86410000Y-101901617D01*
X80500500Y-101901617D01*
X80500500Y-95024071D01*
X82260000Y-95024071D01*
X82260000Y-95275928D01*
X82299397Y-95524669D01*
X82377219Y-95764184D01*
X82491557Y-95988583D01*
X82565748Y-96090697D01*
X82565748Y-96090698D01*
X83220690Y-95435755D01*
X83239669Y-95481574D01*
X83316275Y-95596223D01*
X83413777Y-95693725D01*
X83528426Y-95770331D01*
X83574243Y-95789308D01*
X82919300Y-96444250D01*
X83021416Y-96518442D01*
X83245815Y-96632780D01*
X83485330Y-96710602D01*
X83734072Y-96750000D01*
X83985928Y-96750000D01*
X84234669Y-96710602D01*
X84474184Y-96632780D01*
X84698575Y-96518446D01*
X84698581Y-96518442D01*
X84800697Y-96444250D01*
X84800698Y-96444250D01*
X84145756Y-95789309D01*
X84191574Y-95770331D01*
X84306223Y-95693725D01*
X84403725Y-95596223D01*
X84480331Y-95481574D01*
X84499308Y-95435756D01*
X85154250Y-96090698D01*
X85154250Y-96090697D01*
X85228442Y-95988581D01*
X85228446Y-95988575D01*
X85342780Y-95764184D01*
X85420602Y-95524669D01*
X85460000Y-95275928D01*
X85460000Y-95024071D01*
X85420602Y-94775330D01*
X85342780Y-94535815D01*
X85228442Y-94311416D01*
X85154250Y-94209301D01*
X85154250Y-94209300D01*
X84499308Y-94864242D01*
X84480331Y-94818426D01*
X84403725Y-94703777D01*
X84306223Y-94606275D01*
X84191574Y-94529669D01*
X84145754Y-94510690D01*
X84800698Y-93855748D01*
X84698583Y-93781557D01*
X84474184Y-93667219D01*
X84234669Y-93589397D01*
X83985928Y-93550000D01*
X83734072Y-93550000D01*
X83485330Y-93589397D01*
X83245815Y-93667219D01*
X83021413Y-93781559D01*
X82919301Y-93855747D01*
X82919300Y-93855748D01*
X83574243Y-94510690D01*
X83528426Y-94529669D01*
X83413777Y-94606275D01*
X83316275Y-94703777D01*
X83239669Y-94818426D01*
X83220690Y-94864243D01*
X82565748Y-94209300D01*
X82565747Y-94209301D01*
X82491559Y-94311413D01*
X82377219Y-94535815D01*
X82299397Y-94775330D01*
X82260000Y-95024071D01*
X80500500Y-95024071D01*
X80500500Y-90024038D01*
X82259500Y-90024038D01*
X82259500Y-90275961D01*
X82298910Y-90524785D01*
X82376760Y-90764383D01*
X82455413Y-90918747D01*
X82468092Y-90943631D01*
X82491132Y-90988848D01*
X82639201Y-91192649D01*
X82639205Y-91192654D01*
X82817345Y-91370794D01*
X82817350Y-91370798D01*
X82971784Y-91483000D01*
X83021155Y-91518870D01*
X83164184Y-91591747D01*
X83245616Y-91633239D01*
X83245618Y-91633239D01*
X83245621Y-91633241D01*
X83485215Y-91711090D01*
X83734038Y-91750500D01*
X83734039Y-91750500D01*
X83985961Y-91750500D01*
X83985962Y-91750500D01*
X84234785Y-91711090D01*
X84474379Y-91633241D01*
X84698845Y-91518870D01*
X84902656Y-91370793D01*
X85080793Y-91192656D01*
X85228870Y-90988845D01*
X85343241Y-90764379D01*
X85421090Y-90524785D01*
X85460500Y-90275962D01*
X85460500Y-90024038D01*
X85421090Y-89775215D01*
X85343241Y-89535621D01*
X85343239Y-89535618D01*
X85343239Y-89535616D01*
X85301747Y-89454184D01*
X85228870Y-89311155D01*
X85197600Y-89268116D01*
X85080798Y-89107350D01*
X85080794Y-89107345D01*
X84902654Y-88929205D01*
X84902649Y-88929201D01*
X84698848Y-88781132D01*
X84698847Y-88781131D01*
X84698845Y-88781130D01*
X84614790Y-88738302D01*
X84474383Y-88666760D01*
X84234785Y-88588910D01*
X83985962Y-88549500D01*
X83734038Y-88549500D01*
X83609626Y-88569205D01*
X83485214Y-88588910D01*
X83245616Y-88666760D01*
X83021151Y-88781132D01*
X82817350Y-88929201D01*
X82817345Y-88929205D01*
X82639205Y-89107345D01*
X82639201Y-89107350D01*
X82491132Y-89311151D01*
X82376760Y-89535616D01*
X82298910Y-89775214D01*
X82259500Y-90024038D01*
X80500500Y-90024038D01*
X80500500Y-88004427D01*
X80500816Y-87995581D01*
X80506801Y-87911899D01*
X80515131Y-87795434D01*
X80517646Y-87777938D01*
X80559356Y-87586199D01*
X80564333Y-87569248D01*
X80632911Y-87385385D01*
X80640259Y-87369298D01*
X80734291Y-87197089D01*
X80743845Y-87182221D01*
X80861448Y-87025123D01*
X80873020Y-87011769D01*
X81011769Y-86873020D01*
X81025123Y-86861448D01*
X81182221Y-86743845D01*
X81197089Y-86734291D01*
X81369298Y-86640258D01*
X81385385Y-86632911D01*
X81569248Y-86564333D01*
X81586199Y-86559356D01*
X81777938Y-86517646D01*
X81795436Y-86515130D01*
X81995582Y-86500816D01*
X82004428Y-86500500D01*
X82065892Y-86500500D01*
X92376981Y-86500500D01*
X92444020Y-86520185D01*
G37*
%TD.AperFunction*%
%TA.AperFunction,Conductor*%
G36*
X151624520Y-97219185D02*
G01*
X151645162Y-97235819D01*
X152685964Y-98276621D01*
X152719449Y-98337944D01*
X152714465Y-98407636D01*
X152672593Y-98463569D01*
X152607129Y-98487986D01*
X152550831Y-98478863D01*
X152433501Y-98430264D01*
X152433489Y-98430261D01*
X152278845Y-98399500D01*
X152278842Y-98399500D01*
X152121158Y-98399500D01*
X152121155Y-98399500D01*
X151966510Y-98430261D01*
X151966498Y-98430264D01*
X151820827Y-98490602D01*
X151820814Y-98490609D01*
X151689711Y-98578210D01*
X151689707Y-98578213D01*
X151578213Y-98689707D01*
X151578210Y-98689711D01*
X151490609Y-98820814D01*
X151490602Y-98820827D01*
X151430264Y-98966498D01*
X151430261Y-98966510D01*
X151399500Y-99121153D01*
X151399500Y-99218989D01*
X151379815Y-99286028D01*
X151327011Y-99331783D01*
X151257853Y-99341727D01*
X151194297Y-99312702D01*
X151172398Y-99287880D01*
X151126997Y-99219933D01*
X151126994Y-99219929D01*
X151015500Y-99108435D01*
X151015496Y-99108432D01*
X150884393Y-99020831D01*
X150884380Y-99020824D01*
X150738709Y-98960486D01*
X150738697Y-98960483D01*
X150584056Y-98929722D01*
X150583441Y-98929662D01*
X150582935Y-98929499D01*
X150578076Y-98928533D01*
X150578187Y-98927973D01*
X150573381Y-98926429D01*
X150566365Y-98926764D01*
X150533599Y-98913647D01*
X150521256Y-98906521D01*
X150433553Y-98855886D01*
X150406771Y-98840423D01*
X150406770Y-98840422D01*
X150406769Y-98840422D01*
X150337229Y-98821789D01*
X150254043Y-98799499D01*
X150095929Y-98799499D01*
X150088333Y-98799499D01*
X150088317Y-98799500D01*
X144793139Y-98799500D01*
X144793123Y-98799499D01*
X144785527Y-98799499D01*
X144627413Y-98799499D01*
X144474685Y-98840423D01*
X144474684Y-98840423D01*
X144474682Y-98840424D01*
X144447904Y-98855885D01*
X144447903Y-98855886D01*
X144392828Y-98887683D01*
X144337755Y-98919479D01*
X144337752Y-98919481D01*
X144225948Y-99031286D01*
X140985332Y-102271901D01*
X140924009Y-102305386D01*
X140854317Y-102300402D01*
X140809970Y-102271901D01*
X140710292Y-102172223D01*
X140710288Y-102172220D01*
X140579185Y-102084619D01*
X140579172Y-102084612D01*
X140433501Y-102024274D01*
X140433491Y-102024271D01*
X140300308Y-101997779D01*
X140238397Y-101965394D01*
X140203823Y-101904678D01*
X140200500Y-101876162D01*
X140200500Y-98517847D01*
X140220185Y-98450808D01*
X140272989Y-98405053D01*
X140300309Y-98396230D01*
X140316291Y-98393050D01*
X140433497Y-98369737D01*
X140579179Y-98309394D01*
X140710289Y-98221789D01*
X140821789Y-98110289D01*
X140909394Y-97979179D01*
X140969737Y-97833497D01*
X141000500Y-97678842D01*
X141000500Y-97521158D01*
X141000500Y-97521155D01*
X141000499Y-97521153D01*
X140982419Y-97430261D01*
X140969737Y-97366503D01*
X140969732Y-97366492D01*
X140967969Y-97360676D01*
X140970396Y-97359939D01*
X140964110Y-97301488D01*
X140995383Y-97239008D01*
X141055470Y-97203353D01*
X141086141Y-97199500D01*
X151557481Y-97199500D01*
X151624520Y-97219185D01*
G37*
%TD.AperFunction*%
%TD*%
%TA.AperFunction,Conductor*%
%TO.N,GND*%
G36*
X92444020Y-34520185D02*
G01*
X92489775Y-34572989D01*
X92499719Y-34642147D01*
X92470694Y-34705703D01*
X92411916Y-34743477D01*
X92401172Y-34746117D01*
X92099787Y-34806064D01*
X92099776Y-34806067D01*
X91751834Y-34911614D01*
X91415921Y-35050754D01*
X91415916Y-35050756D01*
X91095279Y-35222140D01*
X91095261Y-35222151D01*
X90792964Y-35424140D01*
X90792950Y-35424150D01*
X90511893Y-35654807D01*
X90254807Y-35911893D01*
X90024150Y-36192950D01*
X90024140Y-36192964D01*
X89822151Y-36495261D01*
X89822140Y-36495279D01*
X89650756Y-36815916D01*
X89650754Y-36815921D01*
X89511614Y-37151834D01*
X89406067Y-37499776D01*
X89406064Y-37499787D01*
X89335137Y-37856369D01*
X89299500Y-38218209D01*
X89299500Y-38581790D01*
X89335137Y-38943630D01*
X89406064Y-39300212D01*
X89406067Y-39300223D01*
X89406069Y-39300232D01*
X89406070Y-39300233D01*
X89415345Y-39330808D01*
X89511614Y-39648165D01*
X89650754Y-39984078D01*
X89650756Y-39984083D01*
X89822140Y-40304720D01*
X89822151Y-40304738D01*
X90024140Y-40607035D01*
X90024150Y-40607049D01*
X90254807Y-40888106D01*
X90511893Y-41145192D01*
X90511898Y-41145196D01*
X90511899Y-41145197D01*
X90792956Y-41375854D01*
X91095268Y-41577853D01*
X91095277Y-41577858D01*
X91095279Y-41577859D01*
X91415916Y-41749243D01*
X91415918Y-41749243D01*
X91415924Y-41749247D01*
X91751836Y-41888386D01*
X92099767Y-41993930D01*
X92099773Y-41993931D01*
X92099776Y-41993932D01*
X92099787Y-41993935D01*
X92456369Y-42064862D01*
X92818206Y-42100500D01*
X92818209Y-42100500D01*
X93181791Y-42100500D01*
X93181794Y-42100500D01*
X93543631Y-42064862D01*
X93613045Y-42051054D01*
X93900212Y-41993935D01*
X93900223Y-41993932D01*
X93900223Y-41993931D01*
X93900233Y-41993930D01*
X94248164Y-41888386D01*
X94584076Y-41749247D01*
X94840913Y-41611965D01*
X94909316Y-41597723D01*
X94974559Y-41622723D01*
X95015930Y-41679028D01*
X95020292Y-41748761D01*
X95010922Y-41775465D01*
X94979949Y-41839280D01*
X94976563Y-41846401D01*
X94934959Y-41984146D01*
X94934958Y-41984150D01*
X94900169Y-42213522D01*
X94898059Y-42238143D01*
X94893118Y-42252282D01*
X94892931Y-42264332D01*
X94878918Y-42292922D01*
X94877772Y-42296205D01*
X94876946Y-42297445D01*
X94826061Y-42370214D01*
X94817833Y-42382352D01*
X94811461Y-42395940D01*
X94806357Y-42403618D01*
X94786366Y-42420402D01*
X94769072Y-42439956D01*
X94758380Y-42443900D01*
X94752848Y-42448546D01*
X94742042Y-42449928D01*
X94721125Y-42457646D01*
X94659860Y-42466649D01*
X94641832Y-42467967D01*
X94363394Y-42467967D01*
X94362535Y-42467968D01*
X94220154Y-42488685D01*
X94220153Y-42488686D01*
X94089375Y-42548679D01*
X93980804Y-42643079D01*
X93980799Y-42643085D01*
X93903219Y-42764254D01*
X93903219Y-42764255D01*
X93862918Y-42902377D01*
X93863161Y-43046259D01*
X93863162Y-43046260D01*
X93903932Y-43184238D01*
X93903933Y-43184241D01*
X93981926Y-43305148D01*
X94154436Y-43503553D01*
X94155473Y-43504745D01*
X94160425Y-43510354D01*
X94160443Y-43510374D01*
X94169791Y-43520805D01*
X94241515Y-43586766D01*
X94399929Y-43706453D01*
X94405246Y-43710416D01*
X94462128Y-43740837D01*
X94532114Y-43778268D01*
X94532117Y-43778269D01*
X94532121Y-43778271D01*
X94639337Y-43817203D01*
X94695632Y-43858587D01*
X94706239Y-43875055D01*
X94716868Y-43894833D01*
X94833196Y-44052879D01*
X94841741Y-44064155D01*
X94902959Y-44142636D01*
X94915930Y-44163119D01*
X94917417Y-44166071D01*
X94937001Y-44210736D01*
X94939387Y-44209689D01*
X94962009Y-44254598D01*
X94962128Y-44255248D01*
X94963265Y-44257165D01*
X94978910Y-44290092D01*
X94978912Y-44290096D01*
X95032642Y-44370981D01*
X95073576Y-44418869D01*
X95111879Y-44463680D01*
X95230637Y-44544896D01*
X95230640Y-44544897D01*
X95230643Y-44544899D01*
X95367478Y-44589368D01*
X95492825Y-44592956D01*
X95511295Y-44593485D01*
X95511295Y-44593484D01*
X95511300Y-44593485D01*
X95643373Y-44578339D01*
X95699666Y-44568635D01*
X95833807Y-44516600D01*
X96007365Y-44418870D01*
X96104856Y-44347383D01*
X96280970Y-44182466D01*
X96281619Y-44181865D01*
X96402426Y-44070876D01*
X96447459Y-44044435D01*
X96503288Y-44026013D01*
X96520038Y-44021756D01*
X96617921Y-44004036D01*
X96667558Y-43992438D01*
X96798770Y-43933405D01*
X96908035Y-43839796D01*
X96977369Y-43760683D01*
X97035054Y-43680130D01*
X97088490Y-43546541D01*
X97102124Y-43403308D01*
X97074853Y-43262036D01*
X97059925Y-43218944D01*
X97040668Y-43163358D01*
X97040665Y-43163350D01*
X96976608Y-43038185D01*
X96976605Y-43038179D01*
X96866142Y-42880991D01*
X96812062Y-42816273D01*
X96675089Y-42677703D01*
X96670144Y-42672769D01*
X96670140Y-42672765D01*
X96597128Y-42619018D01*
X96554809Y-42563423D01*
X96552762Y-42557642D01*
X96520115Y-42457646D01*
X96465830Y-42291369D01*
X96454954Y-42261313D01*
X96332633Y-41953997D01*
X96332630Y-41953990D01*
X96317415Y-41919556D01*
X96259590Y-41800863D01*
X96200751Y-41680088D01*
X96176187Y-41635516D01*
X96137966Y-41573740D01*
X96107284Y-41531957D01*
X96090548Y-41509164D01*
X95981926Y-41414799D01*
X95921487Y-41375849D01*
X95908590Y-41367537D01*
X95908580Y-41367531D01*
X95908578Y-41367529D01*
X95867060Y-41343483D01*
X95731165Y-41296220D01*
X95634933Y-41291491D01*
X95568941Y-41268539D01*
X95525833Y-41213552D01*
X95519296Y-41143989D01*
X95551406Y-41081935D01*
X95553339Y-41079959D01*
X95745192Y-40888106D01*
X95745197Y-40888101D01*
X95975854Y-40607044D01*
X96177853Y-40304732D01*
X96349247Y-39984076D01*
X96488386Y-39648164D01*
X96593930Y-39300233D01*
X96593932Y-39300223D01*
X96593935Y-39300212D01*
X96664862Y-38943630D01*
X96700500Y-38581790D01*
X96700500Y-38218209D01*
X96664862Y-37856369D01*
X96593935Y-37499787D01*
X96593932Y-37499776D01*
X96593931Y-37499773D01*
X96593930Y-37499767D01*
X96488386Y-37151836D01*
X96349247Y-36815924D01*
X96330650Y-36781132D01*
X96177859Y-36495279D01*
X96177858Y-36495277D01*
X96177853Y-36495268D01*
X95975854Y-36192956D01*
X95745197Y-35911899D01*
X95745196Y-35911898D01*
X95745192Y-35911893D01*
X95739678Y-35906379D01*
X107649500Y-35906379D01*
X107649500Y-36093620D01*
X107686025Y-36277243D01*
X107686027Y-36277251D01*
X107757676Y-36450228D01*
X107757681Y-36450237D01*
X107861697Y-36605907D01*
X107861700Y-36605911D01*
X107994088Y-36738299D01*
X107994092Y-36738302D01*
X108149762Y-36842318D01*
X108149768Y-36842321D01*
X108149769Y-36842322D01*
X108322749Y-36913973D01*
X108506379Y-36950499D01*
X108506383Y-36950500D01*
X108506384Y-36950500D01*
X108693617Y-36950500D01*
X108693618Y-36950499D01*
X108877251Y-36913973D01*
X109050231Y-36842322D01*
X109205908Y-36738302D01*
X109338302Y-36605908D01*
X109442322Y-36450231D01*
X109513973Y-36277251D01*
X109550500Y-36093616D01*
X109550500Y-35906384D01*
X109550499Y-35906379D01*
X114449500Y-35906379D01*
X114449500Y-36093620D01*
X114486025Y-36277243D01*
X114486027Y-36277251D01*
X114557676Y-36450228D01*
X114557681Y-36450237D01*
X114661697Y-36605907D01*
X114661700Y-36605911D01*
X114794088Y-36738299D01*
X114794092Y-36738302D01*
X114949762Y-36842318D01*
X114949768Y-36842321D01*
X114949769Y-36842322D01*
X115122749Y-36913973D01*
X115306379Y-36950499D01*
X115306383Y-36950500D01*
X115306384Y-36950500D01*
X115493617Y-36950500D01*
X115493618Y-36950499D01*
X115677251Y-36913973D01*
X115850231Y-36842322D01*
X116005908Y-36738302D01*
X116138302Y-36605908D01*
X116242322Y-36450231D01*
X116313973Y-36277251D01*
X116350500Y-36093616D01*
X116350500Y-35906384D01*
X116313973Y-35722749D01*
X116242322Y-35549769D01*
X116242321Y-35549768D01*
X116242318Y-35549762D01*
X116138302Y-35394092D01*
X116138299Y-35394088D01*
X116005911Y-35261700D01*
X116005907Y-35261697D01*
X115850237Y-35157681D01*
X115850228Y-35157676D01*
X115677251Y-35086027D01*
X115677243Y-35086025D01*
X115493620Y-35049500D01*
X115493616Y-35049500D01*
X115306384Y-35049500D01*
X115306379Y-35049500D01*
X115122756Y-35086025D01*
X115122748Y-35086027D01*
X114949771Y-35157676D01*
X114949762Y-35157681D01*
X114794092Y-35261697D01*
X114794088Y-35261700D01*
X114661700Y-35394088D01*
X114661697Y-35394092D01*
X114557681Y-35549762D01*
X114557676Y-35549771D01*
X114486027Y-35722748D01*
X114486025Y-35722756D01*
X114449500Y-35906379D01*
X109550499Y-35906379D01*
X109513973Y-35722749D01*
X109442322Y-35549769D01*
X109442321Y-35549768D01*
X109442318Y-35549762D01*
X109338302Y-35394092D01*
X109338299Y-35394088D01*
X109205911Y-35261700D01*
X109205907Y-35261697D01*
X109050237Y-35157681D01*
X109050228Y-35157676D01*
X108877251Y-35086027D01*
X108877243Y-35086025D01*
X108693620Y-35049500D01*
X108693616Y-35049500D01*
X108506384Y-35049500D01*
X108506379Y-35049500D01*
X108322756Y-35086025D01*
X108322748Y-35086027D01*
X108149771Y-35157676D01*
X108149762Y-35157681D01*
X107994092Y-35261697D01*
X107994088Y-35261700D01*
X107861700Y-35394088D01*
X107861697Y-35394092D01*
X107757681Y-35549762D01*
X107757676Y-35549771D01*
X107686027Y-35722748D01*
X107686025Y-35722756D01*
X107649500Y-35906379D01*
X95739678Y-35906379D01*
X95488106Y-35654807D01*
X95207049Y-35424150D01*
X95207048Y-35424149D01*
X95207044Y-35424146D01*
X94904732Y-35222147D01*
X94904727Y-35222144D01*
X94904720Y-35222140D01*
X94584083Y-35050756D01*
X94584078Y-35050754D01*
X94248165Y-34911614D01*
X93900223Y-34806067D01*
X93900212Y-34806064D01*
X93598828Y-34746117D01*
X93536917Y-34713733D01*
X93502343Y-34653017D01*
X93506082Y-34583247D01*
X93546948Y-34526575D01*
X93611966Y-34500994D01*
X93623019Y-34500500D01*
X140476000Y-34500500D01*
X140543039Y-34520185D01*
X140588794Y-34572989D01*
X140600000Y-34624500D01*
X140600000Y-39855000D01*
X153800000Y-39855000D01*
X153800000Y-34984152D01*
X153806238Y-34962906D01*
X153807818Y-34940818D01*
X153815890Y-34930034D01*
X153819685Y-34917113D01*
X153836418Y-34902613D01*
X153849690Y-34884885D01*
X153862310Y-34880177D01*
X153872489Y-34871358D01*
X153894406Y-34868206D01*
X153915154Y-34860468D01*
X153928314Y-34863330D01*
X153941647Y-34861414D01*
X153961790Y-34870613D01*
X153983427Y-34875320D01*
X154001152Y-34888588D01*
X154005203Y-34890439D01*
X154011681Y-34896471D01*
X154126972Y-35011762D01*
X154138558Y-35025132D01*
X154237783Y-35157681D01*
X154256146Y-35182210D01*
X154265711Y-35197095D01*
X154359740Y-35369298D01*
X154367090Y-35385390D01*
X154435662Y-35569236D01*
X154440646Y-35586212D01*
X154482351Y-35777931D01*
X154484869Y-35795442D01*
X154499184Y-35995580D01*
X154499500Y-36004427D01*
X154499500Y-45826399D01*
X154479815Y-45893438D01*
X154427011Y-45939193D01*
X154357853Y-45949137D01*
X154294297Y-45920112D01*
X154272398Y-45895290D01*
X154245114Y-45854456D01*
X152345545Y-43954887D01*
X152230807Y-43878222D01*
X152103332Y-43825421D01*
X152103322Y-43825418D01*
X151967996Y-43798500D01*
X151967994Y-43798500D01*
X151967993Y-43798500D01*
X140240643Y-43798500D01*
X140240639Y-43798500D01*
X140132226Y-43820065D01*
X140132225Y-43820065D01*
X140105317Y-43825418D01*
X140105307Y-43825420D01*
X139977826Y-43878224D01*
X139863090Y-43954887D01*
X137255887Y-46562090D01*
X137179222Y-46676828D01*
X137126421Y-46804303D01*
X137126418Y-46804315D01*
X137103511Y-46919478D01*
X137103510Y-46919483D01*
X137099500Y-46939638D01*
X137099500Y-48174684D01*
X137090061Y-48222136D01*
X137030264Y-48366498D01*
X137030261Y-48366510D01*
X136999500Y-48521153D01*
X136999500Y-48678846D01*
X137030261Y-48833489D01*
X137030264Y-48833501D01*
X137090602Y-48979172D01*
X137090609Y-48979185D01*
X137178210Y-49110288D01*
X137178213Y-49110292D01*
X137289707Y-49221786D01*
X137289711Y-49221789D01*
X137420814Y-49309390D01*
X137420827Y-49309397D01*
X137505804Y-49344595D01*
X137566503Y-49369737D01*
X137721153Y-49400499D01*
X137721156Y-49400500D01*
X137721158Y-49400500D01*
X137878844Y-49400500D01*
X137878845Y-49400499D01*
X138033497Y-49369737D01*
X138179179Y-49309394D01*
X138310289Y-49221789D01*
X138421789Y-49110289D01*
X138509394Y-48979179D01*
X138569737Y-48833497D01*
X138600500Y-48678842D01*
X138600500Y-48521158D01*
X138600500Y-48521155D01*
X138600499Y-48521153D01*
X138595951Y-48498289D01*
X138569737Y-48366503D01*
X138551882Y-48323396D01*
X138509939Y-48222136D01*
X138500500Y-48174684D01*
X138500500Y-47350155D01*
X138520185Y-47283116D01*
X138536819Y-47262474D01*
X138787819Y-47011474D01*
X138849142Y-46977989D01*
X138918834Y-46982973D01*
X138974767Y-47024845D01*
X138999184Y-47090309D01*
X138999500Y-47099155D01*
X138999500Y-52043943D01*
X138979815Y-52110982D01*
X138927011Y-52156737D01*
X138857853Y-52166681D01*
X138794297Y-52137656D01*
X138787819Y-52131624D01*
X134359973Y-47703778D01*
X134312726Y-47672210D01*
X134281227Y-47651164D01*
X134237055Y-47621649D01*
X134237054Y-47621648D01*
X134237052Y-47621647D01*
X134237050Y-47621646D01*
X134100477Y-47565076D01*
X134100467Y-47565073D01*
X133955480Y-47536233D01*
X133955478Y-47536233D01*
X128712767Y-47536233D01*
X128665318Y-47526795D01*
X128641660Y-47516996D01*
X128641656Y-47516995D01*
X128641651Y-47516993D01*
X128487008Y-47486233D01*
X128487005Y-47486233D01*
X128329321Y-47486233D01*
X128329318Y-47486233D01*
X128174673Y-47516994D01*
X128174661Y-47516997D01*
X128028990Y-47577335D01*
X128028977Y-47577342D01*
X127897874Y-47664943D01*
X127897870Y-47664946D01*
X127786376Y-47776440D01*
X127786373Y-47776444D01*
X127698772Y-47907547D01*
X127698765Y-47907560D01*
X127638427Y-48053231D01*
X127638424Y-48053243D01*
X127607663Y-48207886D01*
X127607663Y-48365579D01*
X127638424Y-48520222D01*
X127638427Y-48520234D01*
X127698765Y-48665905D01*
X127698772Y-48665918D01*
X127786373Y-48797021D01*
X127786376Y-48797025D01*
X127897870Y-48908519D01*
X127897874Y-48908522D01*
X128028977Y-48996123D01*
X128028990Y-48996130D01*
X128174661Y-49056468D01*
X128174666Y-49056470D01*
X128329316Y-49087232D01*
X128329319Y-49087233D01*
X128329321Y-49087233D01*
X128487007Y-49087233D01*
X128487008Y-49087232D01*
X128619882Y-49060802D01*
X128641651Y-49056472D01*
X128641652Y-49056471D01*
X128641660Y-49056470D01*
X128665318Y-49046670D01*
X128712767Y-49037233D01*
X133519330Y-49037233D01*
X133586369Y-49056918D01*
X133607011Y-49073552D01*
X139518278Y-54984819D01*
X139551763Y-55046142D01*
X139546779Y-55115834D01*
X139504907Y-55171767D01*
X139439443Y-55196184D01*
X139430597Y-55196500D01*
X129964311Y-55196500D01*
X129897272Y-55176815D01*
X129876630Y-55160181D01*
X127822819Y-53106370D01*
X127789334Y-53045047D01*
X127786500Y-53018689D01*
X127786500Y-51868045D01*
X127786501Y-51868032D01*
X127786501Y-51699931D01*
X127786501Y-51699929D01*
X127745577Y-51547201D01*
X127713633Y-51491873D01*
X127666520Y-51410270D01*
X127554716Y-51298466D01*
X127554715Y-51298465D01*
X127550385Y-51294135D01*
X127550374Y-51294125D01*
X127318604Y-51062355D01*
X127318602Y-51062352D01*
X127199731Y-50943481D01*
X127199723Y-50943475D01*
X127077399Y-50872852D01*
X127077399Y-50872851D01*
X127077395Y-50872850D01*
X127062799Y-50864423D01*
X126910071Y-50823499D01*
X126751957Y-50823499D01*
X126744361Y-50823499D01*
X126744345Y-50823500D01*
X122725500Y-50823500D01*
X122658461Y-50803815D01*
X122612706Y-50751011D01*
X122601500Y-50699500D01*
X122601500Y-47840642D01*
X122601499Y-47840638D01*
X122575567Y-47710266D01*
X122575567Y-47710265D01*
X122574580Y-47705309D01*
X122574579Y-47705305D01*
X122521776Y-47577826D01*
X122445112Y-47463090D01*
X122445111Y-47463089D01*
X122106923Y-47124902D01*
X122073438Y-47063579D01*
X122078422Y-46993888D01*
X122120293Y-46937954D01*
X122147149Y-46922660D01*
X122179179Y-46909394D01*
X122310289Y-46821789D01*
X122421789Y-46710289D01*
X122509394Y-46579179D01*
X122569737Y-46433497D01*
X122600500Y-46278842D01*
X122600500Y-46121158D01*
X122600500Y-46121155D01*
X122600499Y-46121153D01*
X122580543Y-46020827D01*
X122569737Y-45966503D01*
X122558425Y-45939193D01*
X122509397Y-45820827D01*
X122509390Y-45820814D01*
X122421789Y-45689711D01*
X122421786Y-45689707D01*
X122310292Y-45578213D01*
X122310288Y-45578210D01*
X122179185Y-45490609D01*
X122179172Y-45490602D01*
X122033501Y-45430264D01*
X122033489Y-45430261D01*
X121878845Y-45399500D01*
X121878842Y-45399500D01*
X121721158Y-45399500D01*
X121721155Y-45399500D01*
X121566510Y-45430261D01*
X121566498Y-45430264D01*
X121420827Y-45490602D01*
X121420814Y-45490609D01*
X121289712Y-45578209D01*
X121268422Y-45599500D01*
X121204739Y-45663182D01*
X121143419Y-45696666D01*
X121117060Y-45699500D01*
X115225316Y-45699500D01*
X115177864Y-45690061D01*
X115033501Y-45630264D01*
X115033489Y-45630261D01*
X114878845Y-45599500D01*
X114878842Y-45599500D01*
X114721158Y-45599500D01*
X114721155Y-45599500D01*
X114566510Y-45630261D01*
X114566498Y-45630264D01*
X114420827Y-45690602D01*
X114420814Y-45690609D01*
X114289711Y-45778210D01*
X114289707Y-45778213D01*
X114178213Y-45889707D01*
X114178210Y-45889711D01*
X114090609Y-46020814D01*
X114090602Y-46020827D01*
X114030264Y-46166498D01*
X114030261Y-46166510D01*
X113999500Y-46321153D01*
X113999500Y-46478846D01*
X114013914Y-46551309D01*
X114007687Y-46620900D01*
X113964824Y-46676078D01*
X113898934Y-46699322D01*
X113892297Y-46699500D01*
X111120987Y-46699500D01*
X111053948Y-46679815D01*
X111033306Y-46663181D01*
X105359319Y-40989194D01*
X105325834Y-40927871D01*
X105323000Y-40901513D01*
X105323000Y-39397847D01*
X105342685Y-39330808D01*
X105390706Y-39287362D01*
X105461345Y-39251370D01*
X105665156Y-39103293D01*
X105843293Y-38925156D01*
X105991370Y-38721345D01*
X106105741Y-38496879D01*
X106183590Y-38257285D01*
X106223000Y-38008462D01*
X106223000Y-37756538D01*
X106183590Y-37507715D01*
X106105741Y-37268121D01*
X106105739Y-37268118D01*
X106105739Y-37268116D01*
X106023824Y-37107350D01*
X105991370Y-37043655D01*
X105923689Y-36950500D01*
X105843298Y-36839850D01*
X105843294Y-36839845D01*
X105665154Y-36661705D01*
X105665149Y-36661701D01*
X105461348Y-36513632D01*
X105461347Y-36513631D01*
X105461345Y-36513630D01*
X105391247Y-36477913D01*
X105236883Y-36399260D01*
X104997285Y-36321410D01*
X104748462Y-36282000D01*
X104496538Y-36282000D01*
X104372126Y-36301705D01*
X104247714Y-36321410D01*
X104008116Y-36399260D01*
X103783651Y-36513632D01*
X103579850Y-36661701D01*
X103579845Y-36661705D01*
X103401705Y-36839845D01*
X103401701Y-36839850D01*
X103253632Y-37043651D01*
X103139260Y-37268116D01*
X103061410Y-37507714D01*
X103022000Y-37756538D01*
X103022000Y-38008461D01*
X103061410Y-38257285D01*
X103139260Y-38496883D01*
X103253632Y-38721348D01*
X103401701Y-38925149D01*
X103401705Y-38925154D01*
X103579845Y-39103294D01*
X103579850Y-39103298D01*
X103783653Y-39251369D01*
X103854294Y-39287362D01*
X103905090Y-39335336D01*
X103922000Y-39397847D01*
X103922000Y-40102455D01*
X103902315Y-40169494D01*
X103849511Y-40215249D01*
X103780353Y-40225193D01*
X103716797Y-40196168D01*
X103710319Y-40190136D01*
X101241379Y-37721196D01*
X101207894Y-37659873D01*
X101206587Y-37652913D01*
X101183590Y-37507715D01*
X101105741Y-37268121D01*
X101105739Y-37268118D01*
X101105739Y-37268116D01*
X101023824Y-37107350D01*
X100991370Y-37043655D01*
X100923689Y-36950500D01*
X100843298Y-36839850D01*
X100843294Y-36839845D01*
X100665154Y-36661705D01*
X100665149Y-36661701D01*
X100461348Y-36513632D01*
X100461347Y-36513631D01*
X100461345Y-36513630D01*
X100391247Y-36477913D01*
X100236883Y-36399260D01*
X99997285Y-36321410D01*
X99748462Y-36282000D01*
X99496538Y-36282000D01*
X99372126Y-36301705D01*
X99247714Y-36321410D01*
X99008116Y-36399260D01*
X98783651Y-36513632D01*
X98579850Y-36661701D01*
X98579845Y-36661705D01*
X98401705Y-36839845D01*
X98401701Y-36839850D01*
X98253632Y-37043651D01*
X98139260Y-37268116D01*
X98061410Y-37507714D01*
X98022000Y-37756538D01*
X98022000Y-38008461D01*
X98061410Y-38257285D01*
X98139260Y-38496883D01*
X98253632Y-38721348D01*
X98401701Y-38925149D01*
X98401705Y-38925154D01*
X98579845Y-39103294D01*
X98579850Y-39103298D01*
X98702832Y-39192649D01*
X98783655Y-39251370D01*
X98922000Y-39321860D01*
X99008116Y-39365739D01*
X99008118Y-39365739D01*
X99008121Y-39365741D01*
X99247715Y-39443590D01*
X99496538Y-39483000D01*
X99496539Y-39483000D01*
X99748461Y-39483000D01*
X99748462Y-39483000D01*
X99933338Y-39453718D01*
X99948670Y-39455699D01*
X99963836Y-39452689D01*
X99982613Y-39460085D01*
X100002630Y-39462672D01*
X100014458Y-39472629D01*
X100028844Y-39478296D01*
X100040643Y-39494672D01*
X100056082Y-39507669D01*
X100061233Y-39523250D01*
X100069688Y-39534984D01*
X100076560Y-39569603D01*
X100082209Y-39675773D01*
X100082379Y-39683517D01*
X100082255Y-39696817D01*
X100061946Y-39763670D01*
X100038140Y-39790504D01*
X100004337Y-39818974D01*
X99944124Y-39846561D01*
X99848183Y-39861972D01*
X99848136Y-39861981D01*
X99784039Y-39876608D01*
X99784035Y-39876609D01*
X99784034Y-39876610D01*
X99653387Y-39936885D01*
X99653383Y-39936887D01*
X99545016Y-40031522D01*
X99545014Y-40031524D01*
X99467695Y-40152861D01*
X99432342Y-40231070D01*
X99415675Y-40272787D01*
X99415675Y-40272789D01*
X99388102Y-40414003D01*
X99401429Y-40557266D01*
X99401429Y-40557267D01*
X99454575Y-40690961D01*
X99454579Y-40690971D01*
X99476029Y-40728332D01*
X99501570Y-40768342D01*
X99572909Y-40843716D01*
X99600470Y-40872836D01*
X99694984Y-40927871D01*
X99724807Y-40945237D01*
X99724815Y-40945241D01*
X99755768Y-40957765D01*
X99798106Y-40986212D01*
X99801009Y-40989194D01*
X99809616Y-40998035D01*
X99809620Y-40998038D01*
X99895765Y-41046585D01*
X99934963Y-41068675D01*
X100047795Y-41112488D01*
X100047798Y-41112488D01*
X100047799Y-41112489D01*
X100186942Y-41144862D01*
X100291077Y-41153924D01*
X100376458Y-41161354D01*
X100381054Y-41161841D01*
X100463792Y-41172174D01*
X100498810Y-41181916D01*
X100541314Y-41200817D01*
X100572540Y-41214703D01*
X100625798Y-41259929D01*
X100640180Y-41289974D01*
X100644242Y-41302580D01*
X100649702Y-41329315D01*
X100652133Y-41355898D01*
X100652135Y-41355915D01*
X100652136Y-41355920D01*
X100653931Y-41367537D01*
X100661235Y-41414799D01*
X100661725Y-41417966D01*
X100712177Y-41552710D01*
X100712176Y-41552710D01*
X100732270Y-41589397D01*
X100744630Y-41611965D01*
X100749009Y-41619959D01*
X100824621Y-41722767D01*
X100828482Y-41728016D01*
X100942077Y-41816321D01*
X101075949Y-41869045D01*
X101219253Y-41881917D01*
X101228415Y-41881429D01*
X101313922Y-41866637D01*
X101345772Y-41861128D01*
X101345772Y-41861127D01*
X101345776Y-41861127D01*
X101476427Y-41800863D01*
X101596943Y-41722767D01*
X101663110Y-41671650D01*
X101754409Y-41560447D01*
X101855787Y-41393083D01*
X101866359Y-41374777D01*
X101917045Y-41240120D01*
X101954880Y-41068677D01*
X101959620Y-41047199D01*
X101959623Y-41047181D01*
X101959647Y-41047076D01*
X101959724Y-41046710D01*
X101959730Y-41046699D01*
X101959756Y-41046585D01*
X101959788Y-41046592D01*
X101964625Y-41037607D01*
X101965516Y-41027306D01*
X101980904Y-41007371D01*
X101992845Y-40985194D01*
X102003026Y-40978714D01*
X102008211Y-40971999D01*
X102039431Y-40955547D01*
X102131868Y-40922621D01*
X102141800Y-40919547D01*
X102143994Y-40918967D01*
X102143991Y-40918967D01*
X102144002Y-40918965D01*
X102309618Y-40865878D01*
X102379467Y-40864161D01*
X102435149Y-40896280D01*
X106738370Y-45199500D01*
X110185412Y-48646542D01*
X110278827Y-48739957D01*
X110282985Y-48744115D01*
X110397710Y-48820772D01*
X110397711Y-48820772D01*
X110397715Y-48820775D01*
X110456649Y-48845186D01*
X110525197Y-48873580D01*
X110552117Y-48878934D01*
X110648989Y-48898203D01*
X110660532Y-48900500D01*
X110660533Y-48900500D01*
X120774684Y-48900500D01*
X120822136Y-48909939D01*
X120872751Y-48930904D01*
X120966503Y-48969737D01*
X121060645Y-48988463D01*
X121100691Y-48996429D01*
X121162602Y-49028814D01*
X121197176Y-49089529D01*
X121200500Y-49118046D01*
X121200500Y-50333326D01*
X121180815Y-50400365D01*
X121128011Y-50446120D01*
X121123953Y-50447887D01*
X121020824Y-50490604D01*
X121020814Y-50490609D01*
X120889711Y-50578210D01*
X120889707Y-50578213D01*
X120778212Y-50689708D01*
X120746979Y-50736452D01*
X120725638Y-50768391D01*
X120672028Y-50813196D01*
X120622537Y-50823500D01*
X118160655Y-50823500D01*
X118160639Y-50823499D01*
X118153043Y-50823499D01*
X117994929Y-50823499D01*
X117880383Y-50854192D01*
X117842200Y-50864423D01*
X117830688Y-50871069D01*
X117827606Y-50872850D01*
X117827604Y-50872851D01*
X117827601Y-50872852D01*
X117705276Y-50943475D01*
X117705268Y-50943481D01*
X116719481Y-51929268D01*
X116719475Y-51929276D01*
X116684566Y-51989742D01*
X116684566Y-51989744D01*
X116640423Y-52066200D01*
X116640423Y-52066201D01*
X116599499Y-52218929D01*
X116599499Y-52218931D01*
X116599499Y-52387032D01*
X116599500Y-52387045D01*
X116599500Y-53680236D01*
X116579815Y-53747275D01*
X116578602Y-53749127D01*
X116490609Y-53880816D01*
X116490602Y-53880829D01*
X116430264Y-54026500D01*
X116430261Y-54026512D01*
X116399500Y-54181155D01*
X116399500Y-54338848D01*
X116430261Y-54493491D01*
X116430264Y-54493503D01*
X116490602Y-54639174D01*
X116490609Y-54639187D01*
X116578210Y-54770290D01*
X116578213Y-54770294D01*
X116689707Y-54881788D01*
X116689711Y-54881791D01*
X116820814Y-54969392D01*
X116820827Y-54969399D01*
X116966491Y-55029734D01*
X116966503Y-55029739D01*
X116998053Y-55036014D01*
X117034676Y-55043300D01*
X117096587Y-55075685D01*
X117131161Y-55136400D01*
X117127422Y-55206170D01*
X117098166Y-55252598D01*
X116585339Y-55765425D01*
X116524016Y-55798910D01*
X116521850Y-55799361D01*
X116366508Y-55830261D01*
X116366498Y-55830264D01*
X116220827Y-55890602D01*
X116220814Y-55890609D01*
X116089711Y-55978210D01*
X116089707Y-55978213D01*
X115978213Y-56089707D01*
X115978210Y-56089711D01*
X115890609Y-56220814D01*
X115890602Y-56220827D01*
X115830264Y-56366498D01*
X115830261Y-56366510D01*
X115799500Y-56521153D01*
X115799500Y-56678846D01*
X115830261Y-56833489D01*
X115830264Y-56833501D01*
X115890602Y-56979172D01*
X115890609Y-56979185D01*
X115978210Y-57110288D01*
X115978213Y-57110292D01*
X116089707Y-57221786D01*
X116089711Y-57221789D01*
X116220814Y-57309390D01*
X116220827Y-57309397D01*
X116310461Y-57346524D01*
X116366503Y-57369737D01*
X116521153Y-57400499D01*
X116521156Y-57400500D01*
X116521158Y-57400500D01*
X116678844Y-57400500D01*
X116678845Y-57400499D01*
X116833497Y-57369737D01*
X116979179Y-57309394D01*
X117110289Y-57221789D01*
X117221789Y-57110289D01*
X117309394Y-56979179D01*
X117369737Y-56833497D01*
X117389113Y-56736085D01*
X117400638Y-56678150D01*
X117433023Y-56616239D01*
X117434517Y-56614717D01*
X119753418Y-54295818D01*
X119814741Y-54262333D01*
X119841099Y-54259499D01*
X123672370Y-54259499D01*
X123739409Y-54279184D01*
X123785164Y-54331988D01*
X123793987Y-54359308D01*
X123820677Y-54493488D01*
X123820680Y-54493500D01*
X123881018Y-54639171D01*
X123881025Y-54639184D01*
X123968626Y-54770287D01*
X123968629Y-54770291D01*
X124080123Y-54881785D01*
X124080127Y-54881788D01*
X124211230Y-54969389D01*
X124211243Y-54969396D01*
X124356914Y-55029734D01*
X124356919Y-55029736D01*
X124458134Y-55049869D01*
X124511569Y-55060498D01*
X124511572Y-55060499D01*
X124511574Y-55060499D01*
X124669259Y-55060499D01*
X124699823Y-55054419D01*
X124722696Y-55049869D01*
X124792288Y-55056096D01*
X124834570Y-55083805D01*
X125938584Y-56187819D01*
X125972069Y-56249142D01*
X125967085Y-56318834D01*
X125925213Y-56374767D01*
X125859749Y-56399184D01*
X125850903Y-56399500D01*
X124779766Y-56399500D01*
X124712727Y-56379815D01*
X124710875Y-56378602D01*
X124579185Y-56290609D01*
X124579172Y-56290602D01*
X124433501Y-56230264D01*
X124433489Y-56230261D01*
X124278845Y-56199500D01*
X124278842Y-56199500D01*
X124121158Y-56199500D01*
X124121155Y-56199500D01*
X123966510Y-56230261D01*
X123966498Y-56230264D01*
X123820827Y-56290602D01*
X123820814Y-56290609D01*
X123689711Y-56378210D01*
X123689707Y-56378213D01*
X123578213Y-56489707D01*
X123578210Y-56489711D01*
X123490609Y-56620814D01*
X123490602Y-56620827D01*
X123430264Y-56766498D01*
X123430261Y-56766510D01*
X123399500Y-56921153D01*
X123399500Y-57078846D01*
X123430261Y-57233489D01*
X123430264Y-57233501D01*
X123490602Y-57379172D01*
X123490609Y-57379185D01*
X123578210Y-57510288D01*
X123578213Y-57510292D01*
X123689707Y-57621786D01*
X123689711Y-57621789D01*
X123820814Y-57709390D01*
X123820827Y-57709397D01*
X123966498Y-57769735D01*
X123966503Y-57769737D01*
X124121153Y-57800499D01*
X124121156Y-57800500D01*
X124121158Y-57800500D01*
X124278844Y-57800500D01*
X124278845Y-57800499D01*
X124433497Y-57769737D01*
X124579179Y-57709394D01*
X124678211Y-57643223D01*
X124710875Y-57621398D01*
X124777553Y-57600520D01*
X124779766Y-57600500D01*
X127475500Y-57600500D01*
X127542539Y-57620185D01*
X127588294Y-57672989D01*
X127599500Y-57724500D01*
X127599500Y-57878846D01*
X127630261Y-58033489D01*
X127630264Y-58033501D01*
X127690602Y-58179172D01*
X127690609Y-58179185D01*
X127778210Y-58310288D01*
X127778213Y-58310292D01*
X127889710Y-58421789D01*
X128020815Y-58509390D01*
X128020821Y-58509394D01*
X128044475Y-58519191D01*
X128084703Y-58546071D01*
X128905939Y-59367307D01*
X129601451Y-60062818D01*
X129634936Y-60124141D01*
X129629952Y-60193833D01*
X129588080Y-60249766D01*
X129522616Y-60274183D01*
X129513770Y-60274499D01*
X89961426Y-60274499D01*
X89894387Y-60254814D01*
X89858324Y-60219390D01*
X89821789Y-60164711D01*
X89821787Y-60164708D01*
X89710292Y-60053213D01*
X89710288Y-60053210D01*
X89579185Y-59965609D01*
X89579172Y-59965602D01*
X89433501Y-59905264D01*
X89433489Y-59905261D01*
X89311105Y-59880917D01*
X89249194Y-59848532D01*
X89214620Y-59787816D01*
X89218359Y-59718047D01*
X89259226Y-59661375D01*
X89266391Y-59656207D01*
X89335679Y-59609911D01*
X89447179Y-59498411D01*
X89534784Y-59367301D01*
X89595127Y-59221619D01*
X89625890Y-59066964D01*
X89625890Y-58909280D01*
X89625890Y-58909277D01*
X89625889Y-58909275D01*
X89620074Y-58880042D01*
X89595127Y-58754625D01*
X89595125Y-58754620D01*
X89534787Y-58608949D01*
X89534780Y-58608936D01*
X89447179Y-58477833D01*
X89447176Y-58477829D01*
X89335682Y-58366335D01*
X89335678Y-58366332D01*
X89204575Y-58278731D01*
X89204562Y-58278724D01*
X89058891Y-58218386D01*
X89058879Y-58218383D01*
X88904235Y-58187622D01*
X88904232Y-58187622D01*
X88746548Y-58187622D01*
X88746545Y-58187622D01*
X88591900Y-58218383D01*
X88591888Y-58218386D01*
X88446217Y-58278724D01*
X88446204Y-58278731D01*
X88315101Y-58366332D01*
X88315097Y-58366335D01*
X88203603Y-58477829D01*
X88203600Y-58477833D01*
X88115999Y-58608936D01*
X88115992Y-58608949D01*
X88055654Y-58754620D01*
X88055651Y-58754632D01*
X88024890Y-58909275D01*
X88024890Y-59020638D01*
X88020665Y-59052731D01*
X87998499Y-59135455D01*
X87998499Y-59303558D01*
X87998500Y-59303571D01*
X87998500Y-61687273D01*
X87998499Y-61687291D01*
X87998499Y-61852997D01*
X87998498Y-61852997D01*
X88039423Y-62005728D01*
X88053596Y-62030276D01*
X88053595Y-62030276D01*
X88053596Y-62030277D01*
X88118475Y-62142652D01*
X88118481Y-62142660D01*
X88237349Y-62261528D01*
X88237355Y-62261533D01*
X88473086Y-62497264D01*
X88506571Y-62558587D01*
X88507022Y-62560753D01*
X88536746Y-62710185D01*
X88536749Y-62710195D01*
X88597087Y-62855866D01*
X88597094Y-62855879D01*
X88684695Y-62986982D01*
X88684698Y-62986986D01*
X88796195Y-63098483D01*
X88835133Y-63124500D01*
X88927306Y-63186088D01*
X88927311Y-63186090D01*
X88927313Y-63186091D01*
X88950958Y-63195885D01*
X88991190Y-63222766D01*
X89246839Y-63478415D01*
X89246840Y-63478416D01*
X89330429Y-63562005D01*
X89351376Y-63582952D01*
X89474289Y-63665080D01*
X89474302Y-63665087D01*
X89581260Y-63709390D01*
X89610878Y-63721658D01*
X89610882Y-63721658D01*
X89610883Y-63721659D01*
X89755870Y-63750500D01*
X89755873Y-63750500D01*
X90325500Y-63750500D01*
X90334185Y-63753050D01*
X90343147Y-63751762D01*
X90367187Y-63762740D01*
X90392539Y-63770185D01*
X90398466Y-63777025D01*
X90406703Y-63780787D01*
X90420992Y-63803021D01*
X90438294Y-63822989D01*
X90440581Y-63833503D01*
X90444477Y-63839565D01*
X90449500Y-63874500D01*
X90449500Y-63967059D01*
X90429815Y-64034098D01*
X90413181Y-64054740D01*
X90378213Y-64089707D01*
X90378210Y-64089711D01*
X90290609Y-64220814D01*
X90290602Y-64220827D01*
X90230264Y-64366498D01*
X90230261Y-64366510D01*
X90199500Y-64521153D01*
X90199500Y-64678846D01*
X90230261Y-64833489D01*
X90230264Y-64833501D01*
X90290602Y-64979172D01*
X90290609Y-64979185D01*
X90378210Y-65110288D01*
X90378213Y-65110292D01*
X90489707Y-65221786D01*
X90489711Y-65221789D01*
X90620814Y-65309390D01*
X90620827Y-65309397D01*
X90766498Y-65369735D01*
X90766503Y-65369737D01*
X90921153Y-65400499D01*
X90921156Y-65400500D01*
X90921158Y-65400500D01*
X91078844Y-65400500D01*
X91078845Y-65400499D01*
X91233497Y-65369737D01*
X91379179Y-65309394D01*
X91510289Y-65221789D01*
X91621789Y-65110289D01*
X91709394Y-64979179D01*
X91719191Y-64955527D01*
X91736212Y-64926414D01*
X91740805Y-64920561D01*
X91782952Y-64878416D01*
X91832186Y-64804729D01*
X91865084Y-64755495D01*
X91902954Y-64664069D01*
X91921659Y-64618912D01*
X91950500Y-64473917D01*
X91950500Y-64326082D01*
X91950500Y-63874500D01*
X91970185Y-63807461D01*
X92022989Y-63761706D01*
X92074500Y-63750500D01*
X94095396Y-63750500D01*
X94142844Y-63759937D01*
X94166503Y-63769737D01*
X94166508Y-63769738D01*
X94166511Y-63769739D01*
X94321153Y-63800499D01*
X94321156Y-63800500D01*
X94321158Y-63800500D01*
X94478844Y-63800500D01*
X94478845Y-63800499D01*
X94633497Y-63769737D01*
X94779179Y-63709394D01*
X94910289Y-63621789D01*
X95021789Y-63510289D01*
X95109394Y-63379179D01*
X95169737Y-63233497D01*
X95200500Y-63078842D01*
X95200500Y-62921158D01*
X95200500Y-62921155D01*
X95200499Y-62921153D01*
X95187514Y-62855873D01*
X95169737Y-62766503D01*
X95146412Y-62710191D01*
X95109397Y-62620827D01*
X95109390Y-62620814D01*
X95021789Y-62489711D01*
X95021786Y-62489707D01*
X94910292Y-62378213D01*
X94910288Y-62378210D01*
X94779185Y-62290609D01*
X94779172Y-62290602D01*
X94633501Y-62230264D01*
X94633489Y-62230261D01*
X94478845Y-62199500D01*
X94478842Y-62199500D01*
X94321158Y-62199500D01*
X94321155Y-62199500D01*
X94166511Y-62230260D01*
X94166506Y-62230262D01*
X94166504Y-62230262D01*
X94166503Y-62230263D01*
X94142844Y-62240062D01*
X94095396Y-62249500D01*
X90192020Y-62249500D01*
X90162579Y-62240855D01*
X90132593Y-62234332D01*
X90127577Y-62230577D01*
X90124981Y-62229815D01*
X90104339Y-62213181D01*
X90052557Y-62161399D01*
X90025676Y-62121169D01*
X90015879Y-62097515D01*
X90015645Y-62096950D01*
X90008179Y-62027480D01*
X90039456Y-61965002D01*
X90099546Y-61929352D01*
X90130208Y-61925501D01*
X102125902Y-61925501D01*
X102192941Y-61945186D01*
X102238696Y-61997990D01*
X102248640Y-62067148D01*
X102219615Y-62130704D01*
X102213583Y-62137182D01*
X89385339Y-74965425D01*
X89324016Y-74998910D01*
X89321850Y-74999361D01*
X89166508Y-75030261D01*
X89166498Y-75030264D01*
X89020827Y-75090602D01*
X89020814Y-75090609D01*
X88889711Y-75178210D01*
X88889707Y-75178213D01*
X88778213Y-75289707D01*
X88778210Y-75289711D01*
X88690609Y-75420814D01*
X88690602Y-75420827D01*
X88630264Y-75566498D01*
X88630261Y-75566510D01*
X88599500Y-75721153D01*
X88599500Y-75878846D01*
X88630261Y-76033489D01*
X88630264Y-76033501D01*
X88690602Y-76179172D01*
X88690609Y-76179185D01*
X88778210Y-76310288D01*
X88778213Y-76310292D01*
X88889707Y-76421786D01*
X88889711Y-76421789D01*
X89020814Y-76509390D01*
X89020827Y-76509397D01*
X89166498Y-76569735D01*
X89166503Y-76569737D01*
X89321153Y-76600499D01*
X89321156Y-76600500D01*
X89321158Y-76600500D01*
X89478844Y-76600500D01*
X89478845Y-76600499D01*
X89633497Y-76569737D01*
X89779179Y-76509394D01*
X89910289Y-76421789D01*
X90021789Y-76310289D01*
X90109394Y-76179179D01*
X90169737Y-76033497D01*
X90196391Y-75899500D01*
X90200638Y-75878150D01*
X90233023Y-75816239D01*
X90234518Y-75814716D01*
X103686415Y-62362820D01*
X103747738Y-62329335D01*
X103774096Y-62326501D01*
X139027629Y-62326501D01*
X139027645Y-62326502D01*
X139035241Y-62326502D01*
X139193352Y-62326502D01*
X139193355Y-62326502D01*
X139346083Y-62285578D01*
X139399975Y-62254463D01*
X139483014Y-62206521D01*
X139594818Y-62094717D01*
X139594818Y-62094715D01*
X139605022Y-62084512D01*
X139605025Y-62084507D01*
X143695752Y-57993781D01*
X143721529Y-57979706D01*
X143745889Y-57963284D01*
X143751844Y-57963153D01*
X143757073Y-57960298D01*
X143786377Y-57962393D01*
X143815741Y-57961748D01*
X143822916Y-57965006D01*
X143826765Y-57965282D01*
X143848161Y-57975700D01*
X143850269Y-57976990D01*
X143965235Y-58053808D01*
X143997874Y-58067327D01*
X144006166Y-58072402D01*
X144012469Y-58079361D01*
X144029117Y-58090485D01*
X150130681Y-64192048D01*
X150164166Y-64253371D01*
X150167000Y-64279729D01*
X150167000Y-73932628D01*
X150147315Y-73999667D01*
X150099297Y-74043112D01*
X150078651Y-74053631D01*
X149874850Y-74201701D01*
X149874845Y-74201705D01*
X149696705Y-74379845D01*
X149696701Y-74379850D01*
X149548632Y-74583651D01*
X149434260Y-74808116D01*
X149362080Y-75030264D01*
X149356410Y-75047715D01*
X149317000Y-75296538D01*
X149317000Y-75548462D01*
X149319859Y-75566510D01*
X149356410Y-75797285D01*
X149434260Y-76036883D01*
X149475592Y-76118000D01*
X149543233Y-76250753D01*
X149548632Y-76261348D01*
X149696701Y-76465149D01*
X149696705Y-76465154D01*
X149874845Y-76643294D01*
X149874850Y-76643298D01*
X150052617Y-76772452D01*
X150078655Y-76791370D01*
X150221684Y-76864247D01*
X150303116Y-76905739D01*
X150303118Y-76905739D01*
X150303121Y-76905741D01*
X150542715Y-76983590D01*
X150791538Y-77023000D01*
X150791539Y-77023000D01*
X151043461Y-77023000D01*
X151043462Y-77023000D01*
X151292285Y-76983590D01*
X151531879Y-76905741D01*
X151756345Y-76791370D01*
X151960156Y-76643293D01*
X152138293Y-76465156D01*
X152286370Y-76261345D01*
X152400741Y-76036879D01*
X152478590Y-75797285D01*
X152518000Y-75548462D01*
X152518000Y-75296538D01*
X152478590Y-75047715D01*
X152400741Y-74808121D01*
X152400739Y-74808118D01*
X152400739Y-74808116D01*
X152359247Y-74726684D01*
X152286370Y-74583655D01*
X152267452Y-74557617D01*
X152138298Y-74379850D01*
X152138294Y-74379845D01*
X151960154Y-74201705D01*
X151960149Y-74201701D01*
X151756348Y-74053631D01*
X151735703Y-74043112D01*
X151684908Y-73995137D01*
X151668000Y-73932628D01*
X151668000Y-70117847D01*
X151687685Y-70050808D01*
X151740489Y-70005053D01*
X151767809Y-69996230D01*
X151783791Y-69993050D01*
X151900997Y-69969737D01*
X152046679Y-69909394D01*
X152177789Y-69821789D01*
X152289289Y-69710289D01*
X152376894Y-69579179D01*
X152437237Y-69433497D01*
X152468000Y-69278842D01*
X152468138Y-69278150D01*
X152500523Y-69216239D01*
X152502013Y-69214721D01*
X152788820Y-68927914D01*
X152850142Y-68894431D01*
X152919834Y-68899415D01*
X152975767Y-68941287D01*
X153000184Y-69006751D01*
X153000500Y-69015597D01*
X153000500Y-80256480D01*
X152980815Y-80323519D01*
X152964181Y-80344161D01*
X152729681Y-80578661D01*
X152668358Y-80612146D01*
X152598666Y-80607162D01*
X152542733Y-80565290D01*
X152518316Y-80499826D01*
X152518000Y-80490980D01*
X152518000Y-80296538D01*
X152511655Y-80256480D01*
X152478590Y-80047715D01*
X152400741Y-79808121D01*
X152400739Y-79808118D01*
X152400739Y-79808116D01*
X152359247Y-79726684D01*
X152286370Y-79583655D01*
X152166165Y-79418206D01*
X152138298Y-79379850D01*
X152138294Y-79379845D01*
X151960154Y-79201705D01*
X151960149Y-79201701D01*
X151756348Y-79053632D01*
X151756347Y-79053631D01*
X151756345Y-79053630D01*
X151686247Y-79017913D01*
X151531883Y-78939260D01*
X151292285Y-78861410D01*
X151043462Y-78822000D01*
X150791538Y-78822000D01*
X150741773Y-78829882D01*
X150542711Y-78861410D01*
X150542710Y-78861410D01*
X150520680Y-78868568D01*
X150450839Y-78870561D01*
X150394685Y-78838317D01*
X145173421Y-73617052D01*
X145173414Y-73617046D01*
X145099729Y-73567812D01*
X145099729Y-73567813D01*
X145050491Y-73534913D01*
X144913917Y-73478343D01*
X144913907Y-73478340D01*
X144768920Y-73449500D01*
X144768918Y-73449500D01*
X140762230Y-73449500D01*
X140695191Y-73429815D01*
X140674549Y-73413181D01*
X138946071Y-71684703D01*
X138919191Y-71644475D01*
X138909394Y-71620821D01*
X138909389Y-71620814D01*
X138821789Y-71489710D01*
X138710292Y-71378213D01*
X138710288Y-71378210D01*
X138579185Y-71290609D01*
X138579172Y-71290602D01*
X138433501Y-71230264D01*
X138433489Y-71230261D01*
X138278845Y-71199500D01*
X138278842Y-71199500D01*
X138121158Y-71199500D01*
X138121155Y-71199500D01*
X137966510Y-71230261D01*
X137966498Y-71230264D01*
X137820827Y-71290602D01*
X137820814Y-71290609D01*
X137689711Y-71378210D01*
X137689707Y-71378213D01*
X137578213Y-71489707D01*
X137578210Y-71489711D01*
X137490609Y-71620814D01*
X137490602Y-71620827D01*
X137430264Y-71766498D01*
X137430261Y-71766510D01*
X137399500Y-71921153D01*
X137399500Y-72078846D01*
X137430261Y-72233489D01*
X137430264Y-72233501D01*
X137490602Y-72379172D01*
X137490609Y-72379185D01*
X137578210Y-72510288D01*
X137578213Y-72510292D01*
X137689710Y-72621789D01*
X137820815Y-72709390D01*
X137820821Y-72709394D01*
X137844475Y-72719191D01*
X137884703Y-72746071D01*
X139026451Y-73887819D01*
X139059936Y-73949142D01*
X139054952Y-74018834D01*
X139013080Y-74074767D01*
X138947616Y-74099184D01*
X138938770Y-74099500D01*
X109531004Y-74099500D01*
X109395677Y-74126418D01*
X109395667Y-74126421D01*
X109268192Y-74179222D01*
X109153454Y-74255887D01*
X102405412Y-81003929D01*
X102365184Y-81030809D01*
X102220823Y-81090604D01*
X102220814Y-81090609D01*
X102089711Y-81178210D01*
X102089707Y-81178213D01*
X101978213Y-81289707D01*
X101978210Y-81289711D01*
X101890609Y-81420814D01*
X101890602Y-81420827D01*
X101830264Y-81566498D01*
X101830261Y-81566510D01*
X101799500Y-81721153D01*
X101799500Y-81878846D01*
X101830261Y-82033489D01*
X101830264Y-82033501D01*
X101890602Y-82179172D01*
X101890609Y-82179185D01*
X101978210Y-82310288D01*
X101978213Y-82310292D01*
X102089707Y-82421786D01*
X102089711Y-82421789D01*
X102220814Y-82509390D01*
X102220827Y-82509397D01*
X102363555Y-82568516D01*
X102366503Y-82569737D01*
X102503955Y-82597078D01*
X102521153Y-82600499D01*
X102521156Y-82600500D01*
X102521158Y-82600500D01*
X102678844Y-82600500D01*
X102678845Y-82600499D01*
X102833497Y-82569737D01*
X102979179Y-82509394D01*
X103110289Y-82421789D01*
X103221789Y-82310289D01*
X103309394Y-82179179D01*
X103309395Y-82179176D01*
X103309397Y-82179173D01*
X103369192Y-82034812D01*
X103396069Y-81994586D01*
X109853838Y-75536819D01*
X109915161Y-75503334D01*
X109941519Y-75500500D01*
X139843220Y-75500500D01*
X139890672Y-75509938D01*
X139926019Y-75524580D01*
X139926023Y-75524580D01*
X139926024Y-75524581D01*
X140061350Y-75551500D01*
X140061353Y-75551500D01*
X140061354Y-75551500D01*
X144083827Y-75551500D01*
X144150866Y-75571185D01*
X144171508Y-75587819D01*
X144570674Y-75986985D01*
X144604159Y-76048308D01*
X144599175Y-76118000D01*
X144557303Y-76173933D01*
X144491839Y-76198350D01*
X144435541Y-76189227D01*
X144248169Y-76111615D01*
X143900223Y-76006067D01*
X143900212Y-76006064D01*
X143543630Y-75935137D01*
X143271111Y-75908296D01*
X143181794Y-75899500D01*
X142818206Y-75899500D01*
X142735679Y-75907628D01*
X142456369Y-75935137D01*
X142099787Y-76006064D01*
X142099776Y-76006067D01*
X141751834Y-76111614D01*
X141415921Y-76250754D01*
X141415916Y-76250756D01*
X141095279Y-76422140D01*
X141095261Y-76422151D01*
X140792964Y-76624140D01*
X140792950Y-76624150D01*
X140511893Y-76854807D01*
X140254807Y-77111893D01*
X140024150Y-77392950D01*
X140024140Y-77392964D01*
X139822151Y-77695261D01*
X139822140Y-77695279D01*
X139650756Y-78015916D01*
X139650754Y-78015921D01*
X139511614Y-78351834D01*
X139406067Y-78699776D01*
X139406064Y-78699787D01*
X139335137Y-79056369D01*
X139320823Y-79201707D01*
X139303279Y-79379844D01*
X139299500Y-79418209D01*
X139299500Y-79781790D01*
X139335137Y-80143630D01*
X139406064Y-80500212D01*
X139406067Y-80500223D01*
X139456656Y-80666994D01*
X139511614Y-80848164D01*
X139648324Y-81178213D01*
X139650754Y-81184078D01*
X139650756Y-81184083D01*
X139822140Y-81504720D01*
X139822151Y-81504738D01*
X140024140Y-81807035D01*
X140024150Y-81807049D01*
X140254807Y-82088106D01*
X140511893Y-82345192D01*
X140511898Y-82345196D01*
X140511899Y-82345197D01*
X140792956Y-82575854D01*
X141095268Y-82777853D01*
X141095277Y-82777858D01*
X141095279Y-82777859D01*
X141415916Y-82949243D01*
X141415918Y-82949243D01*
X141415924Y-82949247D01*
X141751836Y-83088386D01*
X142099767Y-83193930D01*
X142099773Y-83193931D01*
X142099776Y-83193932D01*
X142099787Y-83193935D01*
X142401172Y-83253883D01*
X142463083Y-83286267D01*
X142497657Y-83346983D01*
X142493918Y-83416753D01*
X142453052Y-83473425D01*
X142388034Y-83499006D01*
X142376981Y-83499500D01*
X85023019Y-83499500D01*
X84955980Y-83479815D01*
X84910225Y-83427011D01*
X84900281Y-83357853D01*
X84929306Y-83294297D01*
X84988084Y-83256523D01*
X84998828Y-83253883D01*
X85300212Y-83193935D01*
X85300223Y-83193932D01*
X85300223Y-83193931D01*
X85300233Y-83193930D01*
X85648164Y-83088386D01*
X85984076Y-82949247D01*
X86304732Y-82777853D01*
X86607044Y-82575854D01*
X86888101Y-82345197D01*
X87145197Y-82088101D01*
X87375854Y-81807044D01*
X87577853Y-81504732D01*
X87749247Y-81184076D01*
X87888386Y-80848164D01*
X87993930Y-80500233D01*
X87993932Y-80500223D01*
X87993935Y-80500212D01*
X88062140Y-80157315D01*
X88064862Y-80143631D01*
X88100500Y-79781794D01*
X88100500Y-79418206D01*
X88064862Y-79056369D01*
X88035628Y-78909397D01*
X87993935Y-78699787D01*
X87993932Y-78699776D01*
X87993931Y-78699773D01*
X87993930Y-78699767D01*
X87888386Y-78351836D01*
X87792834Y-78121153D01*
X101579500Y-78121153D01*
X101579500Y-78278846D01*
X101610261Y-78433489D01*
X101610264Y-78433501D01*
X101670602Y-78579172D01*
X101670609Y-78579185D01*
X101758210Y-78710288D01*
X101758213Y-78710292D01*
X101869707Y-78821786D01*
X101869711Y-78821789D01*
X102000814Y-78909390D01*
X102000827Y-78909397D01*
X102072924Y-78939260D01*
X102146503Y-78969737D01*
X102238483Y-78988033D01*
X102301153Y-79000499D01*
X102301156Y-79000500D01*
X102301158Y-79000500D01*
X102458844Y-79000500D01*
X102458845Y-79000499D01*
X102613497Y-78969737D01*
X102759179Y-78909394D01*
X102890289Y-78821789D01*
X103001789Y-78710289D01*
X103089394Y-78579179D01*
X103092780Y-78574112D01*
X103093133Y-78574348D01*
X103110672Y-78550694D01*
X108874548Y-72786819D01*
X108935871Y-72753334D01*
X108962229Y-72750500D01*
X116295396Y-72750500D01*
X116342844Y-72759937D01*
X116366503Y-72769737D01*
X116366508Y-72769738D01*
X116366511Y-72769739D01*
X116521153Y-72800499D01*
X116521156Y-72800500D01*
X116521158Y-72800500D01*
X116678844Y-72800500D01*
X116678845Y-72800499D01*
X116833497Y-72769737D01*
X116979179Y-72709394D01*
X117110289Y-72621789D01*
X117221789Y-72510289D01*
X117309394Y-72379179D01*
X117369737Y-72233497D01*
X117400500Y-72078842D01*
X117400500Y-71921158D01*
X117400500Y-71921155D01*
X117400499Y-71921153D01*
X117369738Y-71766510D01*
X117369737Y-71766503D01*
X117335855Y-71684703D01*
X117309397Y-71620827D01*
X117309390Y-71620814D01*
X117221789Y-71489711D01*
X117221786Y-71489707D01*
X117110292Y-71378213D01*
X117110288Y-71378210D01*
X116979185Y-71290609D01*
X116979172Y-71290602D01*
X116833501Y-71230264D01*
X116833489Y-71230261D01*
X116678845Y-71199500D01*
X116678842Y-71199500D01*
X116521158Y-71199500D01*
X116521155Y-71199500D01*
X116366511Y-71230260D01*
X116366506Y-71230262D01*
X116366504Y-71230262D01*
X116366503Y-71230263D01*
X116342844Y-71240062D01*
X116295396Y-71249500D01*
X108526080Y-71249500D01*
X108381092Y-71278340D01*
X108381082Y-71278343D01*
X108244508Y-71334913D01*
X108121584Y-71417048D01*
X108121584Y-71417049D01*
X102098845Y-77439785D01*
X102058618Y-77466664D01*
X102000829Y-77490601D01*
X102000814Y-77490609D01*
X101869711Y-77578210D01*
X101869707Y-77578213D01*
X101758213Y-77689707D01*
X101758210Y-77689711D01*
X101670609Y-77820814D01*
X101670602Y-77820827D01*
X101610264Y-77966498D01*
X101610261Y-77966510D01*
X101579500Y-78121153D01*
X87792834Y-78121153D01*
X87749247Y-78015924D01*
X87722828Y-77966498D01*
X87577859Y-77695279D01*
X87577858Y-77695277D01*
X87577853Y-77695268D01*
X87375854Y-77392956D01*
X87145197Y-77111899D01*
X87145196Y-77111898D01*
X87145192Y-77111893D01*
X86888106Y-76854807D01*
X86607049Y-76624150D01*
X86607048Y-76624149D01*
X86607044Y-76624146D01*
X86304732Y-76422147D01*
X86304727Y-76422144D01*
X86304720Y-76422140D01*
X85984083Y-76250756D01*
X85984078Y-76250754D01*
X85648165Y-76111614D01*
X85300223Y-76006067D01*
X85300212Y-76006064D01*
X84943630Y-75935137D01*
X84671111Y-75908296D01*
X84581794Y-75899500D01*
X84218206Y-75899500D01*
X84135679Y-75907628D01*
X83856369Y-75935137D01*
X83499787Y-76006064D01*
X83499776Y-76006067D01*
X83151834Y-76111614D01*
X82815921Y-76250754D01*
X82815916Y-76250756D01*
X82495279Y-76422140D01*
X82495261Y-76422151D01*
X82192964Y-76624140D01*
X82192950Y-76624150D01*
X81911893Y-76854807D01*
X81654807Y-77111893D01*
X81424150Y-77392950D01*
X81424140Y-77392964D01*
X81222151Y-77695261D01*
X81222140Y-77695279D01*
X81050756Y-78015916D01*
X81050754Y-78015921D01*
X80911614Y-78351834D01*
X80806067Y-78699776D01*
X80806064Y-78699787D01*
X80746117Y-79001171D01*
X80713733Y-79063082D01*
X80653017Y-79097656D01*
X80583247Y-79093917D01*
X80526575Y-79053051D01*
X80500994Y-78988033D01*
X80500500Y-78976980D01*
X80500500Y-65179999D01*
X81408384Y-65179999D01*
X81408385Y-65180000D01*
X82166816Y-65180000D01*
X82162421Y-65184395D01*
X82109760Y-65275606D01*
X82082501Y-65377339D01*
X82082501Y-65482661D01*
X82109760Y-65584394D01*
X82162421Y-65675605D01*
X82166816Y-65680000D01*
X81408385Y-65680000D01*
X81409585Y-65687584D01*
X81463091Y-65852255D01*
X81541695Y-66006524D01*
X81643467Y-66146602D01*
X81765897Y-66269032D01*
X81905975Y-66370804D01*
X82060242Y-66449408D01*
X82224915Y-66502914D01*
X82395929Y-66530000D01*
X82532500Y-66530000D01*
X82532500Y-65829999D01*
X83032500Y-65829999D01*
X83032500Y-66530000D01*
X83169071Y-66530000D01*
X83340084Y-66502914D01*
X83504757Y-66449408D01*
X83659024Y-66370804D01*
X83799102Y-66269032D01*
X83921532Y-66146602D01*
X84023304Y-66006524D01*
X84101908Y-65852255D01*
X84155414Y-65687584D01*
X84156615Y-65680000D01*
X83398184Y-65680000D01*
X83402579Y-65675605D01*
X83455240Y-65584394D01*
X83482499Y-65482661D01*
X83482499Y-65377339D01*
X83455240Y-65275606D01*
X83402579Y-65184395D01*
X83398184Y-65180000D01*
X84156615Y-65180000D01*
X84156615Y-65179999D01*
X85488384Y-65179999D01*
X85488385Y-65180000D01*
X86246829Y-65180000D01*
X86242434Y-65184395D01*
X86189773Y-65275606D01*
X86162514Y-65377339D01*
X86162514Y-65482661D01*
X86189773Y-65584394D01*
X86242434Y-65675605D01*
X86246829Y-65680000D01*
X85488385Y-65680000D01*
X85489585Y-65687584D01*
X85543091Y-65852255D01*
X85621695Y-66006524D01*
X85723467Y-66146602D01*
X85845897Y-66269032D01*
X85985975Y-66370804D01*
X86140242Y-66449408D01*
X86304915Y-66502914D01*
X86475929Y-66530000D01*
X86712500Y-66530000D01*
X86712500Y-65829999D01*
X87212500Y-65829999D01*
X87212500Y-66530000D01*
X87449071Y-66530000D01*
X87620084Y-66502914D01*
X87784757Y-66449408D01*
X87939024Y-66370804D01*
X88079102Y-66269032D01*
X88201532Y-66146602D01*
X88303304Y-66006524D01*
X88381908Y-65852255D01*
X88435414Y-65687584D01*
X88436615Y-65680000D01*
X87678171Y-65680000D01*
X87682566Y-65675605D01*
X87735227Y-65584394D01*
X87762486Y-65482661D01*
X87762486Y-65377339D01*
X87735227Y-65275606D01*
X87682566Y-65184395D01*
X87678171Y-65180000D01*
X88436615Y-65180000D01*
X88436615Y-65179999D01*
X88435414Y-65172415D01*
X88381908Y-65007744D01*
X88303304Y-64853475D01*
X88201532Y-64713397D01*
X88079102Y-64590967D01*
X87939024Y-64489195D01*
X87784757Y-64410591D01*
X87620084Y-64357085D01*
X87449071Y-64330000D01*
X87440606Y-64330000D01*
X87373567Y-64310315D01*
X87327812Y-64257511D01*
X87317868Y-64188353D01*
X87318989Y-64181809D01*
X87337999Y-64086233D01*
X87338000Y-64086231D01*
X87338000Y-63913768D01*
X87337999Y-63913766D01*
X87304355Y-63744626D01*
X87289763Y-63709397D01*
X87238361Y-63585301D01*
X87238354Y-63585288D01*
X87142545Y-63441901D01*
X87142542Y-63441897D01*
X87020602Y-63319957D01*
X87020598Y-63319954D01*
X86877211Y-63224145D01*
X86877198Y-63224138D01*
X86717878Y-63158146D01*
X86717866Y-63158143D01*
X86548732Y-63124500D01*
X86548729Y-63124500D01*
X86376271Y-63124500D01*
X86376268Y-63124500D01*
X86207133Y-63158143D01*
X86207121Y-63158146D01*
X86047801Y-63224138D01*
X86047788Y-63224145D01*
X85904401Y-63319954D01*
X85904397Y-63319957D01*
X85782457Y-63441897D01*
X85782454Y-63441901D01*
X85686645Y-63585288D01*
X85686638Y-63585301D01*
X85620646Y-63744621D01*
X85620643Y-63744633D01*
X85587000Y-63913766D01*
X85587000Y-64086233D01*
X85620643Y-64255366D01*
X85620646Y-64255378D01*
X85686638Y-64414698D01*
X85686645Y-64414711D01*
X85764493Y-64531218D01*
X85785371Y-64597896D01*
X85766886Y-64665276D01*
X85749075Y-64687787D01*
X85723472Y-64713391D01*
X85723466Y-64713398D01*
X85621698Y-64853471D01*
X85543091Y-65007744D01*
X85489585Y-65172415D01*
X85488384Y-65179999D01*
X84156615Y-65179999D01*
X84155414Y-65172415D01*
X84101908Y-65007744D01*
X84023304Y-64853475D01*
X83921532Y-64713397D01*
X83799102Y-64590967D01*
X83659024Y-64489195D01*
X83504757Y-64410591D01*
X83340084Y-64357085D01*
X83169071Y-64330000D01*
X83032500Y-64330000D01*
X83032500Y-65030001D01*
X82532500Y-65030001D01*
X82532500Y-64330000D01*
X82395929Y-64330000D01*
X82224915Y-64357085D01*
X82060242Y-64410591D01*
X81905975Y-64489195D01*
X81765897Y-64590967D01*
X81643467Y-64713397D01*
X81541695Y-64853475D01*
X81463091Y-65007744D01*
X81409585Y-65172415D01*
X81408384Y-65179999D01*
X80500500Y-65179999D01*
X80500500Y-56519999D01*
X81408384Y-56519999D01*
X81408385Y-56520000D01*
X82166816Y-56520000D01*
X82162421Y-56524395D01*
X82109760Y-56615606D01*
X82082501Y-56717339D01*
X82082501Y-56822661D01*
X82109760Y-56924394D01*
X82162421Y-57015605D01*
X82166816Y-57020000D01*
X81408385Y-57020000D01*
X81409585Y-57027584D01*
X81463091Y-57192255D01*
X81541695Y-57346524D01*
X81643467Y-57486602D01*
X81765897Y-57609032D01*
X81905975Y-57710804D01*
X82060242Y-57789408D01*
X82224915Y-57842914D01*
X82395929Y-57870000D01*
X82532500Y-57870000D01*
X82532500Y-57169999D01*
X83032500Y-57169999D01*
X83032500Y-57870000D01*
X83169071Y-57870000D01*
X83340084Y-57842914D01*
X83504757Y-57789408D01*
X83659024Y-57710804D01*
X83799102Y-57609032D01*
X83921532Y-57486602D01*
X84023304Y-57346524D01*
X84101908Y-57192255D01*
X84155414Y-57027584D01*
X84156615Y-57020000D01*
X83398184Y-57020000D01*
X83402579Y-57015605D01*
X83455240Y-56924394D01*
X83482499Y-56822661D01*
X83482499Y-56717339D01*
X83455240Y-56615606D01*
X83402579Y-56524395D01*
X83398184Y-56520000D01*
X84156615Y-56520000D01*
X84156615Y-56519999D01*
X85488384Y-56519999D01*
X85488385Y-56520000D01*
X86246804Y-56520000D01*
X86242409Y-56524395D01*
X86189748Y-56615606D01*
X86162489Y-56717339D01*
X86162489Y-56822661D01*
X86189748Y-56924394D01*
X86242409Y-57015605D01*
X86246804Y-57020000D01*
X85488385Y-57020000D01*
X85489585Y-57027584D01*
X85543091Y-57192255D01*
X85621695Y-57346524D01*
X85723467Y-57486602D01*
X85749073Y-57512208D01*
X85782558Y-57573531D01*
X85777574Y-57643223D01*
X85764494Y-57668780D01*
X85686645Y-57785288D01*
X85686638Y-57785301D01*
X85620646Y-57944621D01*
X85620643Y-57944633D01*
X85587000Y-58113766D01*
X85587000Y-58286233D01*
X85620643Y-58455366D01*
X85620646Y-58455378D01*
X85686638Y-58614698D01*
X85686645Y-58614711D01*
X85782454Y-58758098D01*
X85782457Y-58758102D01*
X85904397Y-58880042D01*
X85904401Y-58880045D01*
X86047788Y-58975854D01*
X86047801Y-58975861D01*
X86195318Y-59036964D01*
X86207126Y-59041855D01*
X86333358Y-59066964D01*
X86376266Y-59075499D01*
X86376269Y-59075500D01*
X86376271Y-59075500D01*
X86548731Y-59075500D01*
X86548732Y-59075499D01*
X86717874Y-59041855D01*
X86877205Y-58975858D01*
X87020599Y-58880045D01*
X87142545Y-58758099D01*
X87238358Y-58614705D01*
X87304355Y-58455374D01*
X87338000Y-58286229D01*
X87338000Y-58113771D01*
X87338000Y-58113768D01*
X87337999Y-58113766D01*
X87318989Y-58018191D01*
X87325216Y-57948599D01*
X87368080Y-57893422D01*
X87433969Y-57870178D01*
X87440606Y-57870000D01*
X87449071Y-57870000D01*
X87620084Y-57842914D01*
X87784757Y-57789408D01*
X87939024Y-57710804D01*
X88079102Y-57609032D01*
X88201532Y-57486602D01*
X88303304Y-57346524D01*
X88381908Y-57192255D01*
X88435414Y-57027584D01*
X88436615Y-57020000D01*
X87678196Y-57020000D01*
X87682591Y-57015605D01*
X87735252Y-56924394D01*
X87762511Y-56822661D01*
X87762511Y-56717339D01*
X87735252Y-56615606D01*
X87682591Y-56524395D01*
X87678196Y-56520000D01*
X88436615Y-56520000D01*
X88436615Y-56519999D01*
X88435414Y-56512415D01*
X88381908Y-56347744D01*
X88303304Y-56193475D01*
X88232355Y-56095821D01*
X88232354Y-56095818D01*
X88201538Y-56053404D01*
X88201534Y-56053399D01*
X88079102Y-55930967D01*
X87939024Y-55829195D01*
X87784755Y-55750591D01*
X87675203Y-55714995D01*
X87675202Y-55714995D01*
X87620084Y-55697085D01*
X87449071Y-55670000D01*
X87212500Y-55670000D01*
X87212500Y-56370001D01*
X86712500Y-56370001D01*
X86712500Y-55670000D01*
X86475929Y-55670000D01*
X86304915Y-55697085D01*
X86140242Y-55750591D01*
X85985975Y-55829195D01*
X85845897Y-55930967D01*
X85723467Y-56053397D01*
X85621695Y-56193475D01*
X85543091Y-56347744D01*
X85489585Y-56512415D01*
X85488384Y-56519999D01*
X84156615Y-56519999D01*
X84155414Y-56512415D01*
X84101908Y-56347744D01*
X84023304Y-56193475D01*
X83921532Y-56053397D01*
X83799102Y-55930967D01*
X83659024Y-55829195D01*
X83504757Y-55750591D01*
X83340084Y-55697085D01*
X83169071Y-55670000D01*
X83032500Y-55670000D01*
X83032500Y-56370001D01*
X82532500Y-56370001D01*
X82532500Y-55670000D01*
X82395929Y-55670000D01*
X82224915Y-55697085D01*
X82060242Y-55750591D01*
X81905975Y-55829195D01*
X81765897Y-55930967D01*
X81643467Y-56053397D01*
X81541695Y-56193475D01*
X81463091Y-56347744D01*
X81409585Y-56512415D01*
X81408384Y-56519999D01*
X80500500Y-56519999D01*
X80500500Y-55560000D01*
X88984016Y-55560000D01*
X89934825Y-55560000D01*
X89890772Y-55636302D01*
X89860104Y-55750755D01*
X89860104Y-55869245D01*
X89890772Y-55983698D01*
X89934825Y-56060000D01*
X88984016Y-56060000D01*
X88990781Y-56102716D01*
X89051581Y-56289837D01*
X89140904Y-56465143D01*
X89256555Y-56624321D01*
X89395678Y-56763444D01*
X89554856Y-56879095D01*
X89730164Y-56968418D01*
X89917294Y-57029221D01*
X90111618Y-57060000D01*
X90910000Y-57060000D01*
X90910000Y-56260012D01*
X91410000Y-56260012D01*
X91410000Y-57060000D01*
X92208382Y-57060000D01*
X92402705Y-57029221D01*
X92589835Y-56968418D01*
X92765143Y-56879095D01*
X92924321Y-56763444D01*
X93063444Y-56624321D01*
X93179095Y-56465143D01*
X93268418Y-56289837D01*
X93329218Y-56102716D01*
X93335984Y-56060000D01*
X92385175Y-56060000D01*
X92429228Y-55983698D01*
X92459896Y-55869245D01*
X92459896Y-55750755D01*
X92429228Y-55636302D01*
X92385175Y-55560000D01*
X93335984Y-55560000D01*
X93329218Y-55517283D01*
X93268418Y-55330162D01*
X93179095Y-55154856D01*
X93063444Y-54995678D01*
X92924321Y-54856555D01*
X92765143Y-54740904D01*
X92589835Y-54651581D01*
X92402705Y-54590778D01*
X92208382Y-54560000D01*
X91410000Y-54560000D01*
X91410000Y-55359988D01*
X90910000Y-55359988D01*
X90910000Y-54560000D01*
X90111618Y-54560000D01*
X89917294Y-54590778D01*
X89730164Y-54651581D01*
X89554856Y-54740904D01*
X89395678Y-54856555D01*
X89256555Y-54995678D01*
X89140904Y-55154856D01*
X89051581Y-55330162D01*
X88990781Y-55517283D01*
X88984016Y-55560000D01*
X80500500Y-55560000D01*
X80500500Y-49901617D01*
X86410000Y-49901617D01*
X86410000Y-50900000D01*
X87209988Y-50900000D01*
X87209988Y-51400000D01*
X86410000Y-51400000D01*
X86410000Y-52398382D01*
X86440778Y-52592705D01*
X86501581Y-52779835D01*
X86590904Y-52955143D01*
X86706555Y-53114321D01*
X86845678Y-53253444D01*
X87004856Y-53369095D01*
X87180162Y-53458418D01*
X87367283Y-53519218D01*
X87410000Y-53525984D01*
X87410000Y-52625365D01*
X87486302Y-52669418D01*
X87600755Y-52700086D01*
X87719245Y-52700086D01*
X87833698Y-52669418D01*
X87910000Y-52625365D01*
X87910000Y-53525983D01*
X87952716Y-53519218D01*
X88139837Y-53458418D01*
X88315143Y-53369095D01*
X88474321Y-53253444D01*
X88613444Y-53114321D01*
X88729095Y-52955143D01*
X88818418Y-52779835D01*
X88879221Y-52592705D01*
X88910000Y-52398382D01*
X88910000Y-51400000D01*
X88110012Y-51400000D01*
X88110012Y-50900000D01*
X88910000Y-50900000D01*
X88910000Y-49901617D01*
X88909994Y-49901577D01*
X92409500Y-49901577D01*
X92409500Y-52398422D01*
X92440290Y-52592826D01*
X92501117Y-52780029D01*
X92586100Y-52946816D01*
X92590476Y-52955405D01*
X92706172Y-53114646D01*
X92845354Y-53253828D01*
X93004595Y-53369524D01*
X93046289Y-53390768D01*
X93179970Y-53458882D01*
X93179972Y-53458882D01*
X93179975Y-53458884D01*
X93280317Y-53491487D01*
X93367173Y-53519709D01*
X93561578Y-53550500D01*
X93561583Y-53550500D01*
X93758422Y-53550500D01*
X93952826Y-53519709D01*
X93972551Y-53513300D01*
X94140025Y-53458884D01*
X94315405Y-53369524D01*
X94474646Y-53253828D01*
X94613828Y-53114646D01*
X94729524Y-52955405D01*
X94818884Y-52780025D01*
X94879709Y-52592826D01*
X94892923Y-52509397D01*
X94910500Y-52398422D01*
X94910500Y-49901577D01*
X94879709Y-49707173D01*
X94818882Y-49519970D01*
X94742333Y-49369735D01*
X94729524Y-49344595D01*
X94613828Y-49185354D01*
X94474646Y-49046172D01*
X94315405Y-48930476D01*
X94272312Y-48908519D01*
X94140029Y-48841117D01*
X93952826Y-48780290D01*
X93758422Y-48749500D01*
X93758417Y-48749500D01*
X93561583Y-48749500D01*
X93561578Y-48749500D01*
X93367173Y-48780290D01*
X93179970Y-48841117D01*
X93004594Y-48930476D01*
X92937571Y-48979172D01*
X92845354Y-49046172D01*
X92845352Y-49046174D01*
X92845351Y-49046174D01*
X92706174Y-49185351D01*
X92706174Y-49185352D01*
X92706172Y-49185354D01*
X92656485Y-49253741D01*
X92590476Y-49344594D01*
X92501117Y-49519970D01*
X92440290Y-49707173D01*
X92409500Y-49901577D01*
X88909994Y-49901577D01*
X88879221Y-49707294D01*
X88818418Y-49520164D01*
X88729095Y-49344856D01*
X88613444Y-49185678D01*
X88474321Y-49046555D01*
X88315143Y-48930904D01*
X88139835Y-48841581D01*
X87952705Y-48780778D01*
X87910000Y-48774014D01*
X87910000Y-49674634D01*
X87833698Y-49630582D01*
X87719245Y-49599914D01*
X87600755Y-49599914D01*
X87486302Y-49630582D01*
X87410000Y-49674634D01*
X87410000Y-48774014D01*
X87409999Y-48774014D01*
X87367294Y-48780778D01*
X87180164Y-48841581D01*
X87004856Y-48930904D01*
X86845678Y-49046555D01*
X86706555Y-49185678D01*
X86590904Y-49344856D01*
X86501581Y-49520164D01*
X86440778Y-49707294D01*
X86410000Y-49901617D01*
X80500500Y-49901617D01*
X80500500Y-43024071D01*
X82260000Y-43024071D01*
X82260000Y-43275928D01*
X82299397Y-43524669D01*
X82377219Y-43764184D01*
X82491557Y-43988583D01*
X82565748Y-44090697D01*
X82565748Y-44090698D01*
X83220690Y-43435755D01*
X83239669Y-43481574D01*
X83316275Y-43596223D01*
X83413777Y-43693725D01*
X83528426Y-43770331D01*
X83574243Y-43789308D01*
X82919300Y-44444250D01*
X83021416Y-44518442D01*
X83245815Y-44632780D01*
X83485330Y-44710602D01*
X83734072Y-44750000D01*
X83985928Y-44750000D01*
X84234669Y-44710602D01*
X84474184Y-44632780D01*
X84698575Y-44518446D01*
X84698581Y-44518442D01*
X84800697Y-44444250D01*
X84800698Y-44444250D01*
X84145756Y-43789309D01*
X84191574Y-43770331D01*
X84306223Y-43693725D01*
X84403725Y-43596223D01*
X84480331Y-43481574D01*
X84499308Y-43435756D01*
X85154250Y-44090698D01*
X85154250Y-44090697D01*
X85228442Y-43988581D01*
X85228446Y-43988575D01*
X85342780Y-43764184D01*
X85420602Y-43524669D01*
X85460000Y-43275928D01*
X85460000Y-43024071D01*
X85420602Y-42775330D01*
X85342780Y-42535815D01*
X85228442Y-42311416D01*
X85154250Y-42209301D01*
X85154250Y-42209300D01*
X84499308Y-42864242D01*
X84480331Y-42818426D01*
X84403725Y-42703777D01*
X84306223Y-42606275D01*
X84191574Y-42529669D01*
X84145754Y-42510690D01*
X84800698Y-41855748D01*
X84698583Y-41781557D01*
X84474184Y-41667219D01*
X84234669Y-41589397D01*
X83985928Y-41550000D01*
X83734072Y-41550000D01*
X83485330Y-41589397D01*
X83245815Y-41667219D01*
X83021413Y-41781559D01*
X82919301Y-41855747D01*
X82919300Y-41855748D01*
X83574243Y-42510690D01*
X83528426Y-42529669D01*
X83413777Y-42606275D01*
X83316275Y-42703777D01*
X83239669Y-42818426D01*
X83220690Y-42864243D01*
X82565748Y-42209300D01*
X82565747Y-42209301D01*
X82491559Y-42311413D01*
X82377219Y-42535815D01*
X82299397Y-42775330D01*
X82260000Y-43024071D01*
X80500500Y-43024071D01*
X80500500Y-38024038D01*
X82259500Y-38024038D01*
X82259500Y-38275961D01*
X82298910Y-38524785D01*
X82376760Y-38764383D01*
X82455413Y-38918747D01*
X82468092Y-38943631D01*
X82491132Y-38988848D01*
X82639201Y-39192649D01*
X82639205Y-39192654D01*
X82817345Y-39370794D01*
X82817350Y-39370798D01*
X82971784Y-39483000D01*
X83021155Y-39518870D01*
X83164184Y-39591747D01*
X83245616Y-39633239D01*
X83245618Y-39633239D01*
X83245621Y-39633241D01*
X83485215Y-39711090D01*
X83734038Y-39750500D01*
X83734039Y-39750500D01*
X83985961Y-39750500D01*
X83985962Y-39750500D01*
X84234785Y-39711090D01*
X84474379Y-39633241D01*
X84698845Y-39518870D01*
X84902656Y-39370793D01*
X85080793Y-39192656D01*
X85228870Y-38988845D01*
X85343241Y-38764379D01*
X85421090Y-38524785D01*
X85460500Y-38275962D01*
X85460500Y-38024038D01*
X85421090Y-37775215D01*
X85343241Y-37535621D01*
X85343239Y-37535618D01*
X85343239Y-37535616D01*
X85301747Y-37454184D01*
X85228870Y-37311155D01*
X85197600Y-37268116D01*
X85080798Y-37107350D01*
X85080794Y-37107345D01*
X84902654Y-36929205D01*
X84902649Y-36929201D01*
X84698848Y-36781132D01*
X84698847Y-36781131D01*
X84698845Y-36781130D01*
X84614790Y-36738302D01*
X84474383Y-36666760D01*
X84234785Y-36588910D01*
X83985962Y-36549500D01*
X83734038Y-36549500D01*
X83609626Y-36569205D01*
X83485214Y-36588910D01*
X83245616Y-36666760D01*
X83021151Y-36781132D01*
X82817350Y-36929201D01*
X82817345Y-36929205D01*
X82639205Y-37107345D01*
X82639201Y-37107350D01*
X82491132Y-37311151D01*
X82376760Y-37535616D01*
X82298910Y-37775214D01*
X82259500Y-38024038D01*
X80500500Y-38024038D01*
X80500500Y-36004427D01*
X80500816Y-35995581D01*
X80506801Y-35911899D01*
X80515131Y-35795434D01*
X80517646Y-35777938D01*
X80559356Y-35586199D01*
X80564333Y-35569248D01*
X80632911Y-35385385D01*
X80640259Y-35369298D01*
X80734291Y-35197089D01*
X80743845Y-35182221D01*
X80861448Y-35025123D01*
X80873020Y-35011769D01*
X81011769Y-34873020D01*
X81025123Y-34861448D01*
X81182221Y-34743845D01*
X81197089Y-34734291D01*
X81369298Y-34640258D01*
X81385385Y-34632911D01*
X81569248Y-34564333D01*
X81586199Y-34559356D01*
X81777938Y-34517646D01*
X81795436Y-34515130D01*
X81995582Y-34500816D01*
X82004428Y-34500500D01*
X82065892Y-34500500D01*
X92376981Y-34500500D01*
X92444020Y-34520185D01*
G37*
%TD.AperFunction*%
%TA.AperFunction,Conductor*%
G36*
X151624520Y-45219185D02*
G01*
X151645162Y-45235819D01*
X152685964Y-46276621D01*
X152719449Y-46337944D01*
X152714465Y-46407636D01*
X152672593Y-46463569D01*
X152607129Y-46487986D01*
X152550831Y-46478863D01*
X152433501Y-46430264D01*
X152433489Y-46430261D01*
X152278845Y-46399500D01*
X152278842Y-46399500D01*
X152121158Y-46399500D01*
X152121155Y-46399500D01*
X151966510Y-46430261D01*
X151966498Y-46430264D01*
X151820827Y-46490602D01*
X151820814Y-46490609D01*
X151689711Y-46578210D01*
X151689707Y-46578213D01*
X151578213Y-46689707D01*
X151578210Y-46689711D01*
X151490609Y-46820814D01*
X151490602Y-46820827D01*
X151430264Y-46966498D01*
X151430261Y-46966510D01*
X151399500Y-47121153D01*
X151399500Y-47218989D01*
X151379815Y-47286028D01*
X151327011Y-47331783D01*
X151257853Y-47341727D01*
X151194297Y-47312702D01*
X151172398Y-47287880D01*
X151126997Y-47219933D01*
X151126994Y-47219929D01*
X151015500Y-47108435D01*
X151015496Y-47108432D01*
X150884393Y-47020831D01*
X150884380Y-47020824D01*
X150738709Y-46960486D01*
X150738697Y-46960483D01*
X150584056Y-46929722D01*
X150583441Y-46929662D01*
X150582935Y-46929499D01*
X150578076Y-46928533D01*
X150578187Y-46927973D01*
X150573381Y-46926429D01*
X150566365Y-46926764D01*
X150533599Y-46913647D01*
X150521256Y-46906521D01*
X150433553Y-46855886D01*
X150406771Y-46840423D01*
X150406770Y-46840422D01*
X150406769Y-46840422D01*
X150337229Y-46821789D01*
X150254043Y-46799499D01*
X150095929Y-46799499D01*
X150088333Y-46799499D01*
X150088317Y-46799500D01*
X144793139Y-46799500D01*
X144793123Y-46799499D01*
X144785527Y-46799499D01*
X144627413Y-46799499D01*
X144474685Y-46840423D01*
X144474684Y-46840423D01*
X144474682Y-46840424D01*
X144447904Y-46855885D01*
X144447903Y-46855886D01*
X144392828Y-46887683D01*
X144337755Y-46919479D01*
X144337752Y-46919481D01*
X144225948Y-47031286D01*
X140985332Y-50271901D01*
X140924009Y-50305386D01*
X140854317Y-50300402D01*
X140809970Y-50271901D01*
X140710292Y-50172223D01*
X140710288Y-50172220D01*
X140579185Y-50084619D01*
X140579172Y-50084612D01*
X140433501Y-50024274D01*
X140433491Y-50024271D01*
X140300308Y-49997779D01*
X140238397Y-49965394D01*
X140203823Y-49904678D01*
X140200500Y-49876162D01*
X140200500Y-46517847D01*
X140220185Y-46450808D01*
X140272989Y-46405053D01*
X140300309Y-46396230D01*
X140316291Y-46393050D01*
X140433497Y-46369737D01*
X140579179Y-46309394D01*
X140710289Y-46221789D01*
X140821789Y-46110289D01*
X140909394Y-45979179D01*
X140969737Y-45833497D01*
X141000500Y-45678842D01*
X141000500Y-45521158D01*
X141000500Y-45521155D01*
X141000499Y-45521153D01*
X140982419Y-45430261D01*
X140969737Y-45366503D01*
X140969732Y-45366492D01*
X140967969Y-45360676D01*
X140970396Y-45359939D01*
X140964110Y-45301488D01*
X140995383Y-45239008D01*
X141055470Y-45203353D01*
X141086141Y-45199500D01*
X151557481Y-45199500D01*
X151624520Y-45219185D01*
G37*
%TD.AperFunction*%
%TD*%
M02*
