%TF.GenerationSoftware,KiCad,Pcbnew,9.0.2*%
%TF.CreationDate,2025-11-24T16:37:35-05:00*%
%TF.ProjectId,carkit PANEL,6361726b-6974-4205-9041-4e454c2e6b69,rev?*%
%TF.SameCoordinates,Original*%
%TF.FileFunction,Soldermask,Bot*%
%TF.FilePolarity,Negative*%
%FSLAX46Y46*%
G04 Gerber Fmt 4.6, Leading zero omitted, Abs format (unit mm)*
G04 Created by KiCad (PCBNEW 9.0.2) date 2025-11-24 16:37:35*
%MOMM*%
%LPD*%
G01*
G04 APERTURE LIST*
%ADD10C,0.000000*%
%ADD11C,0.610000*%
%ADD12C,0.900000*%
%ADD13C,2.200000*%
%ADD14C,0.750000*%
%ADD15O,2.000000X1.200000*%
%ADD16O,1.800000X1.200000*%
%ADD17O,1.500000X3.800000*%
%ADD18O,3.400000X1.500000*%
%ADD19C,0.800000*%
%ADD20C,6.400000*%
G04 APERTURE END LIST*
D10*
%TO.C,G\u002A\u002A\u002A5*%
G36*
X95708091Y-41839705D02*
G01*
X95746312Y-41901481D01*
X95862970Y-42140937D01*
X95985291Y-42448253D01*
X96079432Y-42736608D01*
X96094200Y-42793880D01*
X96152684Y-42933705D01*
X96204317Y-42973467D01*
X96315581Y-43033068D01*
X96452554Y-43171638D01*
X96563017Y-43328826D01*
X96597204Y-43427509D01*
X96527870Y-43506622D01*
X96386679Y-43532183D01*
X96160289Y-43606885D01*
X95937529Y-43811541D01*
X95759338Y-43978401D01*
X95585780Y-44076131D01*
X95453707Y-44091277D01*
X95399977Y-44010392D01*
X95399954Y-44007746D01*
X95350038Y-43893904D01*
X95240321Y-43753246D01*
X95123979Y-43595181D01*
X95080687Y-43477225D01*
X95134084Y-43385226D01*
X95263244Y-43387939D01*
X95421627Y-43477496D01*
X95492513Y-43546875D01*
X95643704Y-43721200D01*
X95765804Y-43546875D01*
X95933172Y-43410411D01*
X96082196Y-43372550D01*
X96276486Y-43372550D01*
X96037761Y-43144413D01*
X95886763Y-42972309D01*
X95804252Y-42824208D01*
X95799038Y-42793778D01*
X95734460Y-42660355D01*
X95679312Y-42625337D01*
X95576728Y-42627377D01*
X95559588Y-42664591D01*
X95505739Y-42768570D01*
X95371440Y-42923562D01*
X95320138Y-42973467D01*
X95169207Y-43134201D01*
X95086216Y-43260960D01*
X95080687Y-43284849D01*
X95022150Y-43364169D01*
X94880049Y-43366816D01*
X94704655Y-43303127D01*
X94546241Y-43183440D01*
X94536893Y-43173009D01*
X94363394Y-42973467D01*
X94687834Y-42973467D01*
X94968350Y-42932250D01*
X95164514Y-42822237D01*
X95240281Y-42663886D01*
X95240321Y-42659902D01*
X95297704Y-42577843D01*
X95320138Y-42574384D01*
X95372469Y-42504117D01*
X95399102Y-42330909D01*
X95399954Y-42289323D01*
X95434744Y-42059946D01*
X95519403Y-41885513D01*
X95528395Y-41875824D01*
X95634753Y-41792441D01*
X95708091Y-41839705D01*
G37*
G36*
X100732969Y-38971817D02*
G01*
X100828142Y-39137149D01*
X100836580Y-39281945D01*
X100889232Y-39361751D01*
X100983625Y-39381715D01*
X101118864Y-39435846D01*
X101146756Y-39544977D01*
X101219820Y-39761628D01*
X101413125Y-39960117D01*
X101687847Y-40108865D01*
X101911561Y-40167043D01*
X102160123Y-40224505D01*
X102257728Y-40295303D01*
X102201787Y-40369609D01*
X101989704Y-40437589D01*
X101983298Y-40438931D01*
X101677632Y-40547810D01*
X101509502Y-40724734D01*
X101466024Y-40938141D01*
X101423422Y-41131185D01*
X101322044Y-41298549D01*
X101201528Y-41376645D01*
X101192366Y-41377133D01*
X101155536Y-41309887D01*
X101146756Y-41213872D01*
X101074020Y-40988173D01*
X100884004Y-40799981D01*
X100618984Y-40682129D01*
X100432034Y-40658782D01*
X100230772Y-40641266D01*
X100117940Y-40597453D01*
X100109140Y-40578966D01*
X100050411Y-40517153D01*
X100019345Y-40519104D01*
X99970032Y-40499149D01*
X100478122Y-40499149D01*
X100812440Y-40499149D01*
X101017857Y-40516105D01*
X101135747Y-40558679D01*
X101146756Y-40578966D01*
X101207496Y-40656463D01*
X101226572Y-40658782D01*
X101286574Y-40590477D01*
X101306391Y-40459241D01*
X101279067Y-40309241D01*
X101226572Y-40259699D01*
X101167187Y-40191224D01*
X101146756Y-40054457D01*
X101111464Y-39879333D01*
X101028269Y-39732503D01*
X100931201Y-39661413D01*
X100876900Y-39678177D01*
X100840548Y-39786897D01*
X100827491Y-39950627D01*
X100765976Y-40180193D01*
X100652805Y-40336406D01*
X100478122Y-40499149D01*
X99970032Y-40499149D01*
X99914417Y-40476645D01*
X99892969Y-40439286D01*
X99928320Y-40361081D01*
X100062580Y-40339515D01*
X100215779Y-40316073D01*
X100268772Y-40269009D01*
X100335199Y-40194488D01*
X100428408Y-40156756D01*
X100521418Y-40108717D01*
X100569783Y-39999896D01*
X100586920Y-39789245D01*
X100588040Y-39668546D01*
X100575126Y-39425821D01*
X100541764Y-39263670D01*
X100508224Y-39222083D01*
X100443374Y-39155232D01*
X100428408Y-39062448D01*
X100485627Y-38928098D01*
X100579500Y-38902816D01*
X100732969Y-38971817D01*
G37*
%TO.C,G\u002A\u002A\u002A*%
G36*
X95708091Y-93839705D02*
G01*
X95746312Y-93901481D01*
X95862970Y-94140937D01*
X95985291Y-94448253D01*
X96079432Y-94736608D01*
X96094200Y-94793880D01*
X96152684Y-94933705D01*
X96204317Y-94973467D01*
X96315581Y-95033068D01*
X96452554Y-95171638D01*
X96563017Y-95328826D01*
X96597204Y-95427509D01*
X96527870Y-95506622D01*
X96386679Y-95532183D01*
X96160289Y-95606885D01*
X95937529Y-95811541D01*
X95759338Y-95978401D01*
X95585780Y-96076131D01*
X95453707Y-96091277D01*
X95399977Y-96010392D01*
X95399954Y-96007746D01*
X95350038Y-95893904D01*
X95240321Y-95753246D01*
X95123979Y-95595181D01*
X95080687Y-95477225D01*
X95134084Y-95385226D01*
X95263244Y-95387939D01*
X95421627Y-95477496D01*
X95492513Y-95546875D01*
X95643704Y-95721200D01*
X95765804Y-95546875D01*
X95933172Y-95410411D01*
X96082196Y-95372550D01*
X96276486Y-95372550D01*
X96037761Y-95144413D01*
X95886763Y-94972309D01*
X95804252Y-94824208D01*
X95799038Y-94793778D01*
X95734460Y-94660355D01*
X95679312Y-94625337D01*
X95576728Y-94627377D01*
X95559588Y-94664591D01*
X95505739Y-94768570D01*
X95371440Y-94923562D01*
X95320138Y-94973467D01*
X95169207Y-95134201D01*
X95086216Y-95260960D01*
X95080687Y-95284849D01*
X95022150Y-95364169D01*
X94880049Y-95366816D01*
X94704655Y-95303127D01*
X94546241Y-95183440D01*
X94536893Y-95173009D01*
X94363394Y-94973467D01*
X94687834Y-94973467D01*
X94968350Y-94932250D01*
X95164514Y-94822237D01*
X95240281Y-94663886D01*
X95240321Y-94659902D01*
X95297704Y-94577843D01*
X95320138Y-94574384D01*
X95372469Y-94504117D01*
X95399102Y-94330909D01*
X95399954Y-94289323D01*
X95434744Y-94059946D01*
X95519403Y-93885513D01*
X95528395Y-93875824D01*
X95634753Y-93792441D01*
X95708091Y-93839705D01*
G37*
G36*
X100732969Y-90971817D02*
G01*
X100828142Y-91137149D01*
X100836580Y-91281945D01*
X100889232Y-91361751D01*
X100983625Y-91381715D01*
X101118864Y-91435846D01*
X101146756Y-91544977D01*
X101219820Y-91761628D01*
X101413125Y-91960117D01*
X101687847Y-92108865D01*
X101911561Y-92167043D01*
X102160123Y-92224505D01*
X102257728Y-92295303D01*
X102201787Y-92369609D01*
X101989704Y-92437589D01*
X101983298Y-92438931D01*
X101677632Y-92547810D01*
X101509502Y-92724734D01*
X101466024Y-92938141D01*
X101423422Y-93131185D01*
X101322044Y-93298549D01*
X101201528Y-93376645D01*
X101192366Y-93377133D01*
X101155536Y-93309887D01*
X101146756Y-93213872D01*
X101074020Y-92988173D01*
X100884004Y-92799981D01*
X100618984Y-92682129D01*
X100432034Y-92658782D01*
X100230772Y-92641266D01*
X100117940Y-92597453D01*
X100109140Y-92578966D01*
X100050411Y-92517153D01*
X100019345Y-92519104D01*
X99970032Y-92499149D01*
X100478122Y-92499149D01*
X100812440Y-92499149D01*
X101017857Y-92516105D01*
X101135747Y-92558679D01*
X101146756Y-92578966D01*
X101207496Y-92656463D01*
X101226572Y-92658782D01*
X101286574Y-92590477D01*
X101306391Y-92459241D01*
X101279067Y-92309241D01*
X101226572Y-92259699D01*
X101167187Y-92191224D01*
X101146756Y-92054457D01*
X101111464Y-91879333D01*
X101028269Y-91732503D01*
X100931201Y-91661413D01*
X100876900Y-91678177D01*
X100840548Y-91786897D01*
X100827491Y-91950627D01*
X100765976Y-92180193D01*
X100652805Y-92336406D01*
X100478122Y-92499149D01*
X99970032Y-92499149D01*
X99914417Y-92476645D01*
X99892969Y-92439286D01*
X99928320Y-92361081D01*
X100062580Y-92339515D01*
X100215779Y-92316073D01*
X100268772Y-92269009D01*
X100335199Y-92194488D01*
X100428408Y-92156756D01*
X100521418Y-92108717D01*
X100569783Y-91999896D01*
X100586920Y-91789245D01*
X100588040Y-91668546D01*
X100575126Y-91425821D01*
X100541764Y-91263670D01*
X100508224Y-91222083D01*
X100443374Y-91155232D01*
X100428408Y-91062448D01*
X100485627Y-90928098D01*
X100579500Y-90902816D01*
X100732969Y-90971817D01*
G37*
%TD*%
D11*
%TO.C,U9*%
X118325000Y-52030000D03*
X118325000Y-53030000D03*
X119325000Y-52030000D03*
X119325000Y-53030000D03*
%TD*%
D12*
%TO.C,SW6*%
X115400000Y-36000000D03*
X108600000Y-36000000D03*
%TD*%
D13*
%TO.C,J11*%
X104622500Y-37882500D03*
X99622500Y-37882500D03*
%TD*%
D14*
%TO.C,P2*%
X86462500Y-58200000D03*
X86462500Y-64000000D03*
D15*
X86962500Y-56770000D03*
D16*
X82782500Y-56770000D03*
D15*
X86962500Y-65430000D03*
D16*
X82782500Y-65430000D03*
%TD*%
D17*
%TO.C,J7*%
X93660000Y-51150000D03*
X87660000Y-51150000D03*
D18*
X91160000Y-55810000D03*
%TD*%
D13*
%TO.C,J8*%
X83860000Y-38150000D03*
X83860000Y-43150000D03*
%TD*%
D19*
%TO.C,H5*%
X90600000Y-38400000D03*
X91302944Y-36702944D03*
X91302944Y-40097056D03*
X93000000Y-36000000D03*
D20*
X93000000Y-38400000D03*
D19*
X93000000Y-40800000D03*
X94697056Y-36702944D03*
X94697056Y-40097056D03*
X95400000Y-38400000D03*
%TD*%
D11*
%TO.C,U10*%
X125580000Y-52030000D03*
X125580000Y-53030000D03*
X126580000Y-52030000D03*
X126580000Y-53030000D03*
%TD*%
D13*
%TO.C,J12*%
X150917500Y-80422500D03*
X150917500Y-75422500D03*
%TD*%
D19*
%TO.C,H6*%
X140600000Y-79600000D03*
X141302944Y-77902944D03*
X141302944Y-81297056D03*
X143000000Y-77200000D03*
D20*
X143000000Y-79600000D03*
D19*
X143000000Y-82000000D03*
X144697056Y-77902944D03*
X144697056Y-81297056D03*
X145400000Y-79600000D03*
%TD*%
%TO.C,H4*%
X82000000Y-79600000D03*
X82702944Y-77902944D03*
X82702944Y-81297056D03*
X84400000Y-77200000D03*
D20*
X84400000Y-79600000D03*
D19*
X84400000Y-82000000D03*
X86097056Y-77902944D03*
X86097056Y-81297056D03*
X86800000Y-79600000D03*
%TD*%
%TO.C,H3*%
X140600000Y-131600000D03*
X141302944Y-129902944D03*
X141302944Y-133297056D03*
X143000000Y-129200000D03*
D20*
X143000000Y-131600000D03*
D19*
X143000000Y-134000000D03*
X144697056Y-129902944D03*
X144697056Y-133297056D03*
X145400000Y-131600000D03*
%TD*%
%TO.C,H1*%
X82000000Y-131600000D03*
X82702944Y-129902944D03*
X82702944Y-133297056D03*
X84400000Y-129200000D03*
D20*
X84400000Y-131600000D03*
D19*
X84400000Y-134000000D03*
X86097056Y-129902944D03*
X86097056Y-133297056D03*
X86800000Y-131600000D03*
%TD*%
%TO.C,H2*%
X90600000Y-90400000D03*
X91302944Y-88702944D03*
X91302944Y-92097056D03*
X93000000Y-88000000D03*
D20*
X93000000Y-90400000D03*
D19*
X93000000Y-92800000D03*
X94697056Y-88702944D03*
X94697056Y-92097056D03*
X95400000Y-90400000D03*
%TD*%
D13*
%TO.C,J6*%
X150917500Y-132422500D03*
X150917500Y-127422500D03*
%TD*%
D11*
%TO.C,U5*%
X125580000Y-104030000D03*
X125580000Y-105030000D03*
X126580000Y-104030000D03*
X126580000Y-105030000D03*
%TD*%
D13*
%TO.C,J2*%
X83860000Y-90150000D03*
X83860000Y-95150000D03*
%TD*%
D17*
%TO.C,J1*%
X93660000Y-103150000D03*
X87660000Y-103150000D03*
D18*
X91160000Y-107810000D03*
%TD*%
D14*
%TO.C,P1*%
X86462500Y-110200000D03*
X86462500Y-116000000D03*
D15*
X86962500Y-108770000D03*
D16*
X82782500Y-108770000D03*
D15*
X86962500Y-117430000D03*
D16*
X82782500Y-117430000D03*
%TD*%
D12*
%TO.C,SW3*%
X115400000Y-88000000D03*
X108600000Y-88000000D03*
%TD*%
D11*
%TO.C,U4*%
X118325000Y-104030000D03*
X118325000Y-105030000D03*
X119325000Y-104030000D03*
X119325000Y-105030000D03*
%TD*%
D13*
%TO.C,J5*%
X104622500Y-89882500D03*
X99622500Y-89882500D03*
%TD*%
M02*
