M48
; DRILL file {KiCad 9.0.2} date 2025-11-24T16:37:32-0500
; FORMAT={-:-/ absolute / metric / decimal}
; #@! TF.CreationDate,2025-11-24T16:37:32-05:00
; #@! TF.GenerationSoftware,Kicad,Pcbnew,9.0.2
; #@! TF.FileFunction,Plated,1,2,PTH
FMAT,2
METRIC
; #@! TA.AperFunction,Plated,PTH,ViaDrill
T1C0.300
; #@! TA.AperFunction,Plated,PTH,ComponentDrill
T2C0.300
; #@! TA.AperFunction,Plated,PTH,ComponentDrill
T3C0.500
; #@! TA.AperFunction,Plated,PTH,ComponentDrill
T4C0.750
; #@! TA.AperFunction,Plated,PTH,ComponentDrill
T5C0.800
; #@! TA.AperFunction,Plated,PTH,ComponentDrill
T6C0.900
; #@! TA.AperFunction,Plated,PTH,ComponentDrill
T7C0.900
; #@! TA.AperFunction,Plated,PTH,ComponentDrill
T8C1.400
; #@! TA.AperFunction,Plated,PTH,ComponentDrill
T9C3.200
%
G90
G05
T1
X88.825Y-58.988
X88.825Y-110.988
X89.2Y-60.675
X89.2Y-61.525
X89.2Y-112.675
X89.2Y-113.525
X89.306Y-62.477
X89.306Y-114.477
X89.4Y-75.8
X89.4Y-127.8
X91.0Y-64.6
X91.0Y-116.6
X94.4Y-63.0
X94.4Y-115.0
X95.0Y-80.4
X95.0Y-132.4
X101.6Y-59.6
X101.6Y-111.6
X102.38Y-78.2
X102.38Y-130.2
X102.6Y-81.8
X102.6Y-133.8
X111.8Y-66.8
X111.8Y-118.8
X114.8Y-46.4
X114.8Y-98.4
X116.6Y-56.6
X116.6Y-72.0
X116.6Y-108.6
X116.6Y-124.0
X117.2Y-54.26
X117.2Y-106.26
X121.2Y-48.2
X121.2Y-100.2
X121.4Y-51.2
X121.4Y-103.2
X121.8Y-46.2
X121.8Y-98.2
X124.2Y-57.0
X124.2Y-109.0
X124.59Y-54.26
X124.59Y-106.26
X128.4Y-57.8
X128.4Y-109.8
X128.408Y-48.287
X128.408Y-100.287
X134.6Y-45.4
X134.6Y-97.4
X136.2Y-44.305
X136.2Y-96.305
X136.6Y-64.6
X136.6Y-116.6
X137.8Y-48.6
X137.8Y-100.6
X138.2Y-60.275
X138.2Y-72.0
X138.2Y-112.275
X138.2Y-124.0
X140.2Y-45.6
X140.2Y-50.794
X140.2Y-97.6
X140.2Y-102.794
X140.6Y-55.005
X140.6Y-107.005
X140.653Y-51.453
X140.653Y-103.453
X141.024Y-53.624
X141.024Y-105.624
X142.4Y-45.2
X142.4Y-97.2
X142.589Y-52.06
X142.589Y-104.06
X143.85Y-43.799
X143.85Y-95.799
X144.344Y-57.344
X144.344Y-109.344
X146.886Y-49.221
X146.886Y-101.221
X147.451Y-48.655
X147.451Y-100.655
X148.684Y-49.471
X148.684Y-101.471
X149.25Y-48.905
X149.25Y-100.905
X150.505Y-47.73
X150.505Y-99.73
X150.6Y-51.8
X150.6Y-103.8
X151.149Y-48.204
X151.149Y-100.204
X151.667Y-69.2
X151.667Y-121.2
X151.751Y-48.806
X151.751Y-100.806
X152.2Y-47.2
X152.2Y-99.2
X153.0Y-51.4
X153.0Y-103.4
T2
X118.325Y-52.03
X118.325Y-53.03
X118.325Y-104.03
X118.325Y-105.03
X119.325Y-52.03
X119.325Y-53.03
X119.325Y-104.03
X119.325Y-105.03
X125.58Y-52.03
X125.58Y-53.03
X125.58Y-104.03
X125.58Y-105.03
X126.58Y-52.03
X126.58Y-53.03
X126.58Y-104.03
X126.58Y-105.03
T3
X82.0Y-79.6
X82.0Y-131.6
X82.703Y-77.903
X82.703Y-81.297
X82.703Y-129.903
X82.703Y-133.297
X84.4Y-77.2
X84.4Y-82.0
X84.4Y-129.2
X84.4Y-134.0
X86.097Y-77.903
X86.097Y-81.297
X86.097Y-129.903
X86.097Y-133.297
X86.8Y-79.6
X86.8Y-131.6
X90.6Y-38.4
X90.6Y-90.4
X91.303Y-36.703
X91.303Y-40.097
X91.303Y-88.703
X91.303Y-92.097
X93.0Y-36.0
X93.0Y-40.8
X93.0Y-88.0
X93.0Y-92.8
X94.697Y-36.703
X94.697Y-40.097
X94.697Y-88.703
X94.697Y-92.097
X95.4Y-38.4
X95.4Y-90.4
X140.6Y-79.6
X140.6Y-131.6
X141.303Y-77.903
X141.303Y-81.297
X141.303Y-129.903
X141.303Y-133.297
X143.0Y-77.2
X143.0Y-82.0
X143.0Y-129.2
X143.0Y-134.0
X144.697Y-77.903
X144.697Y-81.297
X144.697Y-129.903
X144.697Y-133.297
X145.4Y-79.6
X145.4Y-131.6
T4
X86.462Y-58.2
X86.462Y-64.0
X86.462Y-110.2
X86.462Y-116.0
T6
X108.6Y-36.0
X108.6Y-88.0
X115.4Y-36.0
X115.4Y-88.0
T8
X83.86Y-38.15
X83.86Y-43.15
X83.86Y-90.15
X83.86Y-95.15
X99.623Y-37.883
X99.623Y-89.882
X104.623Y-37.883
X104.623Y-89.882
X150.917Y-75.422
X150.917Y-80.422
X150.917Y-127.422
X150.917Y-132.422
T9
X84.4Y-79.6
X84.4Y-131.6
X93.0Y-38.4
X93.0Y-90.4
X143.0Y-79.6
X143.0Y-131.6
T5
G00X83.082Y-56.77
M15
G01X82.483Y-56.77
M16
G05
G00X83.082Y-65.43
M15
G01X82.483Y-65.43
M16
G05
G00X83.082Y-108.77
M15
G01X82.483Y-108.77
M16
G05
G00X83.082Y-117.43
M15
G01X82.483Y-117.43
M16
G05
G00X87.363Y-56.77
M15
G01X86.562Y-56.77
M16
G05
G00X87.362Y-65.43
M15
G01X86.563Y-65.43
M16
G05
G00X87.363Y-108.77
M15
G01X86.562Y-108.77
M16
G05
G00X87.362Y-117.43
M15
G01X86.563Y-117.43
M16
G05
T7
G00X87.66Y-52.25
M15
G01X87.66Y-50.05
M16
G05
G00X87.66Y-104.25
M15
G01X87.66Y-102.05
M16
G05
G00X92.01Y-55.81
M15
G01X90.31Y-55.81
M16
G05
G00X92.01Y-107.81
M15
G01X90.31Y-107.81
M16
G05
G00X93.66Y-50.05
M15
G01X93.66Y-52.25
M16
G05
G00X93.66Y-102.05
M15
G01X93.66Y-104.25
M16
G05
M30
